<svg version="1.1" width="400" id="svg" xmlns:xlink="http://www.w3.org/1999/xlink" viewBox="0, 0, 400,400" height="400" xmlns="http://www.w3.org/2000/svg">
 <g id="svgg">
  <path fill-rule="evenodd" d="M193.150 7.800 C 192.951 8.595,193.002 9.068,193.332 9.509 C 193.607 9.877,193.548 9.955,193.120 9.791 C 192.621 9.599,192.525 10.175,192.517 13.395 C 192.505 17.885,192.651 17.638,189.936 17.747 L 187.800 17.832 187.747 19.216 C 187.718 19.977,187.673 22.175,187.647 24.100 C 187.604 27.282,187.529 27.600,186.824 27.600 C 186.397 27.600,185.924 27.799,185.774 28.043 C 185.581 28.354,185.405 28.333,185.180 27.968 C 184.923 27.551,184.724 27.562,184.154 28.026 C 183.586 28.486,183.512 28.491,183.779 28.048 C 184.009 27.666,183.940 27.553,183.556 27.681 C 182.902 27.899,182.793 28.789,183.332 29.509 C 183.607 29.877,183.548 29.955,183.120 29.791 C 182.621 29.599,182.525 30.175,182.517 33.395 C 182.505 37.885,182.651 37.638,179.936 37.747 L 177.800 37.832 177.747 39.216 C 177.718 39.977,177.673 42.175,177.647 44.100 C 177.604 47.282,177.529 47.600,176.824 47.600 C 176.397 47.600,175.924 47.799,175.774 48.043 C 175.581 48.354,175.405 48.333,175.180 47.968 C 174.923 47.551,174.724 47.562,174.154 48.026 C 173.586 48.486,173.512 48.491,173.779 48.048 C 174.009 47.666,173.940 47.553,173.556 47.681 C 172.902 47.899,172.793 48.789,173.332 49.509 C 173.607 49.877,173.548 49.955,173.120 49.791 C 172.621 49.599,172.525 50.175,172.517 53.395 C 172.505 57.885,172.651 57.638,169.936 57.747 L 167.800 57.832 167.747 59.216 C 167.718 59.977,167.673 62.175,167.647 64.100 C 167.604 67.282,167.529 67.600,166.824 67.600 C 166.397 67.600,165.924 67.799,165.774 68.043 C 165.581 68.354,165.405 68.333,165.180 67.968 C 164.923 67.551,164.724 67.562,164.154 68.026 C 163.586 68.486,163.512 68.491,163.779 68.048 C 164.009 67.666,163.940 67.553,163.556 67.681 C 162.902 67.899,162.793 68.789,163.332 69.509 C 163.607 69.877,163.548 69.955,163.120 69.791 C 162.621 69.599,162.525 70.175,162.517 73.395 C 162.505 77.885,162.651 77.638,159.936 77.747 L 157.800 77.832 157.747 79.216 C 157.718 79.977,157.673 82.175,157.647 84.100 C 157.604 87.282,157.529 87.600,156.824 87.600 C 156.397 87.600,155.924 87.799,155.774 88.043 C 155.581 88.354,155.405 88.333,155.180 87.968 C 154.923 87.551,154.724 87.562,154.154 88.026 C 153.586 88.486,153.512 88.491,153.779 88.048 C 154.009 87.666,153.940 87.553,153.556 87.681 C 152.902 87.899,152.793 88.789,153.332 89.509 C 153.607 89.877,153.548 89.955,153.120 89.791 C 152.621 89.599,152.525 90.175,152.517 93.395 C 152.505 97.885,152.651 97.638,149.936 97.747 L 147.800 97.832 147.747 99.216 C 147.718 99.977,147.673 102.175,147.647 104.100 C 147.604 107.282,147.529 107.600,146.824 107.600 C 146.397 107.600,145.924 107.799,145.774 108.043 C 145.581 108.354,145.405 108.333,145.180 107.968 C 144.923 107.551,144.724 107.562,144.154 108.026 C 143.586 108.486,143.512 108.491,143.779 108.048 C 144.009 107.666,143.940 107.553,143.556 107.681 C 142.902 107.899,142.793 108.789,143.332 109.509 C 143.607 109.877,143.548 109.955,143.120 109.791 C 142.621 109.599,142.525 110.175,142.517 113.395 C 142.505 117.885,142.651 117.638,139.936 117.747 L 137.800 117.832 137.747 119.216 C 137.718 119.977,137.673 122.175,137.647 124.100 C 137.604 127.282,137.529 127.600,136.824 127.600 C 136.397 127.600,135.924 127.799,135.774 128.043 C 135.581 128.354,135.405 128.333,135.180 127.968 C 134.923 127.551,134.724 127.562,134.154 128.026 C 133.586 128.486,133.512 128.491,133.779 128.048 C 134.009 127.666,133.940 127.553,133.556 127.681 C 132.902 127.899,132.793 128.789,133.332 129.509 C 133.607 129.877,133.548 129.955,133.120 129.791 C 132.621 129.599,132.525 130.175,132.517 133.395 C 132.505 137.885,132.651 137.638,129.936 137.747 L 127.800 137.832 127.747 139.216 C 127.718 139.977,127.673 142.175,127.647 144.100 C 127.604 147.282,127.529 147.600,126.824 147.600 C 126.397 147.600,125.924 147.799,125.774 148.043 C 125.581 148.354,125.405 148.333,125.180 147.968 C 124.923 147.551,124.724 147.562,124.154 148.026 C 123.586 148.486,123.512 148.491,123.779 148.048 C 124.009 147.666,123.940 147.553,123.556 147.681 C 122.902 147.899,122.793 148.789,123.332 149.509 C 123.607 149.877,123.548 149.955,123.120 149.791 C 122.621 149.599,122.525 150.175,122.517 153.395 C 122.505 157.885,122.651 157.638,119.936 157.747 L 117.800 157.832 117.747 159.216 C 117.718 159.977,117.673 162.175,117.647 164.100 C 117.604 167.282,117.529 167.600,116.824 167.600 C 116.397 167.600,115.924 167.799,115.774 168.043 C 115.581 168.354,115.405 168.333,115.180 167.968 C 114.923 167.551,114.724 167.562,114.154 168.026 C 113.586 168.486,113.512 168.491,113.779 168.048 C 114.009 167.666,113.940 167.553,113.556 167.681 C 112.902 167.899,112.793 168.789,113.332 169.509 C 113.607 169.877,113.548 169.955,113.120 169.791 C 112.621 169.599,112.525 170.175,112.517 173.395 C 112.505 177.885,112.651 177.638,109.936 177.747 L 107.800 177.832 107.747 179.216 C 107.718 179.977,107.673 182.175,107.647 184.100 C 107.604 187.282,107.529 187.600,106.824 187.600 C 106.397 187.600,105.924 187.799,105.774 188.043 C 105.581 188.354,105.405 188.333,105.180 187.968 C 104.923 187.551,104.724 187.562,104.154 188.026 C 103.586 188.486,103.512 188.491,103.779 188.048 C 104.009 187.666,103.940 187.553,103.556 187.681 C 102.902 187.899,102.793 188.789,103.332 189.509 C 103.607 189.877,103.548 189.955,103.120 189.791 C 102.621 189.599,102.525 190.175,102.517 193.395 C 102.505 197.885,102.651 197.638,99.936 197.747 L 97.800 197.832 97.747 199.216 C 97.718 199.977,97.673 202.175,97.647 204.100 C 97.604 207.282,97.529 207.600,96.824 207.600 C 96.397 207.600,95.924 207.799,95.774 208.043 C 95.581 208.354,95.405 208.333,95.180 207.968 C 94.923 207.551,94.724 207.562,94.154 208.026 C 93.586 208.486,93.512 208.491,93.779 208.048 C 94.009 207.666,93.940 207.553,93.556 207.681 C 92.902 207.899,92.793 208.789,93.332 209.509 C 93.607 209.877,93.548 209.955,93.120 209.791 C 92.621 209.599,92.525 210.175,92.517 213.395 C 92.505 217.885,92.651 217.638,89.936 217.747 L 87.800 217.832 87.747 219.216 C 87.718 219.977,87.673 222.175,87.647 224.100 C 87.604 227.282,87.529 227.600,86.824 227.600 C 86.397 227.600,85.924 227.799,85.774 228.043 C 85.581 228.354,85.405 228.333,85.180 227.968 C 84.923 227.551,84.724 227.562,84.154 228.026 C 83.586 228.486,83.512 228.491,83.779 228.048 C 84.009 227.666,83.940 227.553,83.556 227.681 C 82.902 227.899,82.793 228.789,83.332 229.509 C 83.607 229.877,83.548 229.955,83.120 229.791 C 82.621 229.599,82.525 230.175,82.517 233.395 C 82.505 237.885,82.651 237.638,79.936 237.747 L 77.800 237.832 77.747 239.216 C 77.718 239.977,77.673 242.175,77.647 244.100 C 77.604 247.282,77.529 247.600,76.824 247.600 C 76.397 247.600,75.924 247.799,75.774 248.043 C 75.581 248.354,75.405 248.333,75.180 247.968 C 74.923 247.551,74.724 247.562,74.154 248.026 C 73.586 248.486,73.512 248.491,73.779 248.048 C 74.009 247.666,73.940 247.553,73.556 247.681 C 72.902 247.899,72.793 248.789,73.332 249.509 C 73.607 249.877,73.548 249.955,73.120 249.791 C 72.621 249.599,72.525 250.175,72.517 253.395 C 72.505 257.885,72.651 257.638,69.936 257.747 L 67.800 257.832 67.747 259.216 C 67.718 259.977,67.673 262.175,67.647 264.100 C 67.604 267.282,67.529 267.600,66.824 267.600 C 66.397 267.600,65.924 267.799,65.774 268.043 C 65.581 268.354,65.405 268.333,65.180 267.968 C 64.923 267.551,64.724 267.562,64.154 268.026 C 63.586 268.486,63.512 268.491,63.779 268.048 C 64.009 267.666,63.940 267.553,63.556 267.681 C 62.902 267.899,62.793 268.789,63.332 269.509 C 63.607 269.877,63.548 269.955,63.120 269.791 C 62.621 269.599,62.525 270.175,62.517 273.395 C 62.505 277.885,62.651 277.638,59.936 277.747 L 57.800 277.832 57.747 279.216 C 57.718 279.977,57.673 282.175,57.647 284.100 C 57.604 287.282,57.529 287.600,56.824 287.600 C 56.397 287.600,55.924 287.799,55.774 288.043 C 55.581 288.354,55.405 288.333,55.180 287.968 C 54.923 287.551,54.724 287.562,54.154 288.026 C 53.586 288.486,53.512 288.491,53.779 288.048 C 54.009 287.666,53.940 287.553,53.556 287.681 C 52.902 287.899,52.793 288.789,53.332 289.509 C 53.607 289.877,53.548 289.955,53.120 289.791 C 52.621 289.599,52.525 290.175,52.517 293.395 C 52.505 297.885,52.651 297.638,49.936 297.747 L 47.800 297.832 47.747 299.216 C 47.718 299.977,47.673 302.175,47.647 304.100 C 47.604 307.282,47.529 307.600,46.824 307.600 C 46.397 307.600,45.924 307.799,45.774 308.043 C 45.581 308.354,45.405 308.333,45.180 307.968 C 44.923 307.551,44.724 307.562,44.154 308.026 C 43.586 308.486,43.512 308.491,43.779 308.048 C 44.009 307.666,43.940 307.553,43.556 307.681 C 42.902 307.899,42.793 308.789,43.332 309.509 C 43.607 309.877,43.548 309.955,43.120 309.791 C 42.621 309.599,42.525 310.175,42.517 313.395 C 42.505 317.885,42.651 317.638,39.936 317.747 L 37.800 317.832 37.747 319.216 C 37.718 319.977,37.673 322.175,37.647 324.100 C 37.604 327.282,37.529 327.600,36.824 327.600 C 36.397 327.600,35.924 327.799,35.774 328.043 C 35.581 328.354,35.405 328.333,35.180 327.968 C 34.923 327.551,34.724 327.562,34.154 328.026 C 33.586 328.486,33.512 328.491,33.779 328.048 C 34.009 327.666,33.940 327.553,33.556 327.681 C 32.902 327.899,32.793 328.789,33.332 329.509 C 33.607 329.877,33.548 329.955,33.120 329.791 C 32.621 329.599,32.525 330.175,32.517 333.395 C 32.505 337.885,32.651 337.638,29.936 337.747 L 27.800 337.832 27.747 339.216 C 27.718 339.977,27.673 342.175,27.647 344.100 C 27.604 347.282,27.529 347.600,26.824 347.600 C 26.397 347.600,25.924 347.799,25.774 348.043 C 25.581 348.354,25.405 348.333,25.180 347.968 C 24.923 347.551,24.724 347.562,24.154 348.026 C 23.586 348.486,23.512 348.491,23.779 348.048 C 24.009 347.666,23.940 347.553,23.556 347.681 C 22.902 347.899,22.793 348.789,23.332 349.509 C 23.607 349.877,23.548 349.955,23.120 349.791 C 22.621 349.599,22.525 350.175,22.517 353.395 C 22.505 357.885,22.651 357.638,19.936 357.747 L 17.800 357.832 17.747 359.216 C 17.718 359.977,17.673 362.175,17.647 364.100 C 17.604 367.282,17.529 367.600,16.824 367.600 C 16.397 367.600,15.924 367.799,15.774 368.043 C 15.581 368.354,15.405 368.333,15.180 367.968 C 14.923 367.551,14.724 367.562,14.154 368.026 C 13.586 368.486,13.512 368.491,13.779 368.048 C 14.009 367.666,13.940 367.553,13.556 367.681 C 12.902 367.899,12.793 368.789,13.332 369.509 C 13.607 369.877,13.548 369.955,13.120 369.791 C 12.621 369.599,12.525 370.175,12.517 373.395 C 12.505 377.885,12.651 377.638,9.936 377.746 L 7.800 377.831 7.714 385.087 L 7.628 392.343 16.246 392.385 C 23.161 392.418,24.803 392.325,24.555 391.913 C 24.316 391.516,24.376 391.503,24.823 391.856 C 25.747 392.586,27.583 392.434,27.309 391.650 C 27.125 391.121,27.183 391.093,27.621 391.500 C 29.268 393.028,32.193 391.300,31.920 388.961 L 31.761 387.600 34.380 387.536 C 35.821 387.500,38.710 387.455,40.800 387.436 C 42.890 387.416,44.825 387.254,45.100 387.076 C 45.375 386.898,45.600 386.853,45.600 386.976 C 45.600 387.099,45.931 386.885,46.337 386.500 C 46.742 386.115,47.009 385.677,46.930 385.528 C 46.851 385.378,46.970 385.142,47.193 385.004 C 47.417 384.866,47.600 384.223,47.600 383.576 L 47.600 382.400 52.300 382.363 C 54.885 382.343,57.785 382.357,58.744 382.396 C 60.102 382.450,60.417 382.348,60.167 381.933 C 59.912 381.509,59.985 381.512,60.523 381.949 C 61.097 382.414,61.303 382.414,61.877 381.949 C 62.337 381.576,62.457 381.560,62.253 381.900 C 61.878 382.525,63.203 382.561,65.285 381.983 C 66.951 381.520,67.797 379.401,66.796 378.196 C 66.368 377.680,66.643 377.591,68.851 377.535 C 73.691 377.413,75.003 377.329,75.911 377.086 C 76.441 376.944,76.723 377.000,76.587 377.221 C 76.456 377.433,76.982 377.600,77.776 377.600 C 78.559 377.600,79.200 377.401,79.200 377.157 C 79.200 376.914,79.457 376.813,79.771 376.933 C 80.085 377.054,80.557 376.893,80.820 376.576 C 81.083 376.259,81.501 376.003,81.749 376.006 C 81.997 376.009,81.935 376.180,81.612 376.384 C 81.288 376.589,81.163 376.896,81.333 377.067 C 81.504 377.237,81.811 377.112,82.016 376.788 C 82.496 376.029,82.508 375.086,82.034 375.379 C 81.832 375.504,81.875 375.056,82.128 374.385 C 82.506 373.384,82.482 373.096,81.994 372.788 C 81.421 372.425,86.930 372.220,93.100 372.375 C 94.911 372.420,95.602 372.294,95.606 371.919 C 95.611 371.533,95.706 371.548,95.976 371.974 C 96.291 372.473,96.432 372.473,97.046 371.974 C 97.488 371.615,97.641 371.588,97.453 371.900 C 97.237 372.259,97.519 372.400,98.453 372.400 C 99.682 372.400,99.710 372.368,98.976 371.813 C 98.038 371.103,98.397 371.033,99.769 371.659 C 100.555 372.017,100.917 372.001,101.416 371.587 C 102.030 371.077,102.030 370.775,101.413 369.000 C 101.139 368.211,101.144 368.211,101.767 368.976 C 102.380 369.728,102.400 369.719,102.400 368.676 C 102.400 367.472,102.093 367.518,110.800 367.436 C 112.890 367.416,114.825 367.254,115.100 367.076 C 115.375 366.898,115.600 366.853,115.600 366.976 C 115.600 367.099,115.931 366.885,116.337 366.500 C 116.742 366.115,117.009 365.677,116.930 365.528 C 116.851 365.378,116.970 365.142,117.193 365.004 C 117.417 364.866,117.600 364.223,117.600 363.576 L 117.600 362.400 122.300 362.368 C 124.885 362.351,128.710 362.327,130.800 362.314 C 132.890 362.302,134.375 362.211,134.100 362.113 C 133.825 362.014,133.600 361.784,133.600 361.601 C 133.600 361.419,134.155 361.479,134.832 361.735 C 136.560 362.387,138.340 359.552,136.800 358.600 C 135.420 357.747,136.637 357.398,141.100 357.367 C 143.685 357.349,146.210 357.224,146.711 357.088 C 147.241 356.945,147.524 357.000,147.387 357.221 C 147.256 357.433,147.782 357.600,148.576 357.600 C 149.359 357.600,150.000 357.409,150.000 357.176 C 150.000 356.943,150.192 356.871,150.427 357.016 C 150.661 357.161,151.126 356.947,151.459 356.540 C 152.028 355.846,152.051 355.845,151.837 356.521 C 151.692 356.979,151.767 357.144,152.043 356.973 C 152.282 356.826,152.404 356.205,152.314 355.594 C 152.205 354.856,152.309 354.544,152.621 354.664 C 152.880 354.763,153.555 354.294,154.120 353.622 L 155.149 352.399 160.374 352.373 C 164.114 352.354,165.602 352.212,165.606 351.874 C 165.610 351.580,165.751 351.619,165.976 351.974 C 166.291 352.473,166.432 352.473,167.046 351.974 C 167.488 351.615,167.641 351.588,167.453 351.900 C 167.236 352.262,167.519 352.391,168.476 352.368 C 169.204 352.351,169.575 352.246,169.300 352.135 C 169.025 352.024,168.800 351.772,168.800 351.575 C 168.800 351.378,169.257 351.425,169.815 351.680 C 171.284 352.349,172.349 351.284,171.680 349.815 C 171.425 349.257,171.378 348.800,171.575 348.800 C 171.772 348.800,172.024 349.025,172.135 349.300 C 172.246 349.575,172.351 349.305,172.368 348.700 C 172.404 347.452,172.720 347.409,181.100 347.510 C 183.355 347.537,185.200 347.400,185.200 347.206 C 185.200 347.012,185.646 346.934,186.191 347.033 C 187.002 347.180,187.231 347.016,187.453 346.130 C 187.603 345.535,188.324 344.450,189.056 343.717 L 190.387 342.386 197.494 342.363 C 214.205 342.309,212.799 342.014,212.943 345.600 C 212.996 346.912,213.088 347.003,214.400 347.053 C 215.170 347.082,215.890 347.150,216.000 347.205 C 216.110 347.260,218.699 347.355,221.754 347.416 C 225.546 347.492,227.402 347.680,227.606 348.009 C 227.830 348.373,227.959 348.357,228.130 347.945 C 228.255 347.645,228.261 348.122,228.143 349.005 C 227.838 351.287,228.981 352.331,231.151 351.751 C 232.341 351.434,232.860 351.475,233.566 351.944 C 234.342 352.459,234.515 352.463,234.827 351.971 C 235.103 351.534,235.189 351.523,235.194 351.926 C 235.198 352.312,235.867 352.433,237.700 352.380 C 239.075 352.341,241.835 352.329,243.833 352.354 L 247.466 352.400 247.896 353.801 C 248.132 354.571,248.162 355.100,247.963 354.977 C 247.328 354.585,247.573 356.280,248.230 356.825 C 248.753 357.259,248.923 357.250,249.224 356.774 C 249.502 356.336,249.589 356.325,249.594 356.727 C 249.598 357.071,249.877 357.166,250.400 357.000 C 250.859 356.854,251.200 356.928,251.200 357.173 C 251.200 357.408,251.841 357.600,252.624 357.600 C 253.407 357.600,253.945 357.434,253.819 357.231 C 253.684 357.012,254.162 357.020,254.992 357.249 C 255.762 357.462,256.979 357.595,257.696 357.546 C 261.474 357.286,262.800 357.553,262.800 358.574 C 262.800 361.210,264.325 362.465,266.516 361.632 C 267.112 361.405,267.600 361.380,267.600 361.577 C 267.600 361.773,267.375 362.015,267.100 362.116 C 266.825 362.216,267.275 362.285,268.100 362.270 C 268.925 362.254,269.600 362.127,269.600 361.987 C 269.600 361.848,269.862 361.733,270.182 361.733 C 270.503 361.733,270.663 361.898,270.539 362.099 C 270.413 362.303,271.169 362.434,272.257 362.396 C 282.276 362.048,282.807 362.207,282.943 365.600 C 282.996 366.912,283.088 367.003,284.400 367.053 C 285.170 367.082,285.980 367.158,286.200 367.223 C 286.420 367.289,288.220 367.374,290.200 367.413 C 292.180 367.452,294.799 367.510,296.020 367.542 L 298.239 367.600 298.080 368.961 C 297.848 370.956,299.157 372.165,301.247 371.884 C 302.101 371.770,302.711 371.820,302.603 371.996 C 302.312 372.466,304.549 372.280,304.894 371.805 C 305.075 371.555,305.190 371.601,305.194 371.927 C 305.198 372.318,305.898 372.436,307.900 372.383 C 313.883 372.224,318.599 372.413,318.006 372.788 C 317.518 373.096,317.494 373.384,317.872 374.385 C 318.125 375.056,318.168 375.504,317.966 375.379 C 317.492 375.086,317.504 376.029,317.984 376.788 C 318.189 377.112,318.496 377.237,318.667 377.067 C 318.837 376.896,318.712 376.589,318.388 376.384 C 318.065 376.180,318.003 376.009,318.251 376.006 C 318.499 376.003,318.917 376.259,319.180 376.576 C 319.443 376.893,319.915 377.054,320.229 376.933 C 320.543 376.813,320.800 376.914,320.800 377.157 C 320.800 377.401,321.441 377.600,322.224 377.600 C 323.018 377.600,323.544 377.433,323.413 377.221 C 323.277 377.000,323.559 376.944,324.089 377.086 C 324.956 377.318,325.970 377.388,330.649 377.535 L 332.698 377.600 332.949 379.172 C 333.302 381.377,334.176 382.135,336.072 381.881 C 336.935 381.765,337.503 381.834,337.376 382.038 C 337.253 382.237,337.444 382.400,337.800 382.400 C 338.159 382.400,338.329 382.209,338.182 381.970 C 338.033 381.730,338.273 381.764,338.726 382.046 C 339.389 382.461,339.663 382.448,340.244 381.976 C 340.765 381.553,340.869 381.541,340.633 381.932 C 340.383 382.349,340.734 382.449,342.257 382.396 C 352.276 382.048,352.807 382.207,352.943 385.600 C 352.996 386.912,353.088 387.003,354.400 387.053 C 355.170 387.082,355.980 387.159,356.200 387.225 C 356.420 387.291,358.310 387.373,360.400 387.408 C 362.490 387.443,365.109 387.500,366.220 387.536 L 368.239 387.600 368.080 388.961 C 367.807 391.300,370.732 393.028,372.379 391.500 C 372.817 391.093,372.875 391.121,372.691 391.650 C 372.417 392.434,374.253 392.586,375.177 391.856 C 375.624 391.503,375.684 391.516,375.445 391.913 C 375.197 392.325,376.839 392.418,383.754 392.385 L 392.372 392.343 392.286 385.087 L 392.200 377.831 390.064 377.746 C 387.349 377.638,387.495 377.885,387.483 373.395 C 387.475 370.175,387.379 369.599,386.880 369.791 C 386.452 369.955,386.393 369.877,386.668 369.509 C 387.207 368.789,387.098 367.899,386.444 367.681 C 386.060 367.553,385.991 367.666,386.221 368.048 C 386.488 368.491,386.414 368.486,385.846 368.026 C 385.276 367.562,385.077 367.551,384.820 367.968 C 384.595 368.333,384.419 368.354,384.226 368.043 C 384.076 367.799,383.603 367.600,383.176 367.600 C 382.471 367.600,382.396 367.282,382.353 364.100 C 382.327 362.175,382.282 359.977,382.253 359.216 L 382.200 357.832 380.064 357.747 C 377.349 357.638,377.495 357.885,377.483 353.395 C 377.475 350.175,377.379 349.599,376.880 349.791 C 376.452 349.955,376.393 349.877,376.668 349.509 C 377.207 348.789,377.098 347.899,376.444 347.681 C 376.060 347.553,375.991 347.666,376.221 348.048 C 376.488 348.491,376.414 348.486,375.846 348.026 C 375.276 347.562,375.077 347.551,374.820 347.968 C 374.595 348.333,374.419 348.354,374.226 348.043 C 374.076 347.799,373.603 347.600,373.176 347.600 C 372.471 347.600,372.396 347.282,372.353 344.100 C 372.327 342.175,372.282 339.977,372.253 339.216 L 372.200 337.832 370.064 337.747 C 367.349 337.638,367.495 337.885,367.483 333.395 C 367.475 330.175,367.379 329.599,366.880 329.791 C 366.452 329.955,366.393 329.877,366.668 329.509 C 367.207 328.789,367.098 327.899,366.444 327.681 C 366.060 327.553,365.991 327.666,366.221 328.048 C 366.488 328.491,366.414 328.486,365.846 328.026 C 365.276 327.562,365.077 327.551,364.820 327.968 C 364.595 328.333,364.419 328.354,364.226 328.043 C 364.076 327.799,363.603 327.600,363.176 327.600 C 362.471 327.600,362.396 327.282,362.353 324.100 C 362.327 322.175,362.282 319.977,362.253 319.216 L 362.200 317.832 360.064 317.747 C 357.349 317.638,357.495 317.885,357.483 313.395 C 357.475 310.175,357.379 309.599,356.880 309.791 C 356.452 309.955,356.393 309.877,356.668 309.509 C 357.207 308.789,357.098 307.899,356.444 307.681 C 356.060 307.553,355.991 307.666,356.221 308.048 C 356.488 308.491,356.414 308.486,355.846 308.026 C 355.276 307.562,355.077 307.551,354.820 307.968 C 354.595 308.333,354.419 308.354,354.226 308.043 C 354.076 307.799,353.603 307.600,353.176 307.600 C 352.471 307.600,352.396 307.282,352.353 304.100 C 352.327 302.175,352.282 299.977,352.253 299.216 L 352.200 297.832 350.064 297.747 C 347.349 297.638,347.495 297.885,347.483 293.395 C 347.475 290.175,347.379 289.599,346.880 289.791 C 346.452 289.955,346.393 289.877,346.668 289.509 C 347.207 288.789,347.098 287.899,346.444 287.681 C 346.060 287.553,345.991 287.666,346.221 288.048 C 346.488 288.491,346.414 288.486,345.846 288.026 C 345.276 287.562,345.077 287.551,344.820 287.968 C 344.595 288.333,344.419 288.354,344.226 288.043 C 344.076 287.799,343.603 287.600,343.176 287.600 C 342.471 287.600,342.396 287.282,342.353 284.100 C 342.327 282.175,342.282 279.977,342.253 279.216 L 342.200 277.832 340.064 277.747 C 337.349 277.638,337.495 277.885,337.483 273.395 C 337.475 270.175,337.379 269.599,336.880 269.791 C 336.452 269.955,336.393 269.877,336.668 269.509 C 337.207 268.789,337.098 267.899,336.444 267.681 C 336.060 267.553,335.991 267.666,336.221 268.048 C 336.488 268.491,336.414 268.486,335.846 268.026 C 335.276 267.562,335.077 267.551,334.820 267.968 C 334.595 268.333,334.419 268.354,334.226 268.043 C 334.076 267.799,333.603 267.600,333.176 267.600 C 332.471 267.600,332.396 267.282,332.353 264.100 C 332.327 262.175,332.282 259.977,332.253 259.216 L 332.200 257.832 330.064 257.747 C 327.349 257.638,327.495 257.885,327.483 253.395 C 327.475 250.175,327.379 249.599,326.880 249.791 C 326.452 249.955,326.393 249.877,326.668 249.509 C 327.207 248.789,327.098 247.899,326.444 247.681 C 326.060 247.553,325.991 247.666,326.221 248.048 C 326.488 248.491,326.414 248.486,325.846 248.026 C 325.276 247.562,325.077 247.551,324.820 247.968 C 324.595 248.333,324.419 248.354,324.226 248.043 C 324.076 247.799,323.603 247.600,323.176 247.600 C 322.471 247.600,322.396 247.282,322.353 244.100 C 322.327 242.175,322.282 239.977,322.253 239.216 L 322.200 237.832 320.064 237.747 C 317.349 237.638,317.495 237.885,317.483 233.395 C 317.475 230.175,317.379 229.599,316.880 229.791 C 316.452 229.955,316.393 229.877,316.668 229.509 C 317.207 228.789,317.098 227.899,316.444 227.681 C 316.060 227.553,315.991 227.666,316.221 228.048 C 316.488 228.491,316.414 228.486,315.846 228.026 C 315.276 227.562,315.077 227.551,314.820 227.968 C 314.595 228.333,314.419 228.354,314.226 228.043 C 314.076 227.799,313.603 227.600,313.176 227.600 C 312.471 227.600,312.396 227.282,312.353 224.100 C 312.327 222.175,312.282 219.977,312.253 219.216 L 312.200 217.832 310.064 217.747 C 307.349 217.638,307.495 217.885,307.483 213.395 C 307.475 210.175,307.379 209.599,306.880 209.791 C 306.452 209.955,306.393 209.877,306.668 209.509 C 307.207 208.789,307.098 207.899,306.444 207.681 C 306.060 207.553,305.991 207.666,306.221 208.048 C 306.488 208.491,306.414 208.486,305.846 208.026 C 305.276 207.562,305.077 207.551,304.820 207.968 C 304.595 208.333,304.419 208.354,304.226 208.043 C 304.076 207.799,303.603 207.600,303.176 207.600 C 302.471 207.600,302.396 207.282,302.353 204.100 C 302.327 202.175,302.282 199.977,302.253 199.216 L 302.200 197.832 300.064 197.747 C 297.349 197.638,297.495 197.885,297.483 193.395 C 297.475 190.175,297.379 189.599,296.880 189.791 C 296.452 189.955,296.393 189.877,296.668 189.509 C 297.207 188.789,297.098 187.899,296.444 187.681 C 296.060 187.553,295.991 187.666,296.221 188.048 C 296.488 188.491,296.414 188.486,295.846 188.026 C 295.276 187.562,295.077 187.551,294.820 187.968 C 294.595 188.333,294.419 188.354,294.226 188.043 C 294.076 187.799,293.603 187.600,293.176 187.600 C 292.471 187.600,292.396 187.282,292.353 184.100 C 292.327 182.175,292.282 179.977,292.253 179.216 L 292.200 177.832 290.064 177.747 C 287.349 177.638,287.495 177.885,287.483 173.395 C 287.475 170.175,287.379 169.599,286.880 169.791 C 286.452 169.955,286.393 169.877,286.668 169.509 C 287.207 168.789,287.098 167.899,286.444 167.681 C 286.060 167.553,285.991 167.666,286.221 168.048 C 286.488 168.491,286.414 168.486,285.846 168.026 C 285.276 167.562,285.077 167.551,284.820 167.968 C 284.595 168.333,284.419 168.354,284.226 168.043 C 284.076 167.799,283.603 167.600,283.176 167.600 C 282.471 167.600,282.396 167.282,282.353 164.100 C 282.327 162.175,282.282 159.977,282.253 159.216 L 282.200 157.832 280.064 157.747 C 277.349 157.638,277.495 157.885,277.483 153.395 C 277.475 150.175,277.379 149.599,276.880 149.791 C 276.452 149.955,276.393 149.877,276.668 149.509 C 277.207 148.789,277.098 147.899,276.444 147.681 C 276.060 147.553,275.991 147.666,276.221 148.048 C 276.488 148.491,276.414 148.486,275.846 148.026 C 275.276 147.562,275.077 147.551,274.820 147.968 C 274.595 148.333,274.419 148.354,274.226 148.043 C 274.076 147.799,273.603 147.600,273.176 147.600 C 272.471 147.600,272.396 147.282,272.353 144.100 C 272.327 142.175,272.282 139.977,272.253 139.216 L 272.200 137.832 270.064 137.747 C 267.349 137.638,267.495 137.885,267.483 133.395 C 267.475 130.175,267.379 129.599,266.880 129.791 C 266.452 129.955,266.393 129.877,266.668 129.509 C 267.207 128.789,267.098 127.899,266.444 127.681 C 266.060 127.553,265.991 127.666,266.221 128.048 C 266.488 128.491,266.414 128.486,265.846 128.026 C 265.276 127.562,265.077 127.551,264.820 127.968 C 264.595 128.333,264.419 128.354,264.226 128.043 C 264.076 127.799,263.603 127.600,263.176 127.600 C 262.471 127.600,262.396 127.282,262.353 124.100 C 262.327 122.175,262.282 119.977,262.253 119.216 L 262.200 117.832 260.064 117.747 C 257.349 117.638,257.495 117.885,257.483 113.395 C 257.475 110.175,257.379 109.599,256.880 109.791 C 256.452 109.955,256.393 109.877,256.668 109.509 C 257.207 108.789,257.098 107.899,256.444 107.681 C 256.060 107.553,255.991 107.666,256.221 108.048 C 256.488 108.491,256.414 108.486,255.846 108.026 C 255.276 107.562,255.077 107.551,254.820 107.968 C 254.595 108.333,254.419 108.354,254.226 108.043 C 254.076 107.799,253.603 107.600,253.176 107.600 C 252.471 107.600,252.396 107.282,252.353 104.100 C 252.327 102.175,252.282 99.977,252.253 99.216 L 252.200 97.832 250.064 97.747 C 247.349 97.638,247.495 97.885,247.483 93.395 C 247.475 90.175,247.379 89.599,246.880 89.791 C 246.452 89.955,246.393 89.877,246.668 89.509 C 247.207 88.789,247.098 87.899,246.444 87.681 C 246.060 87.553,245.991 87.666,246.221 88.048 C 246.488 88.491,246.414 88.486,245.846 88.026 C 245.276 87.562,245.077 87.551,244.820 87.968 C 244.595 88.333,244.419 88.354,244.226 88.043 C 244.076 87.799,243.603 87.600,243.176 87.600 C 242.471 87.600,242.396 87.282,242.353 84.100 C 242.327 82.175,242.282 79.977,242.253 79.216 L 242.200 77.832 240.064 77.747 C 237.349 77.638,237.495 77.885,237.483 73.395 C 237.475 70.175,237.379 69.599,236.880 69.791 C 236.452 69.955,236.393 69.877,236.668 69.509 C 237.207 68.789,237.098 67.899,236.444 67.681 C 236.060 67.553,235.991 67.666,236.221 68.048 C 236.488 68.491,236.414 68.486,235.846 68.026 C 235.276 67.562,235.077 67.551,234.820 67.968 C 234.595 68.333,234.419 68.354,234.226 68.043 C 234.076 67.799,233.603 67.600,233.176 67.600 C 232.471 67.600,232.396 67.282,232.353 64.100 C 232.327 62.175,232.282 59.977,232.253 59.216 L 232.200 57.832 230.064 57.747 C 227.349 57.638,227.495 57.885,227.483 53.395 C 227.475 50.175,227.379 49.599,226.880 49.791 C 226.452 49.955,226.393 49.877,226.668 49.509 C 227.207 48.789,227.098 47.899,226.444 47.681 C 226.060 47.553,225.991 47.666,226.221 48.048 C 226.488 48.491,226.414 48.486,225.846 48.026 C 225.276 47.562,225.077 47.551,224.820 47.968 C 224.595 48.333,224.419 48.354,224.226 48.043 C 224.076 47.799,223.603 47.600,223.176 47.600 C 222.471 47.600,222.396 47.282,222.353 44.100 C 222.327 42.175,222.282 39.977,222.253 39.216 L 222.200 37.832 220.064 37.747 C 217.349 37.638,217.495 37.885,217.483 33.395 C 217.475 30.175,217.379 29.599,216.880 29.791 C 216.452 29.955,216.393 29.877,216.668 29.509 C 217.207 28.789,217.098 27.899,216.444 27.681 C 216.060 27.553,215.991 27.666,216.221 28.048 C 216.488 28.491,216.414 28.486,215.846 28.026 C 215.276 27.562,215.077 27.551,214.820 27.968 C 214.595 28.333,214.419 28.354,214.226 28.043 C 214.076 27.799,213.603 27.600,213.176 27.600 C 212.471 27.600,212.396 27.282,212.353 24.100 C 212.327 22.175,212.282 19.977,212.253 19.216 L 212.200 17.832 210.064 17.747 C 207.349 17.638,207.495 17.885,207.483 13.395 C 207.475 10.175,207.379 9.599,206.880 9.791 C 206.452 9.955,206.393 9.877,206.668 9.509 C 207.207 8.789,207.098 7.899,206.444 7.681 C 206.060 7.553,205.991 7.666,206.221 8.048 C 206.488 8.491,206.414 8.486,205.846 8.026 C 205.276 7.562,205.077 7.551,204.820 7.968 C 204.595 8.333,204.419 8.354,204.226 8.043 C 203.856 7.443,196.144 7.443,195.774 8.043 C 195.581 8.354,195.405 8.333,195.180 7.968 C 194.923 7.551,194.724 7.562,194.154 8.026 C 193.712 8.385,193.559 8.412,193.747 8.100 C 193.912 7.825,193.857 7.600,193.624 7.600 C 193.391 7.600,193.178 7.690,193.150 7.800 M200.517 33.834 C 203.496 34.849,205.104 37.170,206.414 42.349 C 206.662 43.326,207.354 44.561,207.983 45.149 C 209.361 46.434,210.636 48.900,211.019 51.019 C 211.383 53.031,211.809 53.858,213.401 55.639 C 214.689 57.080,215.587 59.078,216.414 62.349 C 216.662 63.326,217.354 64.561,217.983 65.149 C 219.361 66.434,220.636 68.900,221.019 71.019 C 221.383 73.031,221.809 73.858,223.401 75.639 C 224.689 77.080,225.587 79.078,226.414 82.349 C 226.662 83.326,227.354 84.561,227.983 85.149 C 229.361 86.434,230.636 88.900,231.019 91.019 C 231.383 93.031,231.809 93.858,233.401 95.639 C 234.689 97.080,235.587 99.078,236.414 102.349 C 236.662 103.326,237.354 104.561,237.983 105.149 C 239.361 106.434,240.636 108.900,241.019 111.019 C 241.383 113.031,241.809 113.858,243.401 115.639 C 244.689 117.080,245.587 119.078,246.414 122.349 C 246.662 123.326,247.354 124.561,247.983 125.149 C 249.361 126.434,250.636 128.900,251.019 131.019 C 251.383 133.031,251.809 133.858,253.401 135.639 C 254.689 137.080,255.587 139.078,256.414 142.349 C 256.662 143.326,257.354 144.561,257.983 145.149 C 259.361 146.434,260.636 148.900,261.019 151.019 C 261.383 153.031,261.809 153.858,263.401 155.639 C 264.689 157.080,265.587 159.078,266.414 162.349 C 266.662 163.326,267.354 164.561,267.983 165.149 C 269.361 166.434,270.636 168.900,271.019 171.019 C 271.383 173.031,271.809 173.858,273.401 175.639 C 274.689 177.080,275.587 179.078,276.414 182.349 C 276.662 183.326,277.354 184.561,277.983 185.149 C 279.361 186.434,280.636 188.900,281.019 191.019 C 281.383 193.031,281.809 193.858,283.401 195.639 C 284.689 197.080,285.587 199.078,286.414 202.349 C 286.662 203.326,287.354 204.561,287.983 205.149 C 289.361 206.434,290.636 208.900,291.019 211.019 C 291.383 213.031,291.809 213.858,293.401 215.639 C 294.689 217.080,295.587 219.078,296.414 222.349 C 296.662 223.326,297.354 224.561,297.983 225.149 C 299.361 226.434,300.636 228.900,301.019 231.019 C 301.383 233.031,301.809 233.858,303.401 235.639 C 304.689 237.080,305.587 239.078,306.414 242.349 C 306.662 243.326,307.354 244.561,307.983 245.149 C 309.361 246.434,310.636 248.900,311.019 251.019 C 311.383 253.031,311.809 253.858,313.401 255.639 C 314.689 257.080,315.587 259.078,316.414 262.349 C 316.662 263.326,317.354 264.561,317.983 265.149 C 319.361 266.434,320.636 268.900,321.019 271.019 C 321.383 273.031,321.809 273.858,323.401 275.639 C 324.689 277.080,325.587 279.078,326.414 282.349 C 326.662 283.326,327.354 284.561,327.983 285.149 C 329.361 286.434,330.636 288.900,331.019 291.019 C 331.383 293.031,331.809 293.858,333.401 295.639 C 334.689 297.080,335.587 299.078,336.414 302.349 C 336.662 303.326,337.354 304.561,337.983 305.149 C 339.361 306.434,340.636 308.900,341.019 311.019 C 341.383 313.031,341.809 313.858,343.401 315.639 C 344.689 317.080,345.587 319.078,346.414 322.349 C 346.662 323.326,347.354 324.561,347.983 325.149 C 349.361 326.434,350.636 328.900,351.019 331.019 C 351.383 333.031,351.809 333.858,353.401 335.639 C 354.689 337.080,355.587 339.078,356.414 342.349 C 356.662 343.326,357.354 344.561,357.983 345.149 C 359.361 346.434,360.636 348.900,361.019 351.019 C 361.383 353.031,361.809 353.858,363.401 355.639 C 364.689 357.080,365.587 359.078,366.414 362.349 C 366.660 363.319,367.356 364.565,367.978 365.149 C 371.209 368.178,370.877 375.200,367.503 375.200 C 366.310 375.200,362.858 373.961,361.857 373.174 C 360.501 372.106,359.276 371.770,353.200 370.794 C 349.171 370.147,347.575 369.682,344.980 368.400 C 342.420 367.137,340.737 366.640,336.780 365.983 C 330.694 364.972,329.498 364.622,327.197 363.175 C 325.766 362.275,324.160 361.828,319.397 361.005 C 312.500 359.814,311.244 359.464,309.811 358.337 C 308.543 357.340,305.836 356.584,300.723 355.800 C 296.846 355.206,292.633 353.900,292.169 353.149 C 291.742 352.459,290.100 352.022,284.064 350.993 C 279.238 350.170,277.632 349.712,274.989 348.406 C 272.433 347.143,270.761 346.651,266.789 345.994 C 260.765 344.998,259.530 344.637,257.200 343.192 C 255.430 342.094,253.149 341.496,248.800 340.987 C 244.768 340.516,241.305 339.567,239.543 338.451 C 237.739 337.307,234.214 336.281,230.400 335.789 C 227.418 335.404,223.523 334.170,222.331 333.232 C 221.178 332.325,217.649 331.386,214.000 331.015 C 209.668 330.575,206.159 329.615,204.244 328.346 L 202.426 327.142 200.913 328.323 C 198.754 330.008,196.156 330.743,190.000 331.410 C 183.195 332.148,182.937 332.224,181.220 334.019 C 179.648 335.661,178.396 335.965,170.172 336.698 C 166.181 337.053,166.128 337.072,164.528 338.672 C 162.797 340.403,161.176 340.878,155.200 341.403 C 149.197 341.932,147.334 342.388,146.850 343.451 C 146.122 345.047,143.563 345.895,138.000 346.383 C 131.390 346.962,131.073 347.042,129.813 348.456 C 128.211 350.254,126.557 350.766,120.280 351.410 C 113.318 352.123,112.779 352.274,111.427 353.888 C 110.081 355.496,108.640 355.906,102.600 356.401 C 96.211 356.925,95.693 357.060,95.008 358.384 C 94.200 359.947,91.898 360.749,86.866 361.221 C 79.041 361.955,77.361 362.329,76.850 363.451 C 76.000 365.316,69.786 366.763,62.484 366.796 C 61.945 366.798,60.957 367.439,60.084 368.354 C 58.147 370.381,56.974 370.731,49.800 371.419 C 42.146 372.152,41.804 372.233,41.253 373.443 C 40.308 375.518,33.887 377.032,31.054 375.848 C 27.352 374.302,27.611 365.783,31.428 363.531 C 32.854 362.689,32.908 362.567,33.589 358.631 C 34.071 355.840,34.789 354.616,36.550 353.576 C 37.731 352.880,37.886 352.548,38.363 349.707 C 39.005 345.883,39.652 344.578,41.428 343.531 C 42.854 342.689,42.908 342.567,43.589 338.631 C 44.071 335.840,44.789 334.616,46.550 333.576 C 47.731 332.880,47.886 332.548,48.363 329.707 C 49.005 325.883,49.652 324.578,51.428 323.531 C 52.854 322.689,52.908 322.567,53.589 318.631 C 54.071 315.840,54.789 314.616,56.550 313.576 C 57.731 312.880,57.886 312.548,58.363 309.707 C 59.005 305.883,59.652 304.578,61.428 303.531 C 62.854 302.689,62.908 302.567,63.589 298.631 C 64.071 295.840,64.789 294.616,66.550 293.576 C 67.731 292.880,67.886 292.548,68.363 289.707 C 69.005 285.883,69.652 284.578,71.428 283.531 C 72.854 282.689,72.908 282.567,73.589 278.631 C 74.071 275.840,74.789 274.616,76.550 273.576 C 77.731 272.880,77.886 272.548,78.363 269.707 C 79.005 265.883,79.652 264.578,81.428 263.531 C 82.854 262.689,82.908 262.567,83.589 258.631 C 84.071 255.840,84.789 254.616,86.550 253.576 C 87.731 252.880,87.886 252.548,88.363 249.707 C 89.005 245.883,89.652 244.578,91.428 243.531 C 92.854 242.689,92.908 242.567,93.589 238.631 C 94.071 235.840,94.789 234.616,96.550 233.576 C 97.731 232.880,97.886 232.548,98.363 229.707 C 99.005 225.883,99.652 224.578,101.428 223.531 C 102.854 222.689,102.908 222.567,103.589 218.631 C 104.071 215.840,104.789 214.616,106.550 213.576 C 107.731 212.880,107.886 212.548,108.363 209.707 C 109.005 205.883,109.652 204.578,111.428 203.531 C 112.854 202.689,112.908 202.567,113.589 198.631 C 114.071 195.840,114.789 194.616,116.550 193.576 C 117.731 192.880,117.886 192.548,118.363 189.707 C 119.005 185.883,119.652 184.578,121.428 183.531 C 122.854 182.689,122.908 182.567,123.589 178.631 C 124.071 175.840,124.789 174.616,126.550 173.576 C 127.731 172.880,127.886 172.548,128.363 169.707 C 129.005 165.883,129.652 164.578,131.428 163.531 C 132.854 162.689,132.908 162.567,133.589 158.631 C 134.071 155.840,134.789 154.616,136.550 153.576 C 137.731 152.880,137.886 152.548,138.363 149.707 C 139.005 145.883,139.652 144.578,141.428 143.531 C 142.854 142.689,142.908 142.567,143.589 138.631 C 144.071 135.840,144.789 134.616,146.550 133.576 C 147.731 132.880,147.886 132.548,148.363 129.707 C 149.005 125.883,149.652 124.578,151.428 123.531 C 152.854 122.689,152.908 122.567,153.589 118.631 C 154.071 115.840,154.789 114.616,156.550 113.576 C 157.731 112.880,157.886 112.548,158.363 109.707 C 159.005 105.883,159.652 104.578,161.428 103.531 C 162.854 102.689,162.908 102.567,163.589 98.631 C 164.071 95.840,164.789 94.616,166.550 93.576 C 167.731 92.880,167.886 92.548,168.363 89.707 C 169.005 85.883,169.652 84.578,171.428 83.531 C 172.854 82.689,172.908 82.567,173.589 78.631 C 174.071 75.840,174.789 74.616,176.550 73.576 C 177.731 72.880,177.886 72.548,178.363 69.707 C 179.005 65.883,179.652 64.578,181.428 63.531 C 182.854 62.689,182.908 62.567,183.589 58.631 C 184.071 55.840,184.789 54.616,186.550 53.576 C 187.731 52.880,187.886 52.548,188.363 49.707 C 189.005 45.883,189.652 44.578,191.428 43.531 C 192.849 42.692,192.910 42.554,193.574 38.710 C 194.464 33.552,196.171 32.353,200.517 33.834 M231.600 349.000 C 232.346 349.770,232.867 350.400,232.757 350.400 C 232.647 350.400,231.946 349.770,231.200 349.000 C 230.454 348.230,229.933 347.600,230.043 347.600 C 230.153 347.600,230.854 348.230,231.600 349.000 M230.277 351.541 C 229.827 351.738,228.400 350.386,228.400 349.764 C 228.400 349.482,228.895 349.735,229.500 350.326 C 230.105 350.916,230.455 351.463,230.277 351.541 M171.148 351.063 C 170.924 351.332,170.499 351.459,170.202 351.345 C 169.771 351.180,169.797 350.998,170.331 350.447 C 171.077 349.676,171.829 350.243,171.148 351.063 M263.825 358.242 C 263.426 359.832,264.564 361.338,265.932 361.030 C 266.814 360.831,266.877 360.864,266.292 361.219 C 265.276 361.836,264.150 361.346,263.686 360.087 C 263.207 358.786,263.231 357.200,263.729 357.200 C 263.926 357.200,263.969 357.669,263.825 358.242 M136.423 360.757 C 135.930 361.679,135.672 361.760,134.866 361.250 C 134.315 360.900,135.357 360.172,136.149 360.353 C 136.341 360.397,136.375 360.110,136.225 359.716 C 136.020 359.177,136.067 359.113,136.413 359.457 C 136.757 359.798,136.760 360.128,136.423 360.757 M300.444 371.042 C 300.970 371.333,301.167 371.578,300.882 371.586 C 300.597 371.594,299.922 371.158,299.382 370.618 C 298.842 370.078,298.406 369.403,298.414 369.118 C 298.422 368.833,298.667 369.030,298.958 369.556 C 299.250 370.082,299.918 370.750,300.444 371.042 M101.121 371.050 C 100.178 371.994,99.353 371.336,100.244 370.351 C 100.723 369.822,101.070 369.710,101.353 369.993 C 101.636 370.276,101.564 370.608,101.121 371.050 M335.600 381.089 C 336.624 381.600,336.184 381.799,335.018 381.352 C 334.333 381.089,333.200 379.197,333.201 378.320 C 333.201 378.034,333.516 378.427,333.901 379.194 C 334.285 379.961,335.050 380.814,335.600 381.089 M65.000 380.800 C 64.681 381.317,65.298 381.318,65.921 380.801 C 66.186 380.582,66.149 380.694,65.840 381.049 C 65.270 381.703,64.193 381.459,64.617 380.772 C 64.744 380.568,64.937 380.400,65.047 380.400 C 65.157 380.400,65.136 380.580,65.000 380.800 M31.600 389.218 C 31.600 389.821,29.731 391.603,29.118 391.584 C 28.833 391.575,29.083 391.306,29.673 390.986 C 30.262 390.665,30.860 390.043,30.999 389.602 C 31.272 388.742,31.600 388.533,31.600 389.218 M370.444 391.042 C 370.970 391.333,371.167 391.578,370.882 391.586 C 370.597 391.594,369.922 391.158,369.382 390.618 C 368.842 390.078,368.406 389.403,368.414 389.118 C 368.422 388.833,368.667 389.030,368.958 389.556 C 369.250 390.082,369.918 390.750,370.444 391.042 " fill="#4e7cb5" id="path0" stroke="none"/>
  <path fill-rule="evenodd" d="M196.782 43.100 C 196.195 45.941,194.753 48.864,193.422 49.911 C 192.344 50.759,191.600 52.316,191.600 53.726 C 191.599 55.141,189.399 59.378,188.287 60.106 C 187.518 60.610,187.142 61.357,186.784 63.089 C 186.195 65.940,184.755 68.863,183.422 69.911 C 182.344 70.759,181.600 72.316,181.600 73.726 C 181.599 75.141,179.399 79.378,178.287 80.106 C 177.518 80.610,177.142 81.357,176.784 83.089 C 176.195 85.940,174.755 88.863,173.422 89.911 C 172.344 90.759,171.600 92.316,171.600 93.726 C 171.599 95.141,169.399 99.378,168.287 100.106 C 167.518 100.610,167.142 101.357,166.784 103.089 C 166.195 105.940,164.755 108.863,163.422 109.911 C 162.344 110.759,161.600 112.316,161.600 113.726 C 161.599 115.141,159.399 119.378,158.287 120.106 C 157.518 120.610,157.142 121.357,156.784 123.089 C 156.195 125.940,154.755 128.863,153.422 129.911 C 152.344 130.759,151.600 132.316,151.600 133.726 C 151.599 135.141,149.399 139.378,148.287 140.106 C 147.518 140.610,147.142 141.357,146.784 143.089 C 146.195 145.940,144.755 148.863,143.422 149.911 C 142.344 150.759,141.600 152.316,141.600 153.726 C 141.599 155.141,139.399 159.378,138.287 160.106 C 137.518 160.610,137.142 161.357,136.784 163.089 C 136.195 165.940,134.755 168.863,133.422 169.911 C 132.344 170.759,131.600 172.316,131.600 173.726 C 131.599 175.141,129.399 179.378,128.287 180.106 C 127.518 180.610,127.142 181.357,126.784 183.089 C 126.195 185.940,124.755 188.863,123.422 189.911 C 122.344 190.759,121.600 192.316,121.600 193.726 C 121.599 195.141,119.399 199.378,118.287 200.106 C 117.518 200.610,117.142 201.357,116.784 203.089 C 116.195 205.940,114.755 208.863,113.422 209.911 C 112.344 210.759,111.600 212.316,111.600 213.726 C 111.599 215.141,109.399 219.378,108.287 220.106 C 107.518 220.610,107.142 221.357,106.784 223.089 C 106.195 225.940,104.755 228.863,103.422 229.911 C 102.344 230.759,101.600 232.316,101.600 233.726 C 101.599 235.141,99.399 239.378,98.287 240.106 C 97.518 240.610,97.142 241.357,96.784 243.089 C 96.195 245.940,94.755 248.863,93.422 249.911 C 92.344 250.759,91.600 252.316,91.600 253.726 C 91.599 255.141,89.399 259.378,88.287 260.106 C 87.518 260.610,87.142 261.357,86.784 263.089 C 86.195 265.940,84.755 268.863,83.422 269.911 C 82.344 270.759,81.600 272.316,81.600 273.726 C 81.599 275.141,79.399 279.378,78.287 280.106 C 77.518 280.610,77.142 281.357,76.784 283.089 C 76.195 285.940,74.755 288.863,73.422 289.911 C 72.344 290.759,71.600 292.316,71.600 293.726 C 71.599 295.141,69.399 299.378,68.287 300.106 C 67.518 300.610,67.142 301.357,66.784 303.089 C 66.195 305.940,64.755 308.863,63.422 309.911 C 62.344 310.759,61.600 312.316,61.600 313.726 C 61.599 315.141,59.399 319.378,58.287 320.106 C 57.518 320.610,57.142 321.357,56.784 323.089 C 56.195 325.940,54.755 328.863,53.422 329.911 C 52.344 330.759,51.600 332.316,51.600 333.726 C 51.599 335.141,49.399 339.378,48.287 340.106 C 47.518 340.610,47.142 341.357,46.784 343.089 C 46.195 345.940,44.755 348.863,43.422 349.911 C 42.344 350.759,41.600 352.316,41.600 353.726 C 41.599 355.141,39.399 359.378,38.287 360.106 C 37.518 360.610,37.142 361.356,36.785 363.089 C 36.523 364.360,36.066 365.873,35.769 366.451 C 35.288 367.389,35.316 367.581,36.022 368.220 C 37.166 369.255,47.856 368.144,49.143 366.857 C 50.989 365.011,54.372 364.001,61.400 363.196 C 64.916 362.793,65.646 362.570,67.433 361.348 C 69.869 359.684,72.239 359.022,78.540 358.248 C 82.132 357.806,83.488 357.474,84.140 356.877 C 86.295 354.905,89.724 353.953,98.096 353.004 C 99.770 352.814,100.925 352.377,102.355 351.393 C 104.738 349.754,107.848 348.907,113.967 348.232 C 118.282 347.756,118.692 347.634,119.938 346.465 C 121.626 344.880,124.097 344.144,130.400 343.350 C 134.923 342.781,135.594 342.589,137.433 341.340 C 139.910 339.657,142.312 339.001,148.703 338.259 C 153.308 337.724,153.683 337.613,154.889 336.435 C 156.522 334.838,158.901 334.140,165.400 333.349 C 170.166 332.768,170.751 332.605,172.405 331.393 C 174.572 329.806,177.741 328.929,183.900 328.213 C 187.803 327.759,188.627 327.536,189.536 326.686 C 191.037 325.283,192.641 324.550,195.405 324.006 C 196.723 323.747,198.116 323.304,198.502 323.022 C 199.502 322.291,199.404 43.210,198.404 41.700 C 197.525 40.373,197.306 40.562,196.782 43.100 " fill="#c3ebfc" id="path1" stroke="none"/>
  <path fill-rule="evenodd" d="M196.858 37.500 C 196.654 37.885,196.104 39.444,195.637 40.963 C 194.735 43.896,193.719 45.807,192.451 46.954 C 192.025 47.339,191.185 49.199,190.584 51.086 C 189.831 53.450,189.060 54.996,188.105 56.052 C 187.187 57.069,186.388 58.631,185.735 60.686 C 184.698 63.952,183.733 65.794,182.451 66.954 C 182.025 67.339,181.185 69.199,180.584 71.086 C 179.831 73.450,179.060 74.996,178.105 76.052 C 177.187 77.069,176.388 78.631,175.735 80.686 C 174.698 83.952,173.733 85.794,172.451 86.954 C 172.025 87.339,171.185 89.199,170.584 91.086 C 169.831 93.450,169.060 94.996,168.105 96.052 C 167.187 97.069,166.388 98.631,165.735 100.686 C 164.698 103.952,163.733 105.794,162.451 106.954 C 162.025 107.339,161.185 109.199,160.584 111.086 C 159.831 113.450,159.060 114.996,158.105 116.052 C 157.187 117.069,156.388 118.631,155.735 120.686 C 154.698 123.952,153.733 125.794,152.451 126.954 C 152.025 127.339,151.185 129.199,150.584 131.086 C 149.831 133.450,149.060 134.996,148.105 136.052 C 147.187 137.069,146.388 138.631,145.735 140.686 C 144.698 143.952,143.733 145.794,142.451 146.954 C 142.025 147.339,141.185 149.199,140.584 151.086 C 139.831 153.450,139.060 154.996,138.105 156.052 C 137.187 157.069,136.388 158.631,135.735 160.686 C 134.698 163.952,133.733 165.794,132.451 166.954 C 132.025 167.339,131.185 169.199,130.584 171.086 C 129.831 173.450,129.060 174.996,128.105 176.052 C 127.187 177.069,126.388 178.631,125.735 180.686 C 124.698 183.952,123.733 185.794,122.451 186.954 C 122.025 187.339,121.185 189.199,120.584 191.086 C 119.831 193.450,119.060 194.996,118.105 196.052 C 117.187 197.069,116.388 198.631,115.735 200.686 C 114.698 203.952,113.733 205.794,112.451 206.954 C 112.025 207.339,111.185 209.199,110.584 211.086 C 109.831 213.450,109.060 214.996,108.105 216.052 C 107.187 217.069,106.388 218.631,105.735 220.686 C 104.698 223.952,103.733 225.794,102.451 226.954 C 102.025 227.339,101.185 229.199,100.584 231.086 C 99.831 233.450,99.060 234.996,98.105 236.052 C 97.187 237.069,96.388 238.631,95.735 240.686 C 94.698 243.952,93.733 245.794,92.451 246.954 C 92.025 247.339,91.185 249.199,90.584 251.086 C 89.831 253.450,89.060 254.996,88.105 256.052 C 87.187 257.069,86.388 258.631,85.735 260.686 C 84.698 263.952,83.733 265.794,82.451 266.954 C 82.025 267.339,81.185 269.199,80.584 271.086 C 79.831 273.450,79.060 274.996,78.105 276.052 C 77.187 277.069,76.388 278.631,75.735 280.686 C 74.698 283.952,73.733 285.794,72.451 286.954 C 72.025 287.339,71.185 289.199,70.584 291.086 C 69.831 293.450,69.060 294.996,68.105 296.052 C 67.187 297.069,66.388 298.631,65.735 300.686 C 64.698 303.952,63.733 305.794,62.451 306.954 C 62.025 307.339,61.185 309.199,60.584 311.086 C 59.831 313.450,59.060 314.996,58.105 316.052 C 57.187 317.069,56.388 318.631,55.735 320.686 C 54.698 323.952,53.733 325.794,52.451 326.954 C 52.025 327.339,51.185 329.199,50.584 331.086 C 49.831 333.450,49.060 334.996,48.105 336.052 C 47.187 337.069,46.388 338.631,45.735 340.686 C 44.698 343.952,43.733 345.794,42.451 346.954 C 42.025 347.339,41.190 349.184,40.594 351.054 C 39.848 353.398,39.053 354.983,38.034 356.161 C 37.008 357.346,36.275 358.814,35.640 360.954 C 35.084 362.824,34.167 364.768,33.310 365.891 C 31.553 368.192,30.872 371.980,32.028 373.025 C 32.647 373.586,33.050 373.497,36.455 372.046 C 38.515 371.168,41.460 370.249,43.000 370.004 C 48.910 369.063,52.259 368.317,53.800 367.595 C 57.436 365.895,59.806 365.187,64.478 364.409 C 68.319 363.769,70.143 363.234,72.784 361.973 C 75.465 360.692,77.211 360.186,81.184 359.538 C 84.714 358.962,87.109 358.314,89.269 357.351 C 92.485 355.917,97.787 354.400,99.580 354.400 C 101.387 354.400,105.283 353.221,108.200 351.792 C 110.177 350.823,112.175 350.237,115.000 349.796 C 119.437 349.104,122.982 348.196,124.200 347.442 C 125.919 346.377,130.013 345.177,134.600 344.395 C 138.248 343.773,140.205 343.193,142.755 341.980 C 145.278 340.780,147.107 340.235,150.134 339.780 C 155.599 338.959,155.732 338.922,159.600 337.177 C 161.630 336.261,164.451 335.382,166.600 334.996 C 173.046 333.838,175.306 333.217,178.176 331.812 C 180.291 330.778,182.256 330.223,186.000 329.605 C 189.426 329.039,191.756 328.411,193.400 327.609 C 194.720 326.966,196.443 326.184,197.229 325.870 C 198.015 325.557,199.320 324.719,200.129 324.009 L 201.600 322.717 201.600 182.691 L 201.600 42.665 200.353 40.432 C 199.007 38.021,198.065 36.800,197.552 36.800 C 197.374 36.800,197.061 37.115,196.858 37.500 M198.404 41.700 C 199.404 43.210,199.502 322.291,198.502 323.022 C 198.116 323.304,196.723 323.747,195.405 324.006 C 192.641 324.550,191.037 325.283,189.536 326.686 C 188.627 327.536,187.803 327.759,183.900 328.213 C 177.741 328.929,174.572 329.806,172.405 331.393 C 170.751 332.605,170.166 332.768,165.400 333.349 C 158.901 334.140,156.522 334.838,154.889 336.435 C 153.683 337.613,153.308 337.724,148.703 338.259 C 142.312 339.001,139.910 339.657,137.433 341.340 C 135.594 342.589,134.923 342.781,130.400 343.350 C 124.097 344.144,121.626 344.880,119.938 346.465 C 118.692 347.634,118.282 347.756,113.967 348.232 C 107.848 348.907,104.738 349.754,102.355 351.393 C 100.925 352.377,99.770 352.814,98.096 353.004 C 89.724 353.953,86.295 354.905,84.140 356.877 C 83.488 357.474,82.132 357.806,78.540 358.248 C 72.239 359.022,69.869 359.684,67.433 361.348 C 65.646 362.570,64.916 362.793,61.400 363.196 C 54.372 364.001,50.989 365.011,49.143 366.857 C 47.856 368.144,37.166 369.255,36.022 368.220 C 35.316 367.581,35.288 367.389,35.769 366.451 C 36.066 365.873,36.523 364.360,36.785 363.089 C 37.142 361.356,37.518 360.610,38.287 360.106 C 39.399 359.378,41.599 355.141,41.600 353.726 C 41.600 352.316,42.344 350.759,43.422 349.911 C 44.755 348.863,46.195 345.940,46.784 343.089 C 47.142 341.357,47.518 340.610,48.287 340.106 C 49.399 339.378,51.599 335.141,51.600 333.726 C 51.600 332.316,52.344 330.759,53.422 329.911 C 54.755 328.863,56.195 325.940,56.784 323.089 C 57.142 321.357,57.518 320.610,58.287 320.106 C 59.399 319.378,61.599 315.141,61.600 313.726 C 61.600 312.316,62.344 310.759,63.422 309.911 C 64.755 308.863,66.195 305.940,66.784 303.089 C 67.142 301.357,67.518 300.610,68.287 300.106 C 69.399 299.378,71.599 295.141,71.600 293.726 C 71.600 292.316,72.344 290.759,73.422 289.911 C 74.755 288.863,76.195 285.940,76.784 283.089 C 77.142 281.357,77.518 280.610,78.287 280.106 C 79.399 279.378,81.599 275.141,81.600 273.726 C 81.600 272.316,82.344 270.759,83.422 269.911 C 84.755 268.863,86.195 265.940,86.784 263.089 C 87.142 261.357,87.518 260.610,88.287 260.106 C 89.399 259.378,91.599 255.141,91.600 253.726 C 91.600 252.316,92.344 250.759,93.422 249.911 C 94.755 248.863,96.195 245.940,96.784 243.089 C 97.142 241.357,97.518 240.610,98.287 240.106 C 99.399 239.378,101.599 235.141,101.600 233.726 C 101.600 232.316,102.344 230.759,103.422 229.911 C 104.755 228.863,106.195 225.940,106.784 223.089 C 107.142 221.357,107.518 220.610,108.287 220.106 C 109.399 219.378,111.599 215.141,111.600 213.726 C 111.600 212.316,112.344 210.759,113.422 209.911 C 114.755 208.863,116.195 205.940,116.784 203.089 C 117.142 201.357,117.518 200.610,118.287 200.106 C 119.399 199.378,121.599 195.141,121.600 193.726 C 121.600 192.316,122.344 190.759,123.422 189.911 C 124.755 188.863,126.195 185.940,126.784 183.089 C 127.142 181.357,127.518 180.610,128.287 180.106 C 129.399 179.378,131.599 175.141,131.600 173.726 C 131.600 172.316,132.344 170.759,133.422 169.911 C 134.755 168.863,136.195 165.940,136.784 163.089 C 137.142 161.357,137.518 160.610,138.287 160.106 C 139.399 159.378,141.599 155.141,141.600 153.726 C 141.600 152.316,142.344 150.759,143.422 149.911 C 144.755 148.863,146.195 145.940,146.784 143.089 C 147.142 141.357,147.518 140.610,148.287 140.106 C 149.399 139.378,151.599 135.141,151.600 133.726 C 151.600 132.316,152.344 130.759,153.422 129.911 C 154.755 128.863,156.195 125.940,156.784 123.089 C 157.142 121.357,157.518 120.610,158.287 120.106 C 159.399 119.378,161.599 115.141,161.600 113.726 C 161.600 112.316,162.344 110.759,163.422 109.911 C 164.755 108.863,166.195 105.940,166.784 103.089 C 167.142 101.357,167.518 100.610,168.287 100.106 C 169.399 99.378,171.599 95.141,171.600 93.726 C 171.600 92.316,172.344 90.759,173.422 89.911 C 174.755 88.863,176.195 85.940,176.784 83.089 C 177.142 81.357,177.518 80.610,178.287 80.106 C 179.399 79.378,181.599 75.141,181.600 73.726 C 181.600 72.316,182.344 70.759,183.422 69.911 C 184.755 68.863,186.195 65.940,186.784 63.089 C 187.142 61.357,187.518 60.610,188.287 60.106 C 189.399 59.378,191.599 55.141,191.600 53.726 C 191.600 52.316,192.344 50.759,193.422 49.911 C 194.753 48.864,196.195 45.941,196.782 43.100 C 197.306 40.562,197.525 40.373,198.404 41.700 " fill="#9cc4ec" id="path2" stroke="none"/>
  <path fill-rule="evenodd" d="M196.691 36.700 C 196.343 37.085,195.688 38.734,195.237 40.364 C 194.466 43.146,192.980 45.991,192.295 45.997 C 191.853 46.001,190.534 49.028,189.796 51.731 C 189.360 53.326,188.669 54.594,187.604 55.750 C 186.436 57.016,185.844 58.173,185.232 60.383 C 184.465 63.150,182.979 65.991,182.295 65.997 C 181.853 66.001,180.534 69.028,179.796 71.731 C 179.360 73.326,178.669 74.594,177.604 75.750 C 176.436 77.016,175.844 78.173,175.232 80.383 C 174.465 83.150,172.979 85.991,172.295 85.997 C 171.853 86.001,170.534 89.028,169.796 91.731 C 169.360 93.326,168.669 94.594,167.604 95.750 C 166.436 97.016,165.844 98.173,165.232 100.383 C 164.465 103.150,162.979 105.991,162.295 105.997 C 161.853 106.001,160.534 109.028,159.796 111.731 C 159.360 113.326,158.669 114.594,157.604 115.750 C 156.436 117.016,155.844 118.173,155.232 120.383 C 154.465 123.150,152.979 125.991,152.295 125.997 C 151.853 126.001,150.534 129.028,149.796 131.731 C 149.360 133.326,148.669 134.594,147.604 135.750 C 146.436 137.016,145.844 138.173,145.232 140.383 C 144.465 143.150,142.979 145.991,142.295 145.997 C 141.853 146.001,140.534 149.028,139.796 151.731 C 139.360 153.326,138.669 154.594,137.604 155.750 C 136.436 157.016,135.844 158.173,135.232 160.383 C 134.465 163.150,132.979 165.991,132.295 165.997 C 131.853 166.001,130.534 169.028,129.796 171.731 C 129.360 173.326,128.669 174.594,127.604 175.750 C 126.436 177.016,125.844 178.173,125.232 180.383 C 124.465 183.150,122.979 185.991,122.295 185.997 C 121.853 186.001,120.534 189.028,119.796 191.731 C 119.360 193.326,118.669 194.594,117.604 195.750 C 116.436 197.016,115.844 198.173,115.232 200.383 C 114.465 203.150,112.979 205.991,112.295 205.997 C 111.853 206.001,110.534 209.028,109.796 211.731 C 109.360 213.326,108.669 214.594,107.604 215.750 C 106.436 217.016,105.844 218.173,105.232 220.383 C 104.465 223.150,102.979 225.991,102.295 225.997 C 101.853 226.001,100.534 229.028,99.796 231.731 C 99.360 233.326,98.669 234.594,97.604 235.750 C 96.436 237.016,95.844 238.173,95.232 240.383 C 94.465 243.150,92.979 245.991,92.295 245.997 C 91.853 246.001,90.534 249.028,89.796 251.731 C 89.360 253.326,88.669 254.594,87.604 255.750 C 86.436 257.016,85.844 258.173,85.232 260.383 C 84.465 263.150,82.979 265.991,82.295 265.997 C 81.853 266.001,80.534 269.028,79.796 271.731 C 79.360 273.326,78.669 274.594,77.604 275.750 C 76.436 277.016,75.844 278.173,75.232 280.383 C 74.465 283.150,72.979 285.991,72.295 285.997 C 71.853 286.001,70.534 289.028,69.796 291.731 C 69.360 293.326,68.669 294.594,67.604 295.750 C 66.436 297.016,65.844 298.173,65.232 300.383 C 64.465 303.150,62.979 305.991,62.295 305.997 C 61.853 306.001,60.534 309.028,59.796 311.731 C 59.360 313.326,58.669 314.594,57.604 315.750 C 56.436 317.016,55.844 318.173,55.232 320.383 C 54.465 323.150,52.979 325.991,52.295 325.997 C 51.853 326.001,50.534 329.028,49.796 331.731 C 49.360 333.326,48.669 334.594,47.604 335.750 C 46.436 337.016,45.844 338.173,45.232 340.383 C 44.465 343.150,42.979 345.991,42.295 345.997 C 41.853 346.001,40.534 349.028,39.796 351.731 C 39.360 353.326,38.669 354.594,37.604 355.750 C 36.437 357.015,35.844 358.173,35.234 360.373 C 34.388 363.427,33.766 364.642,32.392 365.922 C 30.711 367.488,30.211 372.143,31.591 373.392 C 32.663 374.362,34.471 374.030,38.228 372.173 C 40.682 370.961,42.120 370.573,46.499 369.945 C 52.698 369.055,52.575 369.088,56.200 367.362 C 59.198 365.935,63.054 364.800,64.905 364.800 C 67.119 364.800,71.824 363.503,73.600 362.403 C 75.956 360.945,77.215 360.583,83.202 359.642 C 87.269 359.004,88.853 358.546,91.667 357.195 C 94.547 355.814,95.995 355.404,100.265 354.763 C 104.719 354.094,105.877 353.753,109.000 352.191 C 110.980 351.201,113.050 350.387,113.600 350.383 C 116.616 350.359,123.210 348.810,126.000 347.470 C 129.163 345.951,133.001 344.800,134.905 344.800 C 137.117 344.800,141.824 343.503,143.600 342.405 C 145.888 340.989,147.381 340.541,151.600 340.001 C 155.788 339.465,158.889 338.608,160.995 337.406 C 163.320 336.079,166.016 335.332,171.000 334.634 C 174.683 334.118,175.915 333.750,178.562 332.376 C 181.214 330.998,182.504 330.613,186.570 329.989 C 192.259 329.116,191.662 329.308,197.945 326.327 L 202.890 323.981 205.342 324.426 C 208.224 324.948,210.275 325.747,211.395 326.783 C 212.454 327.764,214.549 328.291,220.143 328.985 C 225.929 329.702,227.664 330.169,229.126 331.399 C 230.771 332.783,231.780 333.093,237.517 333.974 C 242.907 334.801,244.852 335.422,246.286 336.771 C 247.258 337.686,250.870 338.551,255.514 338.981 C 259.692 339.368,262.789 340.267,264.406 341.561 C 266.191 342.990,266.321 343.027,272.884 343.973 C 278.247 344.745,280.184 345.362,281.800 346.811 C 282.843 347.747,284.820 348.249,290.274 348.966 C 296.099 349.731,297.586 350.158,299.372 351.578 C 300.933 352.818,301.660 353.008,309.921 354.327 C 314.031 354.983,315.219 355.341,317.121 356.495 C 319.681 358.048,321.728 358.646,325.765 359.021 C 329.840 359.399,332.811 360.285,334.475 361.617 C 336.032 362.864,337.658 363.309,343.200 364.006 C 347.637 364.565,350.705 365.448,352.233 366.605 C 354.807 368.554,362.301 369.777,363.864 368.504 L 364.729 367.800 363.926 364.600 C 363.272 361.994,362.834 361.102,361.568 359.792 C 360.078 358.250,359.472 356.898,358.378 352.670 C 358.067 351.464,357.529 350.510,356.947 350.128 C 355.532 349.202,354.489 347.235,353.784 344.170 C 353.273 341.942,352.841 341.085,351.581 339.792 C 350.077 338.248,349.476 336.913,348.378 332.670 C 348.067 331.464,347.529 330.510,346.947 330.128 C 345.532 329.202,344.489 327.235,343.784 324.170 C 343.273 321.942,342.841 321.085,341.581 319.792 C 340.077 318.248,339.476 316.913,338.378 312.670 C 338.067 311.464,337.529 310.510,336.947 310.128 C 335.532 309.202,334.489 307.235,333.784 304.170 C 333.273 301.942,332.841 301.085,331.581 299.792 C 330.077 298.248,329.476 296.913,328.378 292.670 C 328.067 291.464,327.529 290.510,326.947 290.128 C 325.532 289.202,324.489 287.235,323.784 284.170 C 323.273 281.942,322.841 281.085,321.581 279.792 C 320.077 278.248,319.476 276.913,318.378 272.670 C 318.067 271.464,317.529 270.510,316.947 270.128 C 315.532 269.202,314.489 267.235,313.784 264.170 C 313.273 261.942,312.841 261.085,311.581 259.792 C 310.077 258.248,309.476 256.913,308.378 252.670 C 308.067 251.464,307.529 250.510,306.947 250.128 C 305.532 249.202,304.489 247.235,303.784 244.170 C 303.273 241.942,302.841 241.085,301.581 239.792 C 300.077 238.248,299.476 236.913,298.378 232.670 C 298.067 231.464,297.529 230.510,296.947 230.128 C 295.532 229.202,294.489 227.235,293.784 224.170 C 293.273 221.942,292.841 221.085,291.581 219.792 C 290.077 218.248,289.476 216.913,288.378 212.670 C 288.067 211.464,287.529 210.510,286.947 210.128 C 285.532 209.202,284.489 207.235,283.784 204.170 C 283.273 201.942,282.841 201.085,281.581 199.792 C 280.077 198.248,279.476 196.913,278.378 192.670 C 278.067 191.464,277.529 190.510,276.947 190.128 C 275.532 189.202,274.489 187.235,273.784 184.170 C 273.273 181.942,272.841 181.085,271.581 179.792 C 270.077 178.248,269.476 176.913,268.378 172.670 C 268.067 171.464,267.529 170.510,266.947 170.128 C 265.532 169.202,264.489 167.235,263.784 164.170 C 263.273 161.942,262.841 161.085,261.581 159.792 C 260.077 158.248,259.476 156.913,258.378 152.670 C 258.067 151.464,257.529 150.510,256.947 150.128 C 255.532 149.202,254.489 147.235,253.784 144.170 C 253.273 141.942,252.841 141.085,251.581 139.792 C 250.077 138.248,249.476 136.913,248.378 132.670 C 248.067 131.464,247.529 130.510,246.947 130.128 C 245.532 129.202,244.489 127.235,243.784 124.170 C 243.273 121.942,242.841 121.085,241.581 119.792 C 240.077 118.248,239.476 116.913,238.378 112.670 C 238.067 111.464,237.529 110.510,236.947 110.128 C 235.532 109.202,234.489 107.235,233.784 104.170 C 233.273 101.942,232.841 101.085,231.581 99.792 C 230.077 98.248,229.476 96.913,228.378 92.670 C 228.067 91.464,227.529 90.510,226.947 90.128 C 225.532 89.202,224.489 87.235,223.784 84.170 C 223.273 81.942,222.841 81.085,221.581 79.792 C 220.077 78.248,219.476 76.913,218.378 72.670 C 218.067 71.464,217.529 70.510,216.947 70.128 C 215.532 69.202,214.489 67.235,213.784 64.170 C 213.273 61.942,212.841 61.085,211.581 59.792 C 210.077 58.248,209.476 56.913,208.378 52.670 C 208.067 51.464,207.529 50.510,206.947 50.128 C 205.537 49.204,204.490 47.239,203.782 44.184 C 202.620 39.175,198.441 34.765,196.691 36.700 M198.491 37.500 C 198.830 37.885,199.668 39.205,200.353 40.432 L 201.600 42.665 201.600 182.691 L 201.600 322.717 200.129 324.009 C 199.320 324.719,198.015 325.557,197.229 325.870 C 196.443 326.184,194.720 326.966,193.400 327.609 C 191.756 328.411,189.426 329.039,186.000 329.605 C 182.256 330.223,180.291 330.778,178.176 331.812 C 175.306 333.217,173.046 333.838,166.600 334.996 C 164.451 335.382,161.630 336.261,159.600 337.177 C 155.732 338.922,155.599 338.959,150.134 339.780 C 147.107 340.235,145.278 340.780,142.755 341.980 C 140.205 343.193,138.248 343.773,134.600 344.395 C 130.013 345.177,125.919 346.377,124.200 347.442 C 122.982 348.196,119.437 349.104,115.000 349.796 C 112.175 350.237,110.177 350.823,108.200 351.792 C 105.283 353.221,101.387 354.400,99.580 354.400 C 97.787 354.400,92.485 355.917,89.269 357.351 C 87.109 358.314,84.714 358.962,81.184 359.538 C 77.211 360.186,75.465 360.692,72.784 361.973 C 70.143 363.234,68.319 363.769,64.478 364.409 C 59.806 365.187,57.436 365.895,53.800 367.595 C 52.259 368.317,48.910 369.063,43.000 370.004 C 41.460 370.249,38.515 371.168,36.455 372.046 C 33.050 373.497,32.647 373.586,32.028 373.025 C 30.872 371.980,31.553 368.192,33.310 365.891 C 34.167 364.768,35.084 362.824,35.640 360.954 C 36.275 358.814,37.008 357.346,38.034 356.161 C 39.053 354.983,39.848 353.398,40.594 351.054 C 41.190 349.184,42.025 347.339,42.451 346.954 C 43.733 345.794,44.698 343.952,45.735 340.686 C 46.388 338.631,47.187 337.069,48.105 336.052 C 49.060 334.996,49.831 333.450,50.584 331.086 C 51.185 329.199,52.025 327.339,52.451 326.954 C 53.733 325.794,54.698 323.952,55.735 320.686 C 56.388 318.631,57.187 317.069,58.105 316.052 C 59.060 314.996,59.831 313.450,60.584 311.086 C 61.185 309.199,62.025 307.339,62.451 306.954 C 63.733 305.794,64.698 303.952,65.735 300.686 C 66.388 298.631,67.187 297.069,68.105 296.052 C 69.060 294.996,69.831 293.450,70.584 291.086 C 71.185 289.199,72.025 287.339,72.451 286.954 C 73.733 285.794,74.698 283.952,75.735 280.686 C 76.388 278.631,77.187 277.069,78.105 276.052 C 79.060 274.996,79.831 273.450,80.584 271.086 C 81.185 269.199,82.025 267.339,82.451 266.954 C 83.733 265.794,84.698 263.952,85.735 260.686 C 86.388 258.631,87.187 257.069,88.105 256.052 C 89.060 254.996,89.831 253.450,90.584 251.086 C 91.185 249.199,92.025 247.339,92.451 246.954 C 93.733 245.794,94.698 243.952,95.735 240.686 C 96.388 238.631,97.187 237.069,98.105 236.052 C 99.060 234.996,99.831 233.450,100.584 231.086 C 101.185 229.199,102.025 227.339,102.451 226.954 C 103.733 225.794,104.698 223.952,105.735 220.686 C 106.388 218.631,107.187 217.069,108.105 216.052 C 109.060 214.996,109.831 213.450,110.584 211.086 C 111.185 209.199,112.025 207.339,112.451 206.954 C 113.733 205.794,114.698 203.952,115.735 200.686 C 116.388 198.631,117.187 197.069,118.105 196.052 C 119.060 194.996,119.831 193.450,120.584 191.086 C 121.185 189.199,122.025 187.339,122.451 186.954 C 123.733 185.794,124.698 183.952,125.735 180.686 C 126.388 178.631,127.187 177.069,128.105 176.052 C 129.060 174.996,129.831 173.450,130.584 171.086 C 131.185 169.199,132.025 167.339,132.451 166.954 C 133.733 165.794,134.698 163.952,135.735 160.686 C 136.388 158.631,137.187 157.069,138.105 156.052 C 139.060 154.996,139.831 153.450,140.584 151.086 C 141.185 149.199,142.025 147.339,142.451 146.954 C 143.733 145.794,144.698 143.952,145.735 140.686 C 146.388 138.631,147.187 137.069,148.105 136.052 C 149.060 134.996,149.831 133.450,150.584 131.086 C 151.185 129.199,152.025 127.339,152.451 126.954 C 153.733 125.794,154.698 123.952,155.735 120.686 C 156.388 118.631,157.187 117.069,158.105 116.052 C 159.060 114.996,159.831 113.450,160.584 111.086 C 161.185 109.199,162.025 107.339,162.451 106.954 C 163.733 105.794,164.698 103.952,165.735 100.686 C 166.388 98.631,167.187 97.069,168.105 96.052 C 169.060 94.996,169.831 93.450,170.584 91.086 C 171.185 89.199,172.025 87.339,172.451 86.954 C 173.733 85.794,174.698 83.952,175.735 80.686 C 176.388 78.631,177.187 77.069,178.105 76.052 C 179.060 74.996,179.831 73.450,180.584 71.086 C 181.185 69.199,182.025 67.339,182.451 66.954 C 183.733 65.794,184.698 63.952,185.735 60.686 C 186.388 58.631,187.187 57.069,188.105 56.052 C 189.060 54.996,189.831 53.450,190.584 51.086 C 191.185 49.199,192.025 47.339,192.451 46.954 C 193.719 45.807,194.735 43.896,195.637 40.963 C 196.593 37.856,197.079 36.800,197.552 36.800 C 197.730 36.800,198.153 37.115,198.491 37.500 M228.400 349.764 C 228.400 350.386,229.827 351.738,230.277 351.541 C 230.455 351.463,230.105 350.916,229.500 350.326 C 228.895 349.735,228.400 349.482,228.400 349.764 M170.331 350.447 C 169.797 350.998,169.771 351.180,170.202 351.345 C 170.864 351.599,171.659 350.727,171.277 350.165 C 171.103 349.908,170.751 350.013,170.331 350.447 M231.800 351.653 L 231.000 351.987 231.800 351.903 C 232.240 351.858,232.837 351.968,233.127 352.150 C 233.416 352.332,233.723 352.410,233.808 352.325 C 234.215 351.919,232.521 351.352,231.800 351.653 M263.415 358.354 C 263.044 359.522,263.983 361.116,265.315 361.580 C 266.795 362.096,267.600 362.116,267.600 361.637 C 267.600 361.438,267.195 361.364,266.700 361.472 C 265.965 361.633,265.910 361.588,266.400 361.223 C 266.875 360.869,266.778 360.827,265.932 361.023 C 264.640 361.323,263.365 359.770,263.794 358.420 C 263.937 357.969,263.964 357.600,263.854 357.600 C 263.744 357.600,263.546 357.939,263.415 358.354 M136.225 359.716 C 136.375 360.110,136.341 360.397,136.149 360.353 C 135.357 360.172,134.315 360.900,134.866 361.250 C 135.979 361.955,137.341 360.377,136.413 359.457 C 136.067 359.113,136.020 359.177,136.225 359.716 M101.405 369.200 C 101.567 369.750,101.557 370.065,101.382 369.899 C 100.962 369.500,99.550 370.796,99.860 371.296 C 100.007 371.535,99.734 371.575,99.150 371.398 C 98.384 371.166,98.295 371.210,98.689 371.624 C 99.371 372.341,101.067 371.529,101.675 370.195 C 102.036 369.403,102.025 369.070,101.624 368.689 C 101.209 368.294,101.167 368.393,101.405 369.200 M298.414 369.118 C 298.406 369.403,298.842 370.078,299.382 370.618 C 299.922 371.158,300.597 371.594,300.882 371.586 C 301.167 371.578,300.970 371.333,300.444 371.042 C 299.918 370.750,299.250 370.082,298.958 369.556 C 298.667 369.030,298.422 368.833,298.414 369.118 M333.201 378.320 C 333.200 379.197,334.333 381.089,335.018 381.352 C 336.184 381.799,336.624 381.600,335.600 381.089 C 335.050 380.814,334.285 379.961,333.901 379.194 C 333.516 378.427,333.201 378.034,333.201 378.320 M64.617 380.772 C 64.193 381.459,65.270 381.703,65.840 381.049 C 66.149 380.694,66.186 380.582,65.921 380.801 C 65.298 381.318,64.681 381.317,65.000 380.800 C 65.136 380.580,65.157 380.400,65.047 380.400 C 64.937 380.400,64.744 380.568,64.617 380.772 M30.999 389.602 C 30.860 390.043,30.262 390.665,29.673 390.986 C 29.083 391.306,28.833 391.575,29.118 391.584 C 29.731 391.603,31.600 389.821,31.600 389.218 C 31.600 388.533,31.272 388.742,30.999 389.602 M368.414 389.118 C 368.406 389.403,368.842 390.078,369.382 390.618 C 369.922 391.158,370.597 391.594,370.882 391.586 C 371.167 391.578,370.970 391.333,370.444 391.042 C 369.918 390.750,369.250 390.082,368.958 389.556 C 368.667 389.030,368.422 388.833,368.414 389.118 " fill="#8cb4f3" id="path3" stroke="none"/>
  <path fill-rule="evenodd" d="M195.900 33.632 C 194.882 34.225,194.025 36.096,193.574 38.710 C 192.910 42.554,192.849 42.692,191.428 43.531 C 189.652 44.578,189.005 45.883,188.363 49.707 C 187.886 52.548,187.731 52.880,186.550 53.576 C 184.789 54.616,184.071 55.840,183.589 58.631 C 182.908 62.567,182.854 62.689,181.428 63.531 C 179.652 64.578,179.005 65.883,178.363 69.707 C 177.886 72.548,177.731 72.880,176.550 73.576 C 174.789 74.616,174.071 75.840,173.589 78.631 C 172.908 82.567,172.854 82.689,171.428 83.531 C 169.652 84.578,169.005 85.883,168.363 89.707 C 167.886 92.548,167.731 92.880,166.550 93.576 C 164.789 94.616,164.071 95.840,163.589 98.631 C 162.908 102.567,162.854 102.689,161.428 103.531 C 159.652 104.578,159.005 105.883,158.363 109.707 C 157.886 112.548,157.731 112.880,156.550 113.576 C 154.789 114.616,154.071 115.840,153.589 118.631 C 152.908 122.567,152.854 122.689,151.428 123.531 C 149.652 124.578,149.005 125.883,148.363 129.707 C 147.886 132.548,147.731 132.880,146.550 133.576 C 144.789 134.616,144.071 135.840,143.589 138.631 C 142.908 142.567,142.854 142.689,141.428 143.531 C 139.652 144.578,139.005 145.883,138.363 149.707 C 137.886 152.548,137.731 152.880,136.550 153.576 C 134.789 154.616,134.071 155.840,133.589 158.631 C 132.908 162.567,132.854 162.689,131.428 163.531 C 129.652 164.578,129.005 165.883,128.363 169.707 C 127.886 172.548,127.731 172.880,126.550 173.576 C 124.789 174.616,124.071 175.840,123.589 178.631 C 122.908 182.567,122.854 182.689,121.428 183.531 C 119.652 184.578,119.005 185.883,118.363 189.707 C 117.886 192.548,117.731 192.880,116.550 193.576 C 114.789 194.616,114.071 195.840,113.589 198.631 C 112.908 202.567,112.854 202.689,111.428 203.531 C 109.652 204.578,109.005 205.883,108.363 209.707 C 107.886 212.548,107.731 212.880,106.550 213.576 C 104.789 214.616,104.071 215.840,103.589 218.631 C 102.908 222.567,102.854 222.689,101.428 223.531 C 99.652 224.578,99.005 225.883,98.363 229.707 C 97.886 232.548,97.731 232.880,96.550 233.576 C 94.789 234.616,94.071 235.840,93.589 238.631 C 92.908 242.567,92.854 242.689,91.428 243.531 C 89.652 244.578,89.005 245.883,88.363 249.707 C 87.886 252.548,87.731 252.880,86.550 253.576 C 84.789 254.616,84.071 255.840,83.589 258.631 C 82.908 262.567,82.854 262.689,81.428 263.531 C 79.652 264.578,79.005 265.883,78.363 269.707 C 77.886 272.548,77.731 272.880,76.550 273.576 C 74.789 274.616,74.071 275.840,73.589 278.631 C 72.908 282.567,72.854 282.689,71.428 283.531 C 69.652 284.578,69.005 285.883,68.363 289.707 C 67.886 292.548,67.731 292.880,66.550 293.576 C 64.789 294.616,64.071 295.840,63.589 298.631 C 62.908 302.567,62.854 302.689,61.428 303.531 C 59.652 304.578,59.005 305.883,58.363 309.707 C 57.886 312.548,57.731 312.880,56.550 313.576 C 54.789 314.616,54.071 315.840,53.589 318.631 C 52.908 322.567,52.854 322.689,51.428 323.531 C 49.652 324.578,49.005 325.883,48.363 329.707 C 47.886 332.548,47.731 332.880,46.550 333.576 C 44.789 334.616,44.071 335.840,43.589 338.631 C 42.908 342.567,42.854 342.689,41.428 343.531 C 39.652 344.578,39.005 345.883,38.363 349.707 C 37.886 352.548,37.731 352.880,36.550 353.576 C 34.789 354.616,34.071 355.840,33.589 358.631 C 32.908 362.567,32.854 362.689,31.428 363.531 C 27.611 365.783,27.352 374.302,31.054 375.848 C 33.887 377.032,40.308 375.518,41.253 373.443 C 41.804 372.233,42.146 372.152,49.800 371.419 C 56.974 370.731,58.147 370.381,60.084 368.354 C 60.957 367.439,61.945 366.798,62.484 366.796 C 69.786 366.763,76.000 365.316,76.850 363.451 C 77.361 362.329,79.041 361.955,86.866 361.221 C 91.898 360.749,94.200 359.947,95.008 358.384 C 95.693 357.060,96.211 356.925,102.600 356.401 C 108.640 355.906,110.081 355.496,111.427 353.888 C 112.779 352.274,113.318 352.123,120.280 351.410 C 126.557 350.766,128.211 350.254,129.813 348.456 C 131.073 347.042,131.390 346.962,138.000 346.383 C 143.563 345.895,146.122 345.047,146.850 343.451 C 147.334 342.388,149.197 341.932,155.200 341.403 C 161.176 340.878,162.797 340.403,164.528 338.672 C 166.128 337.072,166.181 337.053,170.172 336.698 C 178.396 335.965,179.648 335.661,181.220 334.019 C 182.937 332.224,183.195 332.148,190.000 331.410 C 196.156 330.743,198.754 330.008,200.913 328.323 L 202.426 327.142 204.244 328.346 C 206.159 329.615,209.668 330.575,214.000 331.015 C 217.649 331.386,221.178 332.325,222.331 333.232 C 223.523 334.170,227.418 335.404,230.400 335.789 C 234.214 336.281,237.739 337.307,239.543 338.451 C 241.305 339.567,244.768 340.516,248.800 340.987 C 253.149 341.496,255.430 342.094,257.200 343.192 C 259.530 344.637,260.765 344.998,266.789 345.994 C 270.761 346.651,272.433 347.143,274.989 348.406 C 277.632 349.712,279.238 350.170,284.064 350.993 C 290.100 352.022,291.742 352.459,292.169 353.149 C 292.633 353.900,296.846 355.206,300.723 355.800 C 305.836 356.584,308.543 357.340,309.811 358.337 C 311.244 359.464,312.500 359.814,319.397 361.005 C 324.160 361.828,325.766 362.275,327.197 363.175 C 329.498 364.622,330.694 364.972,336.780 365.983 C 340.737 366.640,342.420 367.137,344.980 368.400 C 347.575 369.682,349.171 370.147,353.200 370.794 C 359.276 371.770,360.501 372.106,361.857 373.174 C 362.858 373.961,366.310 375.200,367.503 375.200 C 370.877 375.200,371.209 368.178,367.978 365.149 C 367.356 364.565,366.660 363.319,366.414 362.349 C 365.587 359.078,364.689 357.080,363.401 355.639 C 361.809 353.858,361.383 353.031,361.019 351.019 C 360.636 348.900,359.361 346.434,357.983 345.149 C 357.354 344.561,356.662 343.326,356.414 342.349 C 355.587 339.078,354.689 337.080,353.401 335.639 C 351.809 333.858,351.383 333.031,351.019 331.019 C 350.636 328.900,349.361 326.434,347.983 325.149 C 347.354 324.561,346.662 323.326,346.414 322.349 C 345.587 319.078,344.689 317.080,343.401 315.639 C 341.809 313.858,341.383 313.031,341.019 311.019 C 340.636 308.900,339.361 306.434,337.983 305.149 C 337.354 304.561,336.662 303.326,336.414 302.349 C 335.587 299.078,334.689 297.080,333.401 295.639 C 331.809 293.858,331.383 293.031,331.019 291.019 C 330.636 288.900,329.361 286.434,327.983 285.149 C 327.354 284.561,326.662 283.326,326.414 282.349 C 325.587 279.078,324.689 277.080,323.401 275.639 C 321.809 273.858,321.383 273.031,321.019 271.019 C 320.636 268.900,319.361 266.434,317.983 265.149 C 317.354 264.561,316.662 263.326,316.414 262.349 C 315.587 259.078,314.689 257.080,313.401 255.639 C 311.809 253.858,311.383 253.031,311.019 251.019 C 310.636 248.900,309.361 246.434,307.983 245.149 C 307.354 244.561,306.662 243.326,306.414 242.349 C 305.587 239.078,304.689 237.080,303.401 235.639 C 301.809 233.858,301.383 233.031,301.019 231.019 C 300.636 228.900,299.361 226.434,297.983 225.149 C 297.354 224.561,296.662 223.326,296.414 222.349 C 295.587 219.078,294.689 217.080,293.401 215.639 C 291.809 213.858,291.383 213.031,291.019 211.019 C 290.636 208.900,289.361 206.434,287.983 205.149 C 287.354 204.561,286.662 203.326,286.414 202.349 C 285.587 199.078,284.689 197.080,283.401 195.639 C 281.809 193.858,281.383 193.031,281.019 191.019 C 280.636 188.900,279.361 186.434,277.983 185.149 C 277.354 184.561,276.662 183.326,276.414 182.349 C 275.587 179.078,274.689 177.080,273.401 175.639 C 271.809 173.858,271.383 173.031,271.019 171.019 C 270.636 168.900,269.361 166.434,267.983 165.149 C 267.354 164.561,266.662 163.326,266.414 162.349 C 265.587 159.078,264.689 157.080,263.401 155.639 C 261.809 153.858,261.383 153.031,261.019 151.019 C 260.636 148.900,259.361 146.434,257.983 145.149 C 257.354 144.561,256.662 143.326,256.414 142.349 C 255.587 139.078,254.689 137.080,253.401 135.639 C 251.809 133.858,251.383 133.031,251.019 131.019 C 250.636 128.900,249.361 126.434,247.983 125.149 C 247.354 124.561,246.662 123.326,246.414 122.349 C 245.587 119.078,244.689 117.080,243.401 115.639 C 241.809 113.858,241.383 113.031,241.019 111.019 C 240.636 108.900,239.361 106.434,237.983 105.149 C 237.354 104.561,236.662 103.326,236.414 102.349 C 235.587 99.078,234.689 97.080,233.401 95.639 C 231.809 93.858,231.383 93.031,231.019 91.019 C 230.636 88.900,229.361 86.434,227.983 85.149 C 227.354 84.561,226.662 83.326,226.414 82.349 C 225.587 79.078,224.689 77.080,223.401 75.639 C 221.809 73.858,221.383 73.031,221.019 71.019 C 220.636 68.900,219.361 66.434,217.983 65.149 C 217.354 64.561,216.662 63.326,216.414 62.349 C 215.587 59.078,214.689 57.080,213.401 55.639 C 211.809 53.858,211.383 53.031,211.019 51.019 C 210.636 48.900,209.361 46.434,207.983 45.149 C 207.354 44.561,206.662 43.326,206.414 42.349 C 204.653 35.389,199.796 31.363,195.900 33.632 M199.209 36.806 C 201.252 38.261,203.099 41.242,203.782 44.184 C 204.490 47.239,205.537 49.204,206.947 50.128 C 207.529 50.510,208.067 51.464,208.378 52.670 C 209.476 56.913,210.077 58.248,211.581 59.792 C 212.841 61.085,213.273 61.942,213.784 64.170 C 214.489 67.235,215.532 69.202,216.947 70.128 C 217.529 70.510,218.067 71.464,218.378 72.670 C 219.476 76.913,220.077 78.248,221.581 79.792 C 222.841 81.085,223.273 81.942,223.784 84.170 C 224.489 87.235,225.532 89.202,226.947 90.128 C 227.529 90.510,228.067 91.464,228.378 92.670 C 229.476 96.913,230.077 98.248,231.581 99.792 C 232.841 101.085,233.273 101.942,233.784 104.170 C 234.489 107.235,235.532 109.202,236.947 110.128 C 237.529 110.510,238.067 111.464,238.378 112.670 C 239.476 116.913,240.077 118.248,241.581 119.792 C 242.841 121.085,243.273 121.942,243.784 124.170 C 244.489 127.235,245.532 129.202,246.947 130.128 C 247.529 130.510,248.067 131.464,248.378 132.670 C 249.476 136.913,250.077 138.248,251.581 139.792 C 252.841 141.085,253.273 141.942,253.784 144.170 C 254.489 147.235,255.532 149.202,256.947 150.128 C 257.529 150.510,258.067 151.464,258.378 152.670 C 259.476 156.913,260.077 158.248,261.581 159.792 C 262.841 161.085,263.273 161.942,263.784 164.170 C 264.489 167.235,265.532 169.202,266.947 170.128 C 267.529 170.510,268.067 171.464,268.378 172.670 C 269.476 176.913,270.077 178.248,271.581 179.792 C 272.841 181.085,273.273 181.942,273.784 184.170 C 274.489 187.235,275.532 189.202,276.947 190.128 C 277.529 190.510,278.067 191.464,278.378 192.670 C 279.476 196.913,280.077 198.248,281.581 199.792 C 282.841 201.085,283.273 201.942,283.784 204.170 C 284.489 207.235,285.532 209.202,286.947 210.128 C 287.529 210.510,288.067 211.464,288.378 212.670 C 289.476 216.913,290.077 218.248,291.581 219.792 C 292.841 221.085,293.273 221.942,293.784 224.170 C 294.489 227.235,295.532 229.202,296.947 230.128 C 297.529 230.510,298.067 231.464,298.378 232.670 C 299.476 236.913,300.077 238.248,301.581 239.792 C 302.841 241.085,303.273 241.942,303.784 244.170 C 304.489 247.235,305.532 249.202,306.947 250.128 C 307.529 250.510,308.067 251.464,308.378 252.670 C 309.476 256.913,310.077 258.248,311.581 259.792 C 312.841 261.085,313.273 261.942,313.784 264.170 C 314.489 267.235,315.532 269.202,316.947 270.128 C 317.529 270.510,318.067 271.464,318.378 272.670 C 319.476 276.913,320.077 278.248,321.581 279.792 C 322.841 281.085,323.273 281.942,323.784 284.170 C 324.489 287.235,325.532 289.202,326.947 290.128 C 327.529 290.510,328.067 291.464,328.378 292.670 C 329.476 296.913,330.077 298.248,331.581 299.792 C 332.841 301.085,333.273 301.942,333.784 304.170 C 334.489 307.235,335.532 309.202,336.947 310.128 C 337.529 310.510,338.067 311.464,338.378 312.670 C 339.476 316.913,340.077 318.248,341.581 319.792 C 342.841 321.085,343.273 321.942,343.784 324.170 C 344.489 327.235,345.532 329.202,346.947 330.128 C 347.529 330.510,348.067 331.464,348.378 332.670 C 349.476 336.913,350.077 338.248,351.581 339.792 C 352.841 341.085,353.273 341.942,353.784 344.170 C 354.489 347.235,355.532 349.202,356.947 350.128 C 357.529 350.510,358.067 351.464,358.378 352.670 C 359.472 356.898,360.078 358.250,361.568 359.792 C 362.834 361.102,363.272 361.994,363.926 364.600 L 364.729 367.800 363.864 368.504 C 362.301 369.777,354.807 368.554,352.233 366.605 C 350.705 365.448,347.637 364.565,343.200 364.006 C 337.658 363.309,336.032 362.864,334.475 361.617 C 332.811 360.285,329.840 359.399,325.765 359.021 C 321.728 358.646,319.681 358.048,317.121 356.495 C 315.219 355.341,314.031 354.983,309.921 354.327 C 301.660 353.008,300.933 352.818,299.372 351.578 C 297.586 350.158,296.099 349.731,290.274 348.966 C 284.820 348.249,282.843 347.747,281.800 346.811 C 280.184 345.362,278.247 344.745,272.884 343.973 C 266.321 343.027,266.191 342.990,264.406 341.561 C 262.789 340.267,259.692 339.368,255.514 338.981 C 250.870 338.551,247.258 337.686,246.286 336.771 C 244.852 335.422,242.907 334.801,237.517 333.974 C 231.780 333.093,230.771 332.783,229.126 331.399 C 227.664 330.169,225.929 329.702,220.143 328.985 C 214.549 328.291,212.454 327.764,211.395 326.783 C 210.275 325.747,208.224 324.948,205.342 324.426 L 202.890 323.981 197.945 326.327 C 191.662 329.308,192.259 329.116,186.570 329.989 C 182.504 330.613,181.214 330.998,178.562 332.376 C 175.915 333.750,174.683 334.118,171.000 334.634 C 166.016 335.332,163.320 336.079,160.995 337.406 C 158.889 338.608,155.788 339.465,151.600 340.001 C 147.381 340.541,145.888 340.989,143.600 342.405 C 141.824 343.503,137.117 344.800,134.905 344.800 C 133.001 344.800,129.163 345.951,126.000 347.470 C 123.210 348.810,116.616 350.359,113.600 350.383 C 113.050 350.387,110.980 351.201,109.000 352.191 C 105.877 353.753,104.719 354.094,100.265 354.763 C 95.995 355.404,94.547 355.814,91.667 357.195 C 88.853 358.546,87.269 359.004,83.202 359.642 C 77.215 360.583,75.956 360.945,73.600 362.403 C 71.824 363.503,67.119 364.800,64.905 364.800 C 63.054 364.800,59.198 365.935,56.200 367.362 C 52.575 369.088,52.698 369.055,46.499 369.945 C 42.120 370.573,40.682 370.961,38.228 372.173 C 34.471 374.030,32.663 374.362,31.591 373.392 C 30.211 372.143,30.711 367.488,32.392 365.922 C 33.766 364.642,34.388 363.427,35.234 360.373 C 35.844 358.173,36.437 357.015,37.604 355.750 C 38.669 354.594,39.360 353.326,39.796 351.731 C 40.534 349.028,41.853 346.001,42.295 345.997 C 42.979 345.991,44.465 343.150,45.232 340.383 C 45.844 338.173,46.436 337.016,47.604 335.750 C 48.669 334.594,49.360 333.326,49.796 331.731 C 50.534 329.028,51.853 326.001,52.295 325.997 C 52.979 325.991,54.465 323.150,55.232 320.383 C 55.844 318.173,56.436 317.016,57.604 315.750 C 58.669 314.594,59.360 313.326,59.796 311.731 C 60.534 309.028,61.853 306.001,62.295 305.997 C 62.979 305.991,64.465 303.150,65.232 300.383 C 65.844 298.173,66.436 297.016,67.604 295.750 C 68.669 294.594,69.360 293.326,69.796 291.731 C 70.534 289.028,71.853 286.001,72.295 285.997 C 72.979 285.991,74.465 283.150,75.232 280.383 C 75.844 278.173,76.436 277.016,77.604 275.750 C 78.669 274.594,79.360 273.326,79.796 271.731 C 80.534 269.028,81.853 266.001,82.295 265.997 C 82.979 265.991,84.465 263.150,85.232 260.383 C 85.844 258.173,86.436 257.016,87.604 255.750 C 88.669 254.594,89.360 253.326,89.796 251.731 C 90.534 249.028,91.853 246.001,92.295 245.997 C 92.979 245.991,94.465 243.150,95.232 240.383 C 95.844 238.173,96.436 237.016,97.604 235.750 C 98.669 234.594,99.360 233.326,99.796 231.731 C 100.534 229.028,101.853 226.001,102.295 225.997 C 102.979 225.991,104.465 223.150,105.232 220.383 C 105.844 218.173,106.436 217.016,107.604 215.750 C 108.669 214.594,109.360 213.326,109.796 211.731 C 110.534 209.028,111.853 206.001,112.295 205.997 C 112.979 205.991,114.465 203.150,115.232 200.383 C 115.844 198.173,116.436 197.016,117.604 195.750 C 118.669 194.594,119.360 193.326,119.796 191.731 C 120.534 189.028,121.853 186.001,122.295 185.997 C 122.979 185.991,124.465 183.150,125.232 180.383 C 125.844 178.173,126.436 177.016,127.604 175.750 C 128.669 174.594,129.360 173.326,129.796 171.731 C 130.534 169.028,131.853 166.001,132.295 165.997 C 132.979 165.991,134.465 163.150,135.232 160.383 C 135.844 158.173,136.436 157.016,137.604 155.750 C 138.669 154.594,139.360 153.326,139.796 151.731 C 140.534 149.028,141.853 146.001,142.295 145.997 C 142.979 145.991,144.465 143.150,145.232 140.383 C 145.844 138.173,146.436 137.016,147.604 135.750 C 148.669 134.594,149.360 133.326,149.796 131.731 C 150.534 129.028,151.853 126.001,152.295 125.997 C 152.979 125.991,154.465 123.150,155.232 120.383 C 155.844 118.173,156.436 117.016,157.604 115.750 C 158.669 114.594,159.360 113.326,159.796 111.731 C 160.534 109.028,161.853 106.001,162.295 105.997 C 162.979 105.991,164.465 103.150,165.232 100.383 C 165.844 98.173,166.436 97.016,167.604 95.750 C 168.669 94.594,169.360 93.326,169.796 91.731 C 170.534 89.028,171.853 86.001,172.295 85.997 C 172.979 85.991,174.465 83.150,175.232 80.383 C 175.844 78.173,176.436 77.016,177.604 75.750 C 178.669 74.594,179.360 73.326,179.796 71.731 C 180.534 69.028,181.853 66.001,182.295 65.997 C 182.979 65.991,184.465 63.150,185.232 60.383 C 185.844 58.173,186.436 57.016,187.604 55.750 C 188.669 54.594,189.360 53.326,189.796 51.731 C 190.534 49.028,191.853 46.001,192.295 45.997 C 192.980 45.991,194.466 43.146,195.237 40.364 C 196.429 36.060,197.196 35.373,199.209 36.806 M231.200 349.000 C 231.946 349.770,232.647 350.400,232.757 350.400 C 232.867 350.400,232.346 349.770,231.600 349.000 C 230.854 348.230,230.153 347.600,230.043 347.600 C 229.933 347.600,230.454 348.230,231.200 349.000 " fill="#6c9cd4" id="path4" stroke="none"/>
 </g>
</svg>
