<svg version="1.1" width="400" id="svg" xmlns:xlink="http://www.w3.org/1999/xlink" viewBox="0, 0, 400,400" height="400" xmlns="http://www.w3.org/2000/svg">
 <g id="svgg">
  <path fill-rule="evenodd" d="M186.064 48.352 C 185.769 48.539,185.564 49.211,185.607 49.846 C 185.738 51.787,185.636 52.000,184.576 52.000 C 184.013 52.000,183.644 52.147,183.755 52.328 C 183.867 52.508,183.441 52.579,182.810 52.487 C 181.635 52.314,180.940 54.119,181.210 56.637 C 181.521 59.530,181.235 60.400,179.974 60.400 C 177.914 60.400,177.134 61.058,177.210 62.729 C 177.247 63.538,177.260 65.211,177.239 66.447 L 177.200 68.695 175.552 68.916 C 173.287 69.220,173.219 69.347,173.103 73.524 L 173.000 77.214 171.508 77.457 C 169.438 77.794,169.235 78.182,168.938 82.361 L 168.677 86.041 167.356 86.593 C 165.566 87.340,164.963 88.968,164.715 93.718 C 164.480 98.211,164.511 98.151,162.427 98.070 C 160.529 97.995,160.468 98.139,160.439 102.776 C 160.424 105.246,160.255 106.316,159.809 106.762 C 159.366 107.205,159.200 107.232,159.200 106.860 C 159.200 105.555,156.605 106.545,156.475 107.900 C 156.393 108.747,156.525 109.200,156.855 109.200 C 157.248 109.200,157.253 109.307,156.880 109.680 C 156.616 109.944,156.400 111.204,156.400 112.480 C 156.400 114.908,156.293 115.027,154.276 114.817 C 152.649 114.648,151.856 116.268,153.166 117.086 C 153.789 117.475,154.031 117.442,154.466 116.907 C 154.926 116.341,154.907 116.285,154.329 116.501 C 153.960 116.639,153.451 116.502,153.197 116.197 C 152.819 115.741,152.927 115.676,153.800 115.834 C 154.594 115.978,154.784 115.897,154.549 115.514 C 154.348 115.186,154.582 115.230,155.195 115.634 C 156.434 116.452,156.547 116.856,155.804 117.816 C 155.204 118.592,155.201 118.592,155.474 117.800 C 155.718 117.092,155.672 117.063,155.079 117.545 C 154.711 117.845,154.507 118.250,154.628 118.445 C 155.122 119.245,154.051 118.730,153.493 117.900 C 152.778 116.837,152.498 117.011,152.154 118.729 C 151.983 119.585,152.055 120.000,152.374 120.000 C 152.634 120.000,152.725 119.802,152.575 119.560 C 152.384 119.251,152.556 119.255,153.152 119.574 C 153.988 120.021,154.286 120.445,153.700 120.353 C 152.514 120.165,152.156 120.493,152.119 121.799 C 152.094 122.687,152.234 123.103,152.501 122.937 C 152.734 122.794,152.810 122.860,152.671 123.085 C 152.533 123.309,151.965 123.406,151.410 123.300 C 149.167 122.871,147.925 124.598,148.998 126.654 C 149.326 127.284,149.596 127.590,149.598 127.333 C 149.599 127.076,149.721 126.551,149.868 126.167 C 150.043 125.711,149.983 125.563,149.696 125.741 C 148.960 126.195,148.659 125.163,149.351 124.560 C 149.706 124.251,149.818 124.214,149.599 124.479 C 148.884 125.342,149.180 125.742,149.991 125.009 C 150.425 124.615,150.685 124.137,150.567 123.947 C 150.305 123.522,150.951 123.484,151.367 123.900 C 151.532 124.065,151.862 124.200,152.100 124.200 C 152.338 124.200,152.580 124.430,152.637 124.710 C 152.694 124.990,152.654 125.053,152.549 124.848 C 152.252 124.269,150.381 126.214,150.182 127.309 C 150.024 128.182,150.120 128.266,151.062 128.086 C 151.786 127.948,152.031 128.027,151.839 128.337 C 151.651 128.641,151.792 128.701,152.266 128.519 C 152.845 128.297,152.733 128.149,151.642 127.705 C 150.353 127.179,150.333 127.137,151.017 126.381 C 151.782 125.536,152.630 125.303,152.158 126.068 C 151.964 126.383,152.087 126.452,152.534 126.281 C 152.976 126.111,153.200 126.231,153.200 126.636 C 153.200 126.988,153.009 127.129,152.748 126.968 C 152.471 126.797,152.374 126.904,152.498 127.244 C 152.609 127.550,152.903 127.755,153.150 127.700 C 153.915 127.530,153.623 128.165,152.591 128.916 C 151.829 129.470,151.428 129.536,150.813 129.207 C 150.140 128.847,150.052 128.890,150.242 129.491 C 150.365 129.881,150.046 129.671,149.533 129.024 C 149.020 128.377,148.485 127.477,148.344 127.024 C 148.174 126.476,148.096 126.708,148.110 127.718 C 148.125 128.814,148.279 129.178,148.665 129.030 C 148.959 128.917,149.200 129.005,149.200 129.225 C 149.200 129.445,148.917 129.734,148.570 129.867 C 148.142 130.031,148.015 130.404,148.173 131.034 C 148.364 131.796,148.164 132.075,147.040 132.608 C 146.258 132.979,145.466 133.758,145.188 134.428 C 144.921 135.073,144.545 135.600,144.351 135.600 C 144.158 135.600,144.000 135.780,144.000 136.000 C 144.000 136.220,144.270 136.400,144.600 136.400 C 144.930 136.400,145.200 136.220,145.200 136.000 C 145.200 135.780,145.391 135.600,145.624 135.600 C 145.857 135.600,145.919 135.808,145.762 136.062 C 145.584 136.350,145.652 136.415,145.945 136.234 C 146.202 136.075,146.301 135.764,146.165 135.543 C 145.838 135.014,147.598 133.152,148.120 133.474 C 148.355 133.619,148.400 133.523,148.227 133.244 C 148.064 132.981,148.142 132.511,148.400 132.200 C 148.658 131.889,148.752 131.446,148.609 131.214 C 148.466 130.983,148.630 130.512,148.974 130.168 C 149.319 129.824,149.623 129.646,149.650 129.771 C 149.838 130.630,149.774 131.037,149.413 131.294 C 149.186 131.456,149.416 131.591,149.924 131.594 C 150.500 131.598,150.744 131.433,150.572 131.155 C 150.271 130.667,151.067 130.016,151.976 130.006 C 152.385 130.002,152.327 130.171,151.776 130.587 C 151.160 131.054,151.128 131.177,151.620 131.187 C 151.961 131.194,152.436 131.004,152.675 130.765 C 152.988 130.452,153.196 130.469,153.417 130.827 C 153.615 131.147,153.559 131.222,153.262 131.038 C 153.008 130.881,152.800 130.943,152.800 131.176 C 152.800 131.740,153.327 131.713,153.920 131.120 C 154.293 130.747,154.400 130.747,154.400 131.120 C 154.400 131.384,154.586 131.600,154.814 131.600 C 155.100 131.600,155.100 131.360,154.814 130.826 C 154.310 129.884,154.272 129.178,154.768 129.961 C 155.531 131.167,164.083 130.632,166.699 129.215 L 168.942 128.000 177.284 128.000 C 185.390 128.000,185.683 127.972,187.600 127.000 C 189.519 126.027,189.805 126.000,198.000 126.000 C 206.195 126.000,206.481 125.973,208.400 125.000 C 210.317 124.028,210.610 124.000,218.719 124.000 C 226.825 124.000,227.121 123.971,229.032 123.002 C 231.142 121.932,234.772 121.681,238.296 122.363 C 240.087 122.709,241.176 122.132,240.573 121.156 C 240.385 120.852,240.446 120.781,240.738 120.962 C 241.171 121.229,241.393 120.697,241.218 119.811 C 241.175 119.597,241.520 119.766,241.985 120.186 C 242.449 120.606,242.749 121.156,242.652 121.408 C 242.555 121.660,242.702 121.867,242.978 121.867 C 243.471 121.867,243.474 119.968,242.983 119.173 C 242.860 118.973,243.083 118.928,243.479 119.072 C 244.139 119.313,244.134 119.261,243.422 118.451 C 242.893 117.848,242.833 117.638,243.234 117.792 C 243.646 117.950,243.849 117.718,243.906 117.024 C 243.957 116.406,243.801 116.075,243.494 116.149 C 243.222 116.215,243.135 116.193,243.300 116.101 C 243.465 116.009,243.600 115.668,243.600 115.343 C 243.600 114.999,243.408 114.872,243.138 115.038 C 242.819 115.235,242.788 115.150,243.038 114.762 C 243.713 113.714,243.590 109.854,242.863 109.246 C 242.250 108.734,242.253 108.711,242.900 108.934 C 243.718 109.216,243.812 108.788,243.100 108.021 C 242.697 107.587,242.705 107.542,243.138 107.789 C 243.521 108.006,243.635 107.880,243.534 107.352 C 243.455 106.943,243.057 106.545,242.648 106.466 C 242.120 106.365,241.994 106.479,242.211 106.862 C 242.458 107.295,242.413 107.303,241.979 106.900 C 241.220 106.196,240.779 106.279,241.082 107.069 C 241.262 107.539,241.068 107.468,240.433 106.833 C 239.775 106.175,239.519 105.438,239.500 104.148 C 239.485 103.169,239.302 102.263,239.094 102.134 C 238.879 102.002,238.950 101.745,239.257 101.542 C 239.694 101.254,239.644 101.059,239.000 100.539 C 238.349 100.012,238.330 99.937,238.900 100.134 C 239.390 100.302,239.598 100.168,239.594 99.687 C 239.582 98.354,238.988 97.966,237.167 98.101 L 235.400 98.233 235.262 94.074 C 235.094 89.026,234.503 87.369,232.583 86.567 C 231.361 86.057,231.198 85.815,231.184 84.495 C 231.123 78.763,230.724 77.725,228.441 77.360 C 227.022 77.133,226.989 77.089,227.135 75.562 C 227.217 74.701,227.151 73.682,226.989 73.298 C 226.826 72.914,226.730 71.938,226.775 71.129 C 226.868 69.457,226.093 68.800,224.026 68.800 L 222.800 68.800 222.759 66.300 C 222.737 64.925,222.750 63.228,222.788 62.529 C 222.866 61.071,221.996 60.400,220.026 60.400 C 218.707 60.400,218.605 60.038,218.785 55.989 C 218.888 53.687,218.168 52.275,217.005 52.497 C 216.465 52.600,216.119 52.530,216.236 52.342 C 216.352 52.154,215.987 52.000,215.424 52.000 C 214.481 52.000,214.400 51.861,214.400 50.243 C 214.400 49.009,214.211 48.413,213.767 48.243 C 212.786 47.866,186.668 47.969,186.064 48.352 M232.800 89.676 C 232.800 89.870,232.440 89.835,232.000 89.600 C 231.560 89.365,231.200 88.880,231.200 88.524 C 231.200 87.952,231.294 87.961,232.000 88.600 C 232.440 88.998,232.800 89.482,232.800 89.676 M244.133 115.389 C 244.133 115.725,244.290 116.000,244.481 116.000 C 244.672 116.000,244.624 116.382,244.374 116.848 C 244.097 117.365,244.081 117.597,244.332 117.442 C 244.559 117.302,244.858 117.370,244.996 117.593 C 245.134 117.817,244.956 118.000,244.600 118.000 C 244.233 118.000,244.070 118.190,244.224 118.438 C 244.406 118.733,244.709 118.651,245.147 118.190 C 245.633 117.679,245.672 117.457,245.300 117.319 C 244.518 117.029,244.714 116.284,245.500 116.558 C 246.061 116.753,246.041 116.679,245.400 116.184 C 244.960 115.844,244.659 115.443,244.730 115.293 C 244.802 115.143,244.697 114.966,244.497 114.899 C 244.297 114.832,244.133 115.053,244.133 115.389 M245.600 115.376 C 245.600 115.693,245.783 116.066,246.007 116.204 C 246.230 116.342,246.310 116.621,246.185 116.824 C 246.059 117.028,246.155 117.510,246.397 117.897 C 246.779 118.506,246.805 118.479,246.592 117.698 C 246.423 117.081,246.543 116.720,246.972 116.555 C 247.783 116.244,247.780 115.355,246.967 115.043 C 245.975 114.662,245.600 114.753,245.600 115.376 M154.901 116.213 C 155.066 116.390,154.886 116.910,154.501 117.368 C 153.810 118.188,153.812 118.190,154.632 117.499 C 155.090 117.114,155.610 116.934,155.787 117.099 C 155.964 117.265,156.029 117.141,155.930 116.825 C 155.831 116.509,155.491 116.169,155.175 116.070 C 154.859 115.971,154.735 116.036,154.901 116.213 M247.000 118.800 C 246.674 119.328,247.152 120.077,247.628 119.783 C 248.113 119.483,248.110 118.400,247.624 118.400 C 247.417 118.400,247.136 118.580,247.000 118.800 M241.429 121.069 C 241.289 121.435,241.386 121.929,241.646 122.167 C 241.994 122.487,242.037 122.458,241.807 122.055 C 241.629 121.742,241.707 121.381,241.991 121.205 C 242.302 121.013,242.337 120.808,242.085 120.652 C 241.864 120.516,241.569 120.704,241.429 121.069 M246.629 120.758 C 245.912 121.039,245.907 121.079,246.565 121.331 C 247.336 121.627,248.000 121.370,248.000 120.776 C 248.000 120.341,247.703 120.337,246.629 120.758 M247.399 123.300 C 247.416 124.015,247.604 124.606,247.815 124.614 C 248.732 124.648,250.010 125.700,250.238 126.609 C 250.374 127.151,250.649 127.493,250.849 127.370 C 251.049 127.246,251.117 126.990,251.000 126.800 C 250.883 126.610,250.971 126.342,251.195 126.203 C 251.456 126.042,251.546 126.538,251.445 127.575 C 251.358 128.469,251.445 129.200,251.639 129.200 C 251.833 129.200,251.910 128.077,251.809 126.704 C 251.606 123.950,251.032 123.200,249.124 123.200 C 248.392 123.200,248.000 122.991,248.000 122.600 C 248.000 122.270,247.858 122.000,247.684 122.000 C 247.510 122.000,247.382 122.585,247.399 123.300 M251.009 125.586 C 250.809 125.908,250.564 125.831,250.197 125.328 C 249.513 124.393,249.915 123.743,250.695 124.523 C 251.025 124.853,251.166 125.331,251.009 125.586 M248.567 126.046 C 249.158 126.511,249.547 126.986,249.431 127.103 C 249.314 127.219,248.961 127.100,248.645 126.838 C 248.254 126.513,247.989 126.495,247.812 126.781 C 247.669 127.011,247.608 127.213,247.676 127.230 C 248.899 127.524,249.604 127.517,249.794 127.209 C 250.066 126.770,248.621 125.200,247.946 125.200 C 247.696 125.200,247.976 125.581,248.567 126.046 M253.047 132.633 C 254.361 133.282,255.320 134.823,254.972 135.729 C 254.858 136.025,255.023 136.267,255.339 136.267 C 255.798 136.267,255.833 136.023,255.514 135.033 C 255.048 133.590,253.447 131.996,252.478 132.009 C 252.078 132.014,252.311 132.270,253.047 132.633 M252.011 133.438 C 252.017 133.637,252.582 134.340,253.265 135.000 C 254.112 135.817,254.375 135.944,254.091 135.396 C 253.589 134.427,251.995 132.927,252.011 133.438 M143.867 137.867 C 143.720 138.013,143.621 138.778,143.646 139.567 C 143.672 140.355,143.776 140.683,143.877 140.295 C 143.980 139.897,144.265 139.705,144.530 139.854 C 144.841 140.028,144.831 139.935,144.500 139.579 C 143.823 138.849,143.868 138.264,144.580 138.537 C 144.967 138.685,145.085 138.567,144.937 138.180 C 144.698 137.556,144.295 137.439,143.867 137.867 M255.915 139.200 C 256.012 139.860,256.160 140.400,256.245 140.400 C 256.330 140.400,256.400 139.860,256.400 139.200 C 256.400 138.540,256.251 138.000,256.069 138.000 C 255.887 138.000,255.818 138.540,255.915 139.200 M143.333 143.429 C 143.081 143.963,143.026 144.400,143.211 144.400 C 143.558 144.400,144.181 142.847,143.932 142.599 C 143.855 142.522,143.585 142.895,143.333 143.429 M139.787 144.347 C 139.684 144.449,139.600 144.773,139.600 145.067 C 139.600 145.829,140.563 145.725,141.328 144.880 C 141.948 144.195,140.455 143.678,139.787 144.347 M259.789 144.383 C 259.972 144.678,259.872 145.035,259.551 145.239 C 259.115 145.515,259.146 145.589,259.700 145.594 C 260.484 145.601,260.651 144.602,259.938 144.162 C 259.638 143.976,259.586 144.053,259.789 144.383 M135.731 152.912 C 135.462 153.347,135.620 153.491,136.555 153.662 C 137.000 153.744,137.349 153.549,137.407 153.186 C 137.510 152.533,136.107 152.304,135.731 152.912 M133.867 160.667 C 133.439 161.095,133.556 161.498,134.180 161.737 C 134.588 161.893,134.686 161.767,134.510 161.310 C 134.324 160.824,134.429 160.726,134.931 160.918 C 135.299 161.059,135.600 161.001,135.600 160.787 C 135.600 160.350,134.276 160.258,133.867 160.667 M265.000 160.800 C 266.101 161.273,266.492 161.273,266.200 160.800 C 266.064 160.580,265.558 160.413,265.076 160.428 C 264.231 160.455,264.229 160.469,265.000 160.800 M131.778 161.235 C 131.366 161.902,132.293 162.667,132.845 162.115 C 133.307 161.653,133.018 160.800,132.400 160.800 C 132.206 160.800,131.926 160.996,131.778 161.235 M131.680 163.280 C 131.416 163.544,131.211 164.129,131.225 164.580 C 131.249 165.338,131.279 165.330,131.622 164.474 C 131.826 163.965,132.173 163.660,132.392 163.795 C 132.623 163.938,132.690 163.780,132.553 163.421 C 132.267 162.676,132.282 162.678,131.680 163.280 M128.229 169.829 C 127.883 170.174,127.605 170.669,127.612 170.929 C 127.619 171.188,127.805 171.091,128.025 170.713 C 128.245 170.335,128.735 169.845,129.113 169.625 C 129.491 169.405,129.588 169.219,129.329 169.212 C 129.069 169.205,128.574 169.483,128.229 169.829 M271.111 169.823 C 271.600 170.165,272.000 170.643,272.000 170.885 C 272.000 171.126,271.658 171.014,271.240 170.636 C 270.811 170.248,270.377 170.114,270.244 170.329 C 270.115 170.538,270.277 170.932,270.604 171.204 C 270.932 171.476,271.203 171.541,271.206 171.349 C 271.209 171.157,271.370 171.249,271.562 171.553 C 271.837 171.986,271.973 171.916,272.189 171.234 C 272.505 170.240,271.826 169.200,270.862 169.200 C 270.382 169.200,270.444 169.356,271.111 169.823 M129.144 170.424 L 128.200 171.247 129.400 170.545 C 130.979 169.620,131.003 169.600,130.511 169.600 C 130.279 169.600,129.664 169.971,129.144 170.424 M272.800 177.831 C 272.800 177.935,273.254 178.193,273.810 178.404 C 274.365 178.615,275.193 179.420,275.649 180.194 C 276.106 180.967,276.547 181.600,276.631 181.600 C 276.824 181.600,275.955 179.552,275.499 178.931 C 275.143 178.448,272.800 177.493,272.800 177.831 M126.022 178.513 C 124.387 179.330,123.351 181.440,124.584 181.440 C 125.114 181.440,125.441 181.266,125.310 181.054 C 125.178 180.841,125.572 180.268,126.184 179.780 C 127.561 178.682,127.448 177.800,126.022 178.513 M273.568 180.144 C 274.101 180.723,274.614 181.120,274.708 181.025 C 274.995 180.738,274.406 180.031,273.478 179.548 C 272.641 179.113,272.645 179.140,273.568 180.144 M294.651 224.275 C 295.339 224.618,296.182 225.461,296.525 226.149 C 296.958 227.017,297.157 227.176,297.174 226.669 C 297.188 226.267,296.674 225.412,296.031 224.769 C 295.388 224.126,294.533 223.612,294.131 223.626 C 293.624 223.643,293.783 223.842,294.651 224.275 M294.452 226.173 C 294.967 226.707,295.465 227.069,295.558 226.975 C 295.797 226.736,294.358 225.200,293.896 225.200 C 293.687 225.200,293.937 225.638,294.452 226.173 " fill="#4fdb4f" id="path0" stroke="none"/>
  <path fill-rule="evenodd" d="M311.049 262.320 C 310.922 262.525,311.157 262.999,311.570 263.373 C 311.983 263.746,312.424 263.884,312.551 263.680 C 312.678 263.475,312.443 263.001,312.030 262.627 C 311.617 262.254,311.176 262.116,311.049 262.320 M198.769 266.759 C 197.120 266.937,196.077 267.341,194.769 268.308 C 193.796 269.027,191.856 270.467,190.458 271.508 C 189.061 272.549,186.944 274.030,185.755 274.800 C 184.566 275.570,183.313 276.607,182.970 277.105 C 182.628 277.603,181.684 278.351,180.874 278.766 C 180.063 279.182,178.950 280.007,178.400 280.600 C 177.850 281.193,176.765 282.004,175.988 282.402 C 175.212 282.800,173.682 283.875,172.588 284.791 C 171.495 285.706,169.773 286.882,168.762 287.403 C 167.752 287.924,166.624 288.809,166.256 289.370 C 165.889 289.931,164.834 290.774,163.913 291.245 C 162.991 291.715,161.894 292.535,161.475 293.068 C 161.056 293.601,159.968 294.389,159.056 294.819 C 158.145 295.249,156.844 296.123,156.164 296.761 C 155.484 297.399,153.898 298.502,152.639 299.213 C 151.380 299.923,150.057 300.952,149.698 301.500 C 149.339 302.047,148.292 302.818,147.369 303.213 C 146.447 303.608,145.209 304.566,144.618 305.340 C 143.988 306.167,143.047 306.858,142.340 307.013 C 141.678 307.159,140.169 308.065,138.987 309.028 C 137.805 309.990,135.993 311.175,134.959 311.661 C 133.913 312.153,132.796 313.045,132.440 313.674 C 131.993 314.462,131.257 314.954,130.000 315.306 C 128.603 315.696,128.066 316.095,127.600 317.088 C 127.088 318.179,126.588 318.493,124.200 319.220 C 121.237 320.124,120.114 320.861,119.581 322.255 C 119.160 323.356,117.823 323.558,108.600 323.919 C 102.218 324.168,101.209 324.302,99.716 325.100 C 98.122 325.952,97.579 326.000,89.600 326.000 C 81.632 326.000,81.075 326.049,79.484 326.897 C 78.074 327.648,76.967 327.827,72.685 327.997 C 68.736 328.154,67.484 328.337,67.191 328.800 C 66.983 329.130,66.809 329.196,66.806 328.947 C 66.798 328.318,64.669 327.964,64.318 328.533 C 64.110 328.869,63.893 328.843,63.517 328.438 C 63.091 327.981,63.099 327.939,63.562 328.203 C 63.938 328.418,64.029 328.371,63.838 328.062 C 63.441 327.420,62.419 327.484,62.157 328.167 C 61.950 328.707,60.078 328.743,59.236 328.222 C 59.046 328.105,58.797 328.367,58.683 328.804 C 58.569 329.242,58.188 329.600,57.837 329.600 C 57.096 329.600,56.991 328.977,57.662 328.562 C 57.965 328.374,58.024 328.469,57.832 328.838 C 57.672 329.147,57.818 329.058,58.158 328.641 C 58.989 327.618,58.489 326.925,57.593 327.860 C 56.389 329.116,56.193 330.379,57.246 330.104 C 57.851 329.946,58.036 330.019,57.839 330.337 C 57.682 330.592,57.321 330.800,57.038 330.800 C 56.633 330.800,56.507 333.072,56.445 341.434 C 56.388 349.311,56.486 351.994,56.824 351.785 C 57.160 351.578,57.167 351.714,56.853 352.301 C 56.582 352.807,56.554 353.543,56.777 354.319 C 56.969 354.990,57.008 355.672,56.863 355.834 C 56.719 355.996,56.828 355.997,57.107 355.836 C 57.385 355.676,57.486 355.332,57.330 355.072 C 57.174 354.813,57.375 354.867,57.777 355.194 C 58.179 355.521,58.709 355.808,58.954 355.833 C 59.199 355.858,59.694 355.906,60.053 355.939 C 60.413 355.973,60.801 356.360,60.916 356.801 C 61.031 357.241,60.962 357.500,60.763 357.377 C 60.563 357.254,60.400 357.412,60.400 357.730 C 60.400 358.047,60.773 358.404,61.230 358.524 C 61.686 358.643,62.157 359.114,62.276 359.570 C 62.494 360.404,63.200 360.740,63.200 360.010 C 63.200 359.756,63.559 359.756,64.226 360.010 C 65.642 360.548,91.016 360.526,92.026 359.986 C 92.572 359.694,92.800 359.701,92.800 360.010 C 92.800 361.276,93.456 359.798,93.542 358.338 C 93.597 357.395,93.682 356.585,93.729 356.537 C 93.805 356.462,106.227 355.955,108.100 355.952 C 108.485 355.951,108.800 355.759,108.800 355.526 C 108.800 355.277,109.078 355.328,109.477 355.651 C 109.937 356.024,110.057 356.040,109.853 355.700 C 109.684 355.418,109.749 355.200,110.003 355.200 C 110.272 355.200,110.351 354.877,110.200 354.400 C 109.491 352.168,109.939 352.000,116.603 352.000 C 120.283 352.000,122.852 351.839,123.001 351.599 C 123.166 351.331,123.497 351.331,123.998 351.599 C 124.951 352.109,125.315 352.110,125.000 351.600 C 124.864 351.380,124.943 351.200,125.176 351.200 C 125.409 351.200,125.555 351.065,125.500 350.900 C 125.445 350.735,125.580 350.600,125.800 350.600 C 126.020 350.600,126.175 350.823,126.145 351.096 C 126.115 351.368,126.244 351.496,126.432 351.380 C 126.620 351.264,126.685 350.681,126.576 350.084 C 126.239 348.233,126.623 348.099,132.800 347.914 C 137.800 347.764,138.593 347.652,138.550 347.102 C 138.522 346.751,138.712 346.545,138.971 346.644 C 139.289 346.766,139.429 346.299,139.400 345.213 L 139.358 343.600 146.379 343.551 C 155.547 343.487,155.577 343.486,155.367 343.146 C 155.268 342.986,155.370 342.742,155.593 342.604 C 155.817 342.466,156.000 341.733,156.000 340.976 L 156.000 339.600 161.774 339.600 C 164.950 339.600,168.020 339.421,168.597 339.201 C 169.294 338.936,169.563 338.936,169.399 339.201 C 169.264 339.421,169.423 339.600,169.753 339.600 C 170.083 339.600,170.472 339.408,170.617 339.173 C 170.762 338.938,171.103 338.831,171.374 338.935 C 171.645 339.039,171.867 338.879,171.867 338.579 C 171.867 338.280,171.689 338.145,171.472 338.279 C 171.243 338.421,171.204 338.318,171.379 338.035 C 171.545 337.766,171.937 337.644,172.250 337.764 C 172.687 337.932,172.730 337.817,172.437 337.269 C 172.227 336.878,172.178 336.362,172.328 336.123 C 172.578 335.724,182.546 334.966,186.000 335.083 C 186.770 335.109,187.040 335.038,186.600 334.926 C 186.160 334.814,185.620 334.549,185.400 334.337 C 185.140 334.088,185.235 334.042,185.669 334.207 C 186.663 334.585,188.008 333.697,188.477 332.352 L 188.890 331.166 200.939 331.222 L 212.988 331.279 213.954 332.245 C 214.486 332.777,214.810 333.323,214.675 333.459 C 213.875 334.259,215.322 335.200,217.352 335.200 C 223.842 335.200,227.976 335.698,227.582 336.433 C 227.059 337.411,227.074 338.414,227.600 337.600 C 227.882 337.164,227.989 337.143,227.994 337.524 C 227.997 337.812,228.168 337.944,228.372 337.817 C 228.577 337.691,228.875 337.798,229.034 338.055 C 229.227 338.367,229.149 338.416,228.800 338.200 C 228.443 337.979,228.373 338.032,228.579 338.365 C 228.745 338.634,229.133 338.758,229.440 338.640 C 229.748 338.522,230.000 338.662,230.000 338.951 C 230.000 339.362,231.506 339.495,236.889 339.561 C 240.679 339.607,243.812 339.680,243.853 339.723 C 243.894 339.765,243.994 340.605,244.076 341.590 C 244.247 343.656,243.598 343.497,252.113 343.563 C 256.232 343.595,256.852 343.688,257.041 344.300 C 257.160 344.685,257.396 345.270,257.565 345.600 C 257.907 346.267,260.446 347.613,260.872 347.353 C 261.022 347.262,261.231 347.327,261.337 347.498 C 261.442 347.669,264.020 347.861,267.064 347.926 C 273.912 348.072,274.089 348.114,273.566 349.491 C 273.251 350.317,273.309 350.672,273.840 351.169 C 274.210 351.516,274.398 351.594,274.259 351.342 C 274.119 351.090,274.283 350.777,274.623 350.646 C 274.977 350.511,275.137 350.578,274.997 350.805 C 274.863 351.022,274.954 351.200,275.200 351.200 C 275.446 351.200,275.553 351.353,275.437 351.540 C 275.322 351.727,278.405 351.917,282.288 351.962 C 290.187 352.055,290.170 352.051,289.850 353.649 C 289.710 354.350,289.789 354.800,290.053 354.800 C 290.291 354.800,290.397 355.031,290.288 355.314 C 290.180 355.597,290.385 355.848,290.745 355.871 C 291.105 355.895,294.726 356.034,298.792 356.182 C 302.857 356.330,306.216 356.484,306.255 356.525 C 306.295 356.566,306.394 357.410,306.476 358.400 L 306.626 360.200 322.113 360.277 C 332.073 360.326,337.600 360.213,337.600 359.959 C 337.600 359.742,337.915 359.618,338.300 359.682 C 338.777 359.763,338.963 359.577,338.882 359.100 C 338.818 358.715,338.975 358.400,339.232 358.400 C 339.539 358.400,339.617 357.986,339.460 357.200 C 339.210 355.948,339.357 355.871,342.033 355.853 C 342.382 355.851,342.667 355.621,342.667 355.342 C 342.667 355.063,342.489 354.945,342.272 355.079 C 342.045 355.220,342.003 355.118,342.174 354.842 C 342.390 354.492,342.614 354.480,342.997 354.797 C 343.611 355.307,343.857 329.027,343.247 328.063 C 343.060 327.768,342.208 327.434,341.354 327.321 C 340.499 327.209,339.767 327.087,339.726 327.051 C 339.685 327.015,339.595 325.234,339.526 323.094 C 339.457 320.953,339.254 319.202,339.076 319.201 C 338.898 319.200,338.848 319.045,338.965 318.856 C 339.082 318.667,338.691 318.566,338.095 318.631 C 335.875 318.875,335.287 317.370,334.843 310.313 C 334.814 309.851,334.588 309.707,334.153 309.873 C 333.612 310.081,333.578 309.989,333.941 309.311 C 334.574 308.128,333.151 306.816,332.133 307.645 C 331.532 308.133,331.482 308.116,331.713 307.500 C 331.857 307.115,331.801 306.800,331.587 306.800 C 331.374 306.800,331.197 306.215,331.194 305.500 C 331.189 304.514,331.094 304.345,330.800 304.800 C 330.567 305.161,330.410 305.210,330.406 304.924 C 330.403 304.662,330.569 304.343,330.775 304.216 C 331.376 303.844,331.107 302.350,330.481 302.590 C 330.181 302.706,329.814 302.803,329.667 302.806 C 329.520 302.809,329.670 303.003,330.000 303.237 C 330.533 303.614,330.533 303.643,330.000 303.497 C 329.670 303.407,329.400 303.078,329.400 302.767 C 329.400 302.246,329.156 302.173,327.976 302.340 C 327.743 302.373,327.675 302.598,327.825 302.840 C 328.016 303.149,327.844 303.145,327.248 302.826 C 326.782 302.576,326.400 302.480,326.400 302.613 C 326.400 302.746,325.830 302.449,325.134 301.953 L 323.868 301.051 324.096 301.926 C 324.288 302.659,324.153 302.805,323.263 302.828 C 322.293 302.854,322.270 302.889,323.000 303.234 C 323.685 303.557,323.642 303.590,322.700 303.461 C 322.095 303.378,321.600 303.487,321.600 303.701 C 321.600 303.916,321.156 303.801,320.614 303.446 C 319.349 302.617,319.050 302.630,319.381 303.500 C 319.595 304.061,319.548 304.101,319.144 303.700 C 318.259 302.822,314.581 303.095,312.400 304.200 C 310.483 305.172,310.190 305.200,302.088 305.200 C 294.013 305.200,293.684 305.232,291.677 306.200 C 289.672 307.167,289.332 307.200,281.389 307.200 C 273.419 307.200,273.114 307.230,271.200 308.200 C 268.414 309.612,264.907 309.617,263.684 308.211 C 263.211 307.666,262.323 307.114,261.712 306.983 C 260.127 306.643,259.286 306.202,256.832 304.421 C 255.639 303.555,253.991 302.734,253.168 302.595 C 252.019 302.400,251.564 302.078,251.200 301.200 C 250.882 300.432,250.182 299.842,249.063 299.399 C 248.149 299.037,246.860 298.223,246.200 297.591 C 245.540 296.959,243.762 295.797,242.248 295.009 C 240.735 294.221,239.130 293.110,238.681 292.540 C 238.233 291.970,237.265 291.252,236.530 290.945 C 235.796 290.638,234.701 289.831,234.097 289.152 C 233.494 288.473,232.370 287.587,231.600 287.184 C 230.830 286.780,229.485 285.802,228.612 285.011 C 227.739 284.220,226.099 283.120,224.968 282.567 C 223.838 282.014,222.392 281.013,221.756 280.344 C 221.120 279.674,219.937 278.786,219.126 278.369 C 218.316 277.952,217.416 277.279,217.126 276.874 C 216.837 276.470,215.610 275.503,214.400 274.728 C 213.190 273.952,211.840 272.911,211.400 272.415 C 210.960 271.919,209.599 271.007,208.376 270.389 C 207.153 269.771,205.893 268.952,205.576 268.569 C 204.969 267.836,202.081 266.382,201.400 266.468 C 201.180 266.495,199.996 266.626,198.769 266.759 M315.695 270.226 C 316.297 270.553,317.067 271.356,317.405 272.010 C 318.179 273.506,318.536 273.568,317.924 272.100 C 317.356 270.739,316.126 269.595,315.256 269.616 C 314.832 269.626,314.988 269.842,315.695 270.226 M314.400 271.306 C 314.400 271.600,314.625 272.082,314.900 272.379 C 315.300 272.810,315.300 272.861,314.900 272.635 C 314.625 272.480,314.400 272.524,314.400 272.734 C 314.400 273.395,315.522 273.576,316.005 272.994 C 316.541 272.348,316.280 271.778,315.178 271.188 C 314.588 270.872,314.400 270.901,314.400 271.306 M316.663 273.070 C 316.521 273.212,316.779 273.590,317.236 273.910 C 317.904 274.378,318.159 274.393,318.534 273.988 C 318.896 273.595,318.875 273.554,318.439 273.802 C 318.087 274.004,317.701 273.879,317.400 273.467 C 317.136 273.107,316.805 272.928,316.663 273.070 M321.010 281.584 C 320.866 281.816,321.030 282.288,321.374 282.632 C 321.719 282.976,322.000 283.435,322.000 283.652 C 322.000 283.869,322.199 283.924,322.443 283.774 C 322.758 283.579,322.743 283.412,322.391 283.195 C 322.120 283.027,322.009 282.710,322.144 282.490 C 322.280 282.270,322.139 281.882,321.831 281.626 C 321.445 281.305,321.190 281.292,321.010 281.584 M323.333 290.628 C 323.333 291.017,323.527 291.053,324.067 290.764 C 324.635 290.460,324.800 290.515,324.800 291.010 C 324.800 291.360,324.980 291.536,325.200 291.400 C 325.995 290.909,325.575 290.191,324.467 290.145 C 323.770 290.117,323.333 290.303,323.333 290.628 M325.443 291.833 C 325.091 292.749,325.139 292.882,325.700 292.559 C 325.975 292.401,326.071 292.414,325.914 292.588 C 325.757 292.763,325.821 293.266,326.057 293.707 C 326.399 294.346,326.555 294.397,326.826 293.958 C 327.034 293.621,326.944 293.068,326.593 292.534 C 326.156 291.866,326.136 291.613,326.510 291.461 C 326.807 291.341,326.741 291.251,326.343 291.232 C 325.981 291.214,325.576 291.485,325.443 291.833 M326.006 297.140 C 326.009 297.283,326.179 297.664,326.383 297.987 C 326.618 298.358,326.598 298.761,326.328 299.087 C 326.023 299.454,326.044 299.771,326.400 300.200 C 326.748 300.619,326.762 300.800,326.446 300.800 C 326.125 300.800,326.139 301.033,326.493 301.600 C 327.108 302.586,327.670 302.654,327.313 301.700 C 327.075 301.066,327.123 301.056,327.825 301.593 C 328.575 302.167,328.578 302.160,327.900 301.362 C 327.515 300.908,327.200 300.316,327.200 300.045 C 327.200 299.774,327.020 299.664,326.800 299.800 C 326.580 299.936,326.400 299.857,326.400 299.624 C 326.400 298.980,327.194 299.118,327.458 299.807 C 327.586 300.141,327.986 300.366,328.346 300.307 C 328.778 300.236,328.960 300.440,328.881 300.906 C 328.812 301.316,328.980 301.568,329.281 301.506 C 329.566 301.448,329.755 301.625,329.700 301.900 C 329.574 302.528,330.256 302.556,330.638 301.939 C 330.794 301.686,330.590 301.236,330.185 300.939 C 329.550 300.475,329.538 300.400,330.100 300.400 C 330.459 300.400,330.844 300.252,330.957 300.070 C 331.069 299.889,330.764 299.754,330.280 299.770 C 329.600 299.793,329.409 299.582,329.438 298.840 C 329.472 297.990,329.421 297.957,328.989 298.548 C 328.546 299.154,328.386 299.108,327.250 298.047 C 326.563 297.405,326.003 296.996,326.006 297.140 M333.560 309.049 C 333.312 309.347,332.966 309.502,332.790 309.394 C 332.521 309.228,332.517 308.879,332.769 307.651 C 332.786 307.569,333.072 307.728,333.405 308.004 C 333.862 308.384,333.900 308.638,333.560 309.049 M331.600 309.010 C 331.600 309.345,332.050 309.791,332.600 310.000 C 333.769 310.444,333.888 310.689,332.900 310.612 C 331.507 310.505,329.932 308.400,331.244 308.400 C 331.440 308.400,331.600 308.674,331.600 309.010 M63.600 315.424 C 62.282 316.142,61.200 317.504,61.200 318.444 C 61.200 318.860,60.984 319.200,60.720 319.200 C 60.357 319.200,60.353 319.313,60.701 319.661 C 61.019 319.979,61.039 320.353,60.767 320.861 C 60.501 321.358,60.507 321.600,60.786 321.600 C 61.014 321.600,61.200 321.330,61.200 321.000 C 61.200 320.670,61.391 320.400,61.624 320.400 C 61.857 320.400,61.918 320.625,61.759 320.900 C 61.601 321.175,61.627 321.258,61.818 321.085 C 62.336 320.613,62.521 318.678,62.018 318.989 C 61.784 319.134,61.600 318.916,61.600 318.494 C 61.600 317.731,62.183 317.031,64.000 315.609 C 65.153 314.707,65.024 314.647,63.600 315.424 M337.881 316.561 C 338.277 317.089,338.660 317.465,338.732 317.395 C 338.982 317.156,337.972 315.600,337.567 315.600 C 337.345 315.600,337.486 316.032,337.881 316.561 M63.528 317.396 C 62.803 318.241,62.568 318.825,62.802 319.203 C 62.992 319.510,63.041 319.933,62.912 320.143 C 62.782 320.352,62.869 320.405,63.104 320.259 C 63.339 320.114,63.639 320.221,63.770 320.498 C 63.902 320.774,63.934 320.595,63.842 320.100 C 63.647 319.047,64.255 318.869,64.524 319.900 C 64.693 320.547,64.711 320.545,64.754 319.876 C 64.779 319.478,64.980 319.264,65.200 319.400 C 65.420 319.536,65.600 319.457,65.600 319.224 C 65.600 318.991,65.399 318.800,65.153 318.800 C 64.896 318.800,64.786 318.388,64.893 317.826 C 65.198 316.232,64.670 316.065,63.528 317.396 M336.399 317.398 C 336.914 317.948,337.425 318.309,337.532 318.201 C 337.798 317.935,336.379 316.400,335.868 316.400 C 335.644 316.400,335.883 316.849,336.399 317.398 M60.599 326.393 C 60.805 327.563,60.751 327.640,59.911 327.393 L 59.000 327.126 59.901 327.786 C 60.396 328.149,60.936 328.363,61.101 328.261 C 61.582 327.964,61.370 325.457,60.850 325.283 C 60.521 325.174,60.444 325.515,60.599 326.393 M212.400 331.868 C 212.400 332.379,213.935 333.798,214.201 333.532 C 214.309 333.425,213.948 332.914,213.398 332.399 C 212.849 331.883,212.400 331.644,212.400 331.868 M188.832 332.769 C 188.814 333.081,188.502 333.666,188.138 334.069 C 187.765 334.481,187.671 334.800,187.924 334.800 C 188.505 334.800,189.309 333.296,189.058 332.678 C 188.929 332.362,188.852 332.393,188.832 332.769 M211.200 332.679 C 211.200 333.215,212.300 334.634,212.533 334.399 C 212.642 334.290,212.387 333.775,211.966 333.256 C 211.545 332.736,211.200 332.477,211.200 332.679 M259.253 344.900 C 260.956 346.584,261.136 347.394,259.634 346.618 C 258.440 346.000,257.858 345.376,257.475 344.300 C 257.091 343.225,257.801 343.464,259.253 344.900 " fill="#0476c3" id="path1" stroke="none"/>
  <path fill-rule="evenodd" d="M252.012 132.700 C 252.031 133.183,254.350 135.600,254.794 135.600 C 256.061 135.600,253.790 132.446,252.500 132.413 C 252.225 132.406,252.005 132.535,252.012 132.700 M132.221 161.577 C 131.834 162.004,131.612 162.589,131.727 162.877 C 131.867 163.226,131.947 163.175,131.968 162.723 C 131.986 162.350,132.400 161.765,132.889 161.423 C 133.378 161.080,133.586 160.800,133.351 160.800 C 133.116 160.800,132.608 161.150,132.221 161.577 M267.314 161.720 C 268.368 162.815,268.633 162.782,268.018 161.634 C 267.773 161.175,267.315 160.800,267.000 160.800 C 266.596 160.800,266.688 161.069,267.314 161.720 M128.582 170.182 C 128.042 170.722,127.621 171.577,127.646 172.082 C 127.688 172.900,127.714 172.913,127.889 172.200 C 128.172 171.049,128.832 170.351,130.200 169.754 C 131.274 169.286,131.303 169.230,130.482 169.216 C 129.977 169.207,129.122 169.642,128.582 170.182 M269.800 169.754 C 271.168 170.351,271.828 171.049,272.111 172.200 C 272.286 172.913,272.312 172.900,272.354 172.082 C 272.413 170.911,270.715 169.195,269.518 169.216 C 268.697 169.230,268.726 169.286,269.800 169.754 M272.800 178.452 C 272.800 178.937,275.114 181.200,275.609 181.200 C 275.787 181.200,276.014 181.425,276.112 181.700 C 276.210 181.975,276.390 182.110,276.512 182.000 C 276.906 181.644,274.629 178.693,273.700 178.354 C 273.124 178.144,272.800 178.179,272.800 178.452 M276.893 184.800 C 276.893 185.570,276.975 185.885,277.076 185.500 C 277.176 185.115,277.176 184.485,277.076 184.100 C 276.975 183.715,276.893 184.030,276.893 184.800 M282.690 198.262 C 282.960 198.371,283.284 198.439,283.412 198.412 C 283.539 198.386,283.988 198.778,284.408 199.282 C 285.045 200.046,285.176 200.085,285.187 199.514 C 285.202 198.748,284.036 197.983,282.926 198.032 C 282.524 198.049,282.418 198.152,282.690 198.262 M114.938 199.017 C 114.578 199.955,114.967 200.066,115.519 199.182 C 115.828 198.687,115.854 198.400,115.591 198.400 C 115.362 198.400,115.068 198.678,114.938 199.017 M282.533 199.404 C 282.533 199.712,282.691 199.867,282.884 199.748 C 283.077 199.629,283.532 199.772,283.894 200.066 C 284.359 200.442,284.465 200.453,284.255 200.102 C 283.743 199.251,282.533 198.760,282.533 199.404 M285.956 206.947 C 286.442 207.533,285.592 208.659,285.063 208.130 C 284.918 207.985,284.797 208.122,284.794 208.433 C 284.789 208.900,284.719 208.894,284.400 208.400 C 284.074 207.895,284.011 207.918,284.006 208.547 C 284.002 209.090,284.211 209.238,284.777 209.090 C 285.223 208.973,285.821 209.181,286.179 209.577 C 286.710 210.163,286.716 210.267,286.219 210.267 C 285.898 210.267,285.720 210.129,285.824 209.961 C 285.928 209.793,285.830 209.542,285.607 209.404 C 285.383 209.266,285.200 209.338,285.200 209.564 C 285.200 209.790,284.950 209.879,284.644 209.762 C 284.338 209.644,283.618 210.018,283.044 210.592 C 282.337 211.299,282.000 211.447,282.000 211.052 C 282.000 210.730,282.182 210.406,282.404 210.332 C 282.626 210.258,282.459 209.980,282.033 209.714 C 281.331 209.275,281.276 209.326,281.446 210.264 C 281.593 211.073,281.499 211.247,281.017 211.062 C 280.678 210.932,280.400 210.984,280.400 211.179 C 280.400 211.374,280.625 211.624,280.900 211.735 C 281.252 211.877,281.260 211.946,280.929 211.968 C 280.669 211.986,280.219 211.766,279.929 211.481 C 279.300 210.864,277.600 210.794,277.600 211.386 C 277.600 211.656,274.931 211.807,269.900 211.819 C 262.276 211.838,258.617 212.206,256.926 213.125 C 256.332 213.448,253.414 213.600,247.813 213.600 C 239.817 213.600,239.515 213.630,237.600 214.600 C 235.730 215.547,235.277 215.600,228.979 215.600 C 222.629 215.600,220.311 215.887,215.772 217.235 C 215.096 217.436,210.814 217.600,206.256 217.600 C 198.427 217.600,197.875 217.650,196.284 218.500 C 194.771 219.309,193.848 219.424,187.200 219.635 C 180.264 219.855,177.495 220.225,174.600 221.318 C 173.910 221.579,169.574 221.862,164.400 221.986 C 156.370 222.177,155.249 222.286,154.000 223.000 C 152.787 223.693,151.558 223.836,144.800 224.068 C 136.739 224.345,133.630 224.702,132.126 225.523 C 131.526 225.851,128.556 226.000,122.646 226.000 C 114.872 226.000,114.000 226.068,113.632 226.700 C 113.244 227.367,113.224 227.367,113.212 226.700 C 113.197 225.838,112.460 225.777,112.140 226.612 C 111.937 227.142,111.826 227.128,111.310 226.512 C 110.941 226.070,110.975 226.235,111.399 226.949 C 111.775 227.581,111.897 227.983,111.669 227.843 C 111.442 227.702,111.143 227.769,111.005 227.991 C 110.531 228.759,109.189 229.294,109.451 228.612 C 109.579 228.278,109.873 228.121,110.104 228.264 C 110.349 228.416,110.405 228.331,110.238 228.062 C 109.869 227.465,109.780 227.477,109.029 228.229 C 108.665 228.592,108.400 228.666,108.400 228.405 C 108.400 228.156,108.265 228.036,108.100 228.138 C 107.935 228.240,107.800 227.891,107.800 227.362 C 107.800 226.833,107.919 226.400,108.065 226.400 C 108.210 226.400,108.269 226.085,108.195 225.700 C 108.122 225.315,108.047 224.921,108.031 224.824 C 108.014 224.726,107.757 224.979,107.461 225.384 C 107.073 225.915,106.839 225.987,106.627 225.643 C 106.464 225.380,106.552 224.898,106.823 224.573 C 107.551 223.695,107.176 223.610,105.515 224.277 C 104.699 224.605,103.922 225.216,103.789 225.634 C 103.656 226.053,103.277 226.666,102.945 226.998 C 102.409 227.534,102.412 227.600,102.971 227.600 C 103.317 227.600,103.600 227.881,103.600 228.224 C 103.600 228.593,103.788 228.731,104.062 228.562 C 104.357 228.380,104.415 228.453,104.222 228.764 C 103.993 229.135,103.754 229.102,103.228 228.625 C 101.930 227.451,101.424 229.900,102.678 231.286 C 103.314 231.989,103.314 232.019,102.678 231.774 C 102.208 231.594,102.000 231.719,102.000 232.181 C 102.000 232.566,102.187 232.732,102.443 232.574 C 102.748 232.385,102.792 232.595,102.583 233.250 C 102.416 233.772,102.262 234.606,102.240 235.102 C 102.195 236.120,102.140 236.137,100.153 235.765 C 99.126 235.572,98.612 235.653,98.362 236.047 C 97.936 236.720,97.884 237.974,98.306 237.400 C 98.686 236.883,100.019 236.886,99.908 237.404 C 99.862 237.622,99.575 237.743,99.272 237.673 C 98.967 237.603,98.837 237.736,98.981 237.969 C 99.145 238.234,98.986 238.293,98.551 238.126 C 97.995 237.912,97.920 238.010,98.167 238.631 C 98.644 239.829,98.728 241.203,98.309 240.944 C 98.095 240.812,97.964 241.294,98.006 242.055 C 98.134 244.342,98.113 244.369,96.431 244.166 C 94.565 243.941,94.242 244.305,94.091 246.800 C 93.820 251.252,93.678 252.330,93.265 253.041 C 92.867 253.727,92.823 253.733,92.812 253.100 C 92.798 252.280,91.228 252.132,90.480 252.880 C 89.814 253.546,89.878 254.800,90.577 254.800 C 90.929 254.800,91.097 254.503,91.008 254.040 C 90.861 253.281,91.641 253.107,92.288 253.755 C 92.460 253.926,92.338 254.007,92.018 253.933 C 91.698 253.860,91.428 254.070,91.418 254.400 C 91.408 254.730,90.979 255.060,90.465 255.132 C 89.599 255.255,89.536 255.432,89.613 257.532 C 89.729 260.729,89.748 260.683,88.205 260.973 C 86.140 261.360,85.685 262.646,85.616 268.290 C 85.603 269.299,85.349 269.709,84.446 270.176 C 82.299 271.286,81.200 273.859,81.200 277.771 L 81.200 281.200 79.974 281.200 C 77.454 281.200,77.200 281.623,77.200 285.814 L 77.200 289.600 76.000 289.600 C 75.079 289.600,74.800 289.780,74.800 290.376 C 74.800 290.803,74.637 291.254,74.437 291.377 C 74.238 291.500,74.175 291.217,74.298 290.747 C 74.459 290.132,74.365 289.945,73.961 290.079 C 73.652 290.182,73.363 290.701,73.317 291.233 C 72.936 295.696,72.825 297.061,72.813 297.449 C 72.806 297.696,72.074 298.014,71.188 298.156 C 69.266 298.463,68.767 299.398,68.854 302.530 C 68.957 306.230,68.935 306.289,67.305 306.674 C 66.336 306.903,65.634 307.374,65.311 308.014 C 64.710 309.201,64.630 311.352,65.200 311.000 C 65.420 310.864,65.600 310.943,65.600 311.176 C 65.600 311.409,65.398 311.600,65.151 311.600 C 64.841 311.600,64.856 311.785,65.200 312.200 C 65.544 312.615,65.559 312.800,65.249 312.800 C 65.002 312.800,64.800 313.336,64.800 313.991 C 64.800 314.853,64.496 315.376,63.700 315.885 C 63.095 316.272,62.381 316.861,62.113 317.194 C 61.514 317.939,61.440 319.346,62.018 318.989 C 62.521 318.678,62.336 320.613,61.818 321.085 C 61.627 321.258,61.601 321.175,61.759 320.900 C 61.918 320.625,61.857 320.400,61.624 320.400 C 61.391 320.400,61.200 320.670,61.200 321.000 C 61.200 321.330,61.020 321.600,60.800 321.600 C 60.580 321.600,60.400 321.889,60.400 322.243 C 60.400 322.681,60.623 322.808,61.100 322.642 C 61.748 322.416,61.750 322.437,61.131 322.920 C 60.433 323.465,60.337 324.810,60.963 325.263 C 61.427 325.598,61.509 328.009,61.065 328.283 C 60.881 328.397,60.521 328.263,60.265 327.986 C 59.902 327.593,59.949 327.535,60.480 327.721 C 60.965 327.891,61.095 327.791,60.933 327.369 C 60.770 326.946,60.565 326.897,60.204 327.197 C 59.928 327.426,59.379 327.490,58.985 327.339 C 58.541 327.168,58.365 327.219,58.522 327.473 C 58.661 327.698,58.497 328.224,58.158 328.641 C 57.818 329.058,57.672 329.147,57.832 328.838 C 58.024 328.469,57.965 328.374,57.662 328.562 C 56.991 328.977,57.096 329.600,57.837 329.600 C 58.188 329.600,58.569 329.242,58.683 328.804 C 58.797 328.367,59.046 328.105,59.236 328.222 C 60.078 328.743,61.950 328.707,62.157 328.167 C 62.419 327.484,63.441 327.420,63.838 328.062 C 64.029 328.371,63.938 328.418,63.562 328.203 C 63.099 327.939,63.091 327.981,63.517 328.438 C 63.893 328.843,64.110 328.869,64.318 328.533 C 64.669 327.964,66.798 328.318,66.806 328.947 C 66.809 329.196,66.983 329.130,67.191 328.800 C 67.484 328.337,68.736 328.154,72.685 327.997 C 76.967 327.827,78.074 327.648,79.484 326.897 C 81.075 326.049,81.632 326.000,89.600 326.000 C 97.579 326.000,98.122 325.952,99.716 325.100 C 101.209 324.302,102.218 324.168,108.600 323.919 C 117.823 323.558,119.160 323.356,119.581 322.255 C 120.114 320.861,121.237 320.124,124.200 319.220 C 126.588 318.493,127.088 318.179,127.600 317.088 C 128.066 316.095,128.603 315.696,130.000 315.306 C 131.257 314.954,131.993 314.462,132.440 313.674 C 132.796 313.045,133.913 312.153,134.959 311.661 C 135.993 311.175,137.805 309.990,138.987 309.028 C 140.169 308.065,141.678 307.159,142.340 307.013 C 143.047 306.858,143.988 306.167,144.618 305.340 C 145.209 304.566,146.447 303.608,147.369 303.213 C 148.292 302.818,149.339 302.047,149.698 301.500 C 150.057 300.952,151.380 299.923,152.639 299.213 C 153.898 298.502,155.484 297.399,156.164 296.761 C 156.844 296.123,158.145 295.249,159.056 294.819 C 159.968 294.389,161.056 293.601,161.475 293.068 C 161.894 292.535,162.991 291.715,163.913 291.245 C 164.834 290.774,165.889 289.931,166.256 289.370 C 166.624 288.809,167.752 287.924,168.762 287.403 C 169.773 286.882,171.495 285.706,172.588 284.791 C 173.682 283.875,175.212 282.800,175.988 282.402 C 176.765 282.004,177.850 281.193,178.400 280.600 C 178.950 280.007,180.063 279.182,180.874 278.766 C 181.684 278.351,182.628 277.603,182.970 277.105 C 183.313 276.607,184.566 275.570,185.755 274.800 C 186.944 274.030,189.061 272.549,190.458 271.508 C 191.856 270.467,193.787 269.034,194.749 268.323 C 197.968 265.945,202.910 266.061,205.600 268.578 C 206.150 269.093,207.500 269.964,208.600 270.514 C 209.700 271.064,210.960 271.919,211.400 272.415 C 211.840 272.911,213.190 273.952,214.400 274.728 C 215.610 275.503,216.837 276.470,217.126 276.874 C 217.416 277.279,218.316 277.952,219.126 278.369 C 219.937 278.786,221.120 279.674,221.756 280.344 C 222.392 281.013,223.838 282.014,224.968 282.567 C 226.099 283.120,227.739 284.220,228.612 285.011 C 229.485 285.802,230.830 286.780,231.600 287.184 C 232.370 287.587,233.494 288.473,234.097 289.152 C 234.701 289.831,235.796 290.638,236.530 290.945 C 237.265 291.252,238.233 291.970,238.681 292.540 C 239.130 293.110,240.735 294.221,242.248 295.009 C 243.762 295.797,245.540 296.959,246.200 297.591 C 246.860 298.223,248.149 299.037,249.063 299.399 C 250.182 299.842,250.882 300.432,251.200 301.200 C 251.564 302.078,252.019 302.400,253.168 302.595 C 253.991 302.734,255.639 303.555,256.832 304.421 C 259.286 306.202,260.127 306.643,261.712 306.983 C 262.323 307.114,263.211 307.666,263.684 308.211 C 264.907 309.617,268.414 309.612,271.200 308.200 C 273.114 307.230,273.419 307.200,281.389 307.200 C 289.332 307.200,289.672 307.167,291.677 306.200 C 293.684 305.232,294.013 305.200,302.088 305.200 C 310.190 305.200,310.483 305.172,312.400 304.200 C 314.581 303.095,318.259 302.822,319.144 303.700 C 319.548 304.101,319.595 304.061,319.381 303.500 C 319.050 302.630,319.349 302.617,320.614 303.446 C 321.156 303.801,321.600 303.916,321.600 303.701 C 321.600 303.487,322.095 303.378,322.700 303.461 C 323.642 303.590,323.685 303.557,323.000 303.234 C 322.270 302.889,322.293 302.854,323.263 302.828 C 324.153 302.805,324.288 302.659,324.096 301.926 L 323.868 301.051 325.134 301.953 C 325.830 302.449,326.400 302.746,326.400 302.613 C 326.400 302.480,326.782 302.576,327.248 302.826 C 327.844 303.145,328.016 303.149,327.825 302.840 C 327.675 302.598,327.743 302.373,327.976 302.340 C 329.156 302.173,329.400 302.246,329.400 302.767 C 329.400 303.078,329.670 303.407,330.000 303.497 C 330.495 303.632,330.503 303.593,330.047 303.274 C 329.604 302.964,329.664 302.834,330.347 302.617 C 332.257 302.011,331.122 298.525,328.898 298.169 C 327.782 297.991,327.196 297.619,326.719 296.788 C 326.197 295.878,326.180 295.694,326.633 295.868 C 327.300 296.124,327.461 293.808,326.805 293.403 C 326.573 293.260,326.504 293.458,326.637 293.879 C 326.846 294.538,326.812 294.535,326.245 293.841 C 325.905 293.424,325.738 292.901,325.875 292.679 C 326.027 292.432,325.919 292.403,325.594 292.604 C 325.204 292.845,325.135 292.747,325.332 292.233 C 325.479 291.849,325.600 291.459,325.600 291.367 C 325.600 291.275,325.870 291.200,326.200 291.200 C 326.530 291.200,326.800 291.026,326.800 290.814 C 326.800 290.219,325.386 289.600,324.026 289.600 C 322.702 289.600,322.659 289.455,322.708 285.100 C 322.717 284.274,322.575 283.692,322.391 283.805 C 322.208 283.919,321.943 283.649,321.802 283.206 C 321.661 282.763,321.378 282.400,321.173 282.400 C 320.968 282.400,320.800 282.209,320.800 281.976 C 320.800 281.743,321.008 281.681,321.262 281.838 C 321.548 282.015,321.615 281.948,321.438 281.662 C 321.281 281.408,320.573 281.200,319.865 281.200 L 318.577 281.200 318.684 277.763 C 318.805 273.871,317.766 271.320,315.604 270.202 C 314.542 269.653,314.492 269.487,314.324 265.959 C 314.134 261.983,313.465 260.800,311.410 260.800 C 310.552 260.800,310.499 260.618,310.308 256.957 C 310.089 252.762,309.891 252.416,307.700 252.406 C 306.434 252.400,306.400 252.354,306.400 250.667 C 306.400 249.713,306.280 248.813,306.134 248.667 C 305.987 248.521,305.852 247.456,305.834 246.300 L 305.800 244.200 304.034 244.101 C 301.822 243.977,302.010 244.315,301.948 240.367 C 301.871 235.513,301.876 235.523,299.664 235.659 L 297.800 235.773 297.879 232.097 C 297.923 230.076,297.790 228.317,297.584 228.190 C 297.374 228.060,297.317 228.276,297.454 228.679 C 297.625 229.182,297.491 229.122,297.012 228.479 C 296.634 227.973,296.124 227.625,295.877 227.708 C 295.330 227.890,293.392 225.674,293.769 225.298 C 293.917 225.150,294.588 225.618,295.262 226.338 C 295.935 227.059,296.580 227.553,296.697 227.437 C 297.210 226.924,295.841 224.872,294.586 224.274 C 293.361 223.690,293.242 223.492,293.458 222.410 C 293.613 221.637,293.538 221.200,293.250 221.200 C 293.002 221.200,292.800 221.009,292.800 220.776 C 292.800 220.543,292.957 220.450,293.150 220.569 C 293.342 220.688,293.421 219.843,293.326 218.692 C 293.118 216.185,292.280 215.182,290.305 215.076 C 289.522 215.034,288.963 214.865,289.064 214.700 C 289.165 214.535,289.046 214.400,288.800 214.400 C 288.554 214.400,288.466 214.217,288.604 213.993 C 288.742 213.770,288.981 213.664,289.134 213.759 C 289.287 213.854,289.409 213.002,289.406 211.866 C 289.401 210.001,289.308 209.787,288.456 209.666 C 287.846 209.580,287.608 209.689,287.783 209.973 C 287.933 210.215,288.210 210.317,288.400 210.200 C 288.965 209.851,289.329 210.831,288.821 211.335 C 288.464 211.690,288.413 211.610,288.609 211.000 C 288.857 210.225,288.846 210.223,288.253 210.949 C 287.664 211.669,287.630 211.658,287.381 210.666 C 287.238 210.098,286.879 209.432,286.583 209.186 C 286.007 208.708,286.563 206.800,287.278 206.800 C 287.471 206.800,287.442 207.148,287.214 207.574 C 286.678 208.575,286.689 208.672,287.373 208.934 C 287.771 209.087,287.900 208.921,287.797 208.385 C 287.716 207.963,287.846 207.495,288.086 207.347 C 288.349 207.185,288.409 207.261,288.238 207.538 C 288.081 207.792,288.154 208.000,288.400 208.000 C 288.646 208.000,288.736 208.180,288.600 208.400 C 288.464 208.620,288.543 208.800,288.776 208.800 C 289.672 208.800,289.185 207.174,288.174 206.790 C 286.591 206.188,285.396 206.273,285.956 206.947 M111.280 207.280 C 111.016 207.544,110.812 208.039,110.827 208.380 C 110.845 208.783,111.009 208.679,111.296 208.083 C 111.551 207.554,111.970 207.256,112.289 207.379 C 112.593 207.495,112.732 207.413,112.597 207.195 C 112.273 206.670,111.863 206.697,111.280 207.280 M108.942 215.077 C 107.661 215.327,106.905 216.402,106.698 218.266 C 106.550 219.596,106.628 219.887,107.086 219.712 C 107.471 219.564,107.579 219.170,107.414 218.512 C 107.236 217.805,107.303 217.616,107.652 217.832 C 107.979 218.034,108.058 217.928,107.895 217.503 C 107.595 216.721,108.955 215.420,109.752 215.726 C 110.072 215.849,110.433 215.691,110.554 215.375 C 110.775 214.801,110.558 214.761,108.942 215.077 M291.662 216.256 C 292.041 216.599,292.239 217.155,292.105 217.503 C 291.937 217.942,292.018 218.036,292.375 217.816 C 292.762 217.576,292.812 217.730,292.580 218.450 C 292.412 218.972,292.273 219.617,292.270 219.882 C 292.268 220.148,292.114 220.270,291.927 220.155 C 291.740 220.039,291.691 219.777,291.817 219.572 C 291.944 219.368,291.756 219.200,291.400 219.200 C 291.044 219.200,290.850 219.043,290.969 218.850 C 291.088 218.658,290.738 218.019,290.193 217.430 C 288.677 215.795,289.992 214.745,291.662 216.256 M109.425 217.832 C 108.758 218.499,108.920 219.222,109.724 219.168 C 110.043 219.147,110.027 219.068,109.676 218.927 C 109.268 218.764,109.304 218.548,109.838 217.959 C 110.665 217.044,110.319 216.938,109.425 217.832 M290.400 218.200 C 290.805 218.688,290.785 218.800,290.292 218.800 C 289.958 218.800,289.582 218.530,289.455 218.200 C 289.329 217.870,289.377 217.600,289.564 217.600 C 289.750 217.600,290.126 217.870,290.400 218.200 M312.551 263.680 C 312.424 263.884,311.983 263.746,311.570 263.373 C 311.157 262.999,310.922 262.525,311.049 262.320 C 311.176 262.116,311.617 262.254,312.030 262.627 C 312.443 263.001,312.678 263.475,312.551 263.680 M316.212 272.020 C 316.578 272.612,315.650 273.594,314.971 273.333 C 314.657 273.213,314.400 272.943,314.400 272.734 C 314.400 272.524,314.625 272.480,314.900 272.635 C 315.300 272.861,315.300 272.810,314.900 272.379 C 314.075 271.490,314.260 270.697,315.178 271.188 C 315.605 271.417,316.071 271.791,316.212 272.020 M318.159 274.341 C 318.100 274.418,317.681 274.222,317.228 273.905 C 316.776 273.588,316.509 273.224,316.636 273.097 C 316.869 272.864,318.358 274.080,318.159 274.341 M322.108 282.428 C 322.076 282.852,322.219 283.200,322.425 283.200 C 322.880 283.200,322.927 282.125,322.483 281.851 C 322.309 281.744,322.140 282.003,322.108 282.428 M325.600 290.672 C 325.600 290.937,325.420 291.264,325.200 291.400 C 324.980 291.536,324.800 291.360,324.800 291.010 C 324.800 290.515,324.635 290.460,324.067 290.764 C 323.527 291.053,323.333 291.017,323.333 290.628 C 323.333 290.303,323.770 290.117,324.467 290.145 C 325.090 290.171,325.600 290.408,325.600 290.672 M328.858 298.720 C 329.103 298.334,329.189 298.384,329.194 298.913 C 329.197 299.305,329.605 299.789,330.100 299.988 C 330.896 300.308,330.911 300.352,330.224 300.375 C 329.474 300.399,329.473 300.419,330.185 300.939 C 330.590 301.236,330.794 301.686,330.638 301.939 C 330.256 302.556,329.574 302.528,329.700 301.900 C 329.755 301.625,329.566 301.448,329.281 301.506 C 328.980 301.568,328.812 301.316,328.881 300.906 C 328.960 300.440,328.778 300.236,328.346 300.307 C 327.986 300.366,327.586 300.141,327.458 299.807 C 327.194 299.118,326.400 298.980,326.400 299.624 C 326.400 299.857,326.580 299.936,326.800 299.800 C 327.020 299.664,327.200 299.774,327.200 300.045 C 327.200 300.316,327.515 300.908,327.900 301.362 C 328.578 302.160,328.575 302.167,327.825 301.593 C 327.123 301.056,327.075 301.066,327.313 301.700 C 327.670 302.654,327.108 302.586,326.493 301.600 C 326.139 301.033,326.125 300.800,326.446 300.800 C 326.762 300.800,326.748 300.619,326.400 300.200 C 326.044 299.771,326.023 299.454,326.328 299.087 C 326.598 298.761,326.618 298.358,326.383 297.987 C 325.671 296.860,326.010 296.888,327.264 298.060 C 328.223 298.956,328.607 299.115,328.858 298.720 M331.478 306.631 C 331.740 306.752,331.841 307.155,331.703 307.526 C 331.482 308.116,331.535 308.131,332.133 307.645 C 333.151 306.816,334.574 308.128,333.941 309.311 C 333.582 309.981,333.614 310.080,334.129 309.883 C 334.515 309.735,334.817 309.901,334.927 310.322 C 335.024 310.695,335.049 310.300,334.982 309.445 C 334.837 307.581,334.263 306.958,332.400 306.645 C 331.630 306.515,331.215 306.509,331.478 306.631 M332.769 307.651 C 332.517 308.879,332.521 309.228,332.790 309.394 C 333.469 309.813,334.037 308.529,333.405 308.004 C 333.072 307.728,332.786 307.569,332.769 307.651 M330.944 309.100 C 331.007 309.883,331.844 310.531,332.900 310.612 C 333.888 310.689,333.769 310.444,332.600 310.000 C 332.050 309.791,331.600 309.345,331.600 309.010 C 331.600 308.674,331.440 308.400,331.244 308.400 C 331.049 308.400,330.914 308.715,330.944 309.100 M335.393 316.026 C 335.545 317.227,337.010 319.123,337.448 318.685 C 337.590 318.544,338.039 318.607,338.447 318.825 C 339.123 319.187,339.152 319.125,338.771 318.124 C 337.865 315.740,335.143 314.049,335.393 316.026 M64.893 317.826 C 64.786 318.388,64.896 318.800,65.153 318.800 C 65.399 318.800,65.600 318.991,65.600 319.224 C 65.600 319.457,65.420 319.536,65.200 319.400 C 64.980 319.264,64.779 319.478,64.754 319.876 C 64.711 320.545,64.693 320.547,64.524 319.900 C 64.255 318.869,63.647 319.047,63.842 320.100 C 63.934 320.595,63.902 320.774,63.770 320.498 C 63.639 320.221,63.339 320.114,63.104 320.259 C 62.869 320.405,62.782 320.352,62.912 320.143 C 63.041 319.933,62.992 319.510,62.802 319.203 C 62.568 318.825,62.803 318.241,63.528 317.396 C 64.670 316.065,65.198 316.232,64.893 317.826 M337.002 317.202 C 338.072 318.384,337.499 318.570,336.399 317.398 C 335.883 316.849,335.644 316.400,335.868 316.400 C 336.093 316.400,336.603 316.761,337.002 317.202 M339.600 326.155 C 339.600 326.905,339.851 327.146,340.775 327.282 L 341.951 327.454 341.148 326.327 C 340.167 324.949,339.600 324.886,339.600 326.155 M56.667 327.467 C 56.520 327.613,56.414 328.198,56.432 328.767 C 56.450 329.379,56.553 329.556,56.684 329.200 C 56.805 328.870,57.179 328.285,57.514 327.900 C 58.137 327.185,57.350 326.783,56.667 327.467 M56.600 330.400 C 56.464 330.620,56.623 330.800,56.953 330.800 C 57.283 330.800,57.664 330.620,57.800 330.400 C 57.936 330.180,57.777 330.000,57.447 330.000 C 57.117 330.000,56.736 330.180,56.600 330.400 M188.471 332.369 C 188.039 333.607,186.674 334.591,185.835 334.269 C 185.559 334.163,185.333 334.294,185.333 334.559 C 185.333 336.182,188.534 334.216,189.012 332.300 C 189.377 330.840,188.987 330.889,188.471 332.369 M211.200 331.802 C 211.200 332.582,212.793 334.185,214.113 334.733 C 215.137 335.158,215.194 335.135,214.827 334.450 C 214.607 334.040,214.544 333.590,214.685 333.448 C 214.826 333.307,214.510 332.788,213.981 332.296 C 212.876 331.265,211.200 330.967,211.200 331.802 M214.201 333.532 C 213.935 333.798,212.400 332.379,212.400 331.868 C 212.400 331.644,212.849 331.883,213.398 332.399 C 213.948 332.914,214.309 333.425,214.201 333.532 M172.353 336.033 C 172.327 336.345,172.330 336.805,172.360 337.054 C 172.390 337.304,172.130 337.618,171.782 337.752 C 171.434 337.885,171.261 338.176,171.398 338.397 C 171.535 338.619,171.427 338.800,171.157 338.800 C 170.887 338.800,170.761 338.894,170.876 339.009 C 170.991 339.125,171.376 339.107,171.732 338.971 C 172.387 338.719,173.104 336.171,172.648 335.715 C 172.512 335.578,172.379 335.722,172.353 336.033 M227.606 337.620 C 227.603 337.961,227.816 338.456,228.080 338.720 C 228.655 339.295,230.000 339.360,230.000 338.813 C 230.000 338.599,229.723 338.532,229.384 338.662 C 229.045 338.792,228.820 338.741,228.884 338.549 C 228.948 338.357,228.840 338.170,228.645 338.134 C 228.449 338.098,228.137 337.828,227.951 337.534 C 227.682 337.110,227.611 337.127,227.606 337.620 M139.400 345.213 C 139.430 346.352,139.296 346.769,138.942 346.633 C 138.643 346.518,138.526 346.662,138.651 346.989 C 139.028 347.972,141.936 345.954,142.525 344.300 C 142.738 343.704,142.522 343.600,141.067 343.600 L 139.358 343.600 139.400 345.213 M257.475 344.300 C 257.863 345.389,258.349 345.891,259.906 346.809 C 260.884 347.386,261.180 347.457,260.825 347.030 C 260.537 346.684,260.427 346.400,260.580 346.400 C 260.732 346.400,260.189 345.770,259.373 345.000 C 257.742 343.463,257.090 343.222,257.475 344.300 M273.200 349.111 C 273.200 350.150,274.339 351.605,275.123 351.568 C 275.543 351.549,275.609 351.460,275.298 351.334 C 275.021 351.223,274.895 350.969,275.018 350.770 C 275.141 350.572,274.931 350.528,274.551 350.674 C 274.016 350.879,273.921 350.784,274.126 350.249 C 274.303 349.786,274.240 349.652,273.932 349.842 C 273.621 350.034,273.546 349.849,273.700 349.263 C 273.824 348.788,273.762 348.400,273.563 348.400 C 273.363 348.400,273.200 348.720,273.200 349.111 M126.446 349.500 C 126.421 349.995,126.265 350.355,126.100 350.300 C 125.935 350.245,125.770 350.360,125.734 350.555 C 125.698 350.751,125.428 351.063,125.134 351.249 C 124.722 351.510,124.757 351.589,125.286 351.594 C 126.104 351.601,126.923 350.233,126.672 349.279 C 126.544 348.793,126.480 348.856,126.446 349.500 M56.454 354.220 C 56.392 355.156,57.091 356.000,57.929 356.000 C 58.388 356.000,58.402 355.884,58.004 355.404 C 57.732 355.077,57.363 354.899,57.183 355.010 C 57.004 355.121,56.779 354.804,56.683 354.306 C 56.527 353.494,56.503 353.485,56.454 354.220 M342.222 354.765 C 342.074 355.004,342.098 355.213,342.276 355.228 C 342.454 355.244,342.240 355.411,341.800 355.600 C 341.273 355.827,341.204 355.951,341.600 355.966 C 342.648 356.004,343.453 355.293,342.942 354.782 C 342.619 354.459,342.414 354.454,342.222 354.765 M101.705 356.287 C 102.314 356.379,103.214 356.377,103.705 356.282 C 104.197 356.187,103.700 356.111,102.600 356.114 C 101.500 356.117,101.097 356.195,101.705 356.287 M296.905 356.287 C 297.514 356.379,298.414 356.377,298.905 356.282 C 299.397 356.187,298.900 356.111,297.800 356.114 C 296.700 356.117,296.297 356.195,296.905 356.287 M60.800 359.013 C 60.800 359.657,61.865 360.269,62.274 359.859 C 62.559 359.574,61.655 358.400,61.151 358.400 C 60.958 358.400,60.800 358.676,60.800 359.013 M338.800 358.757 C 338.800 359.027,338.592 359.119,338.338 358.962 C 338.065 358.793,337.984 358.851,338.141 359.104 C 338.286 359.339,338.179 359.623,337.902 359.734 C 337.589 359.860,337.570 359.949,337.851 359.968 C 338.434 360.009,339.393 358.860,339.057 358.524 C 338.916 358.382,338.800 358.487,338.800 358.757 " fill="#1a9f9e" id="path2" stroke="none"/>
  <path fill-rule="evenodd" d="M231.200 88.524 C 231.200 88.880,231.560 89.365,232.000 89.600 C 232.440 89.835,232.800 89.870,232.800 89.676 C 232.800 89.482,232.440 88.998,232.000 88.600 C 231.294 87.961,231.200 87.952,231.200 88.524 M242.974 114.842 C 242.785 115.147,242.845 115.219,243.138 115.038 C 243.408 114.872,243.600 114.999,243.600 115.343 C 243.600 115.668,243.465 116.009,243.300 116.101 C 243.135 116.193,243.222 116.215,243.494 116.149 C 243.801 116.075,243.957 116.406,243.906 117.024 C 243.849 117.718,243.646 117.950,243.234 117.792 C 242.833 117.638,242.893 117.848,243.422 118.451 C 244.134 119.261,244.139 119.313,243.479 119.072 C 243.083 118.928,242.860 118.973,242.983 119.173 C 243.474 119.968,243.471 121.867,242.978 121.867 C 242.702 121.867,242.555 121.660,242.652 121.408 C 242.749 121.156,242.449 120.606,241.985 120.186 C 241.520 119.766,241.175 119.597,241.218 119.811 C 241.393 120.697,241.171 121.229,240.738 120.962 C 240.446 120.781,240.385 120.852,240.573 121.156 C 241.176 122.132,240.087 122.709,238.296 122.363 C 234.772 121.681,231.142 121.932,229.032 123.002 C 227.121 123.971,226.825 124.000,218.719 124.000 C 210.610 124.000,210.317 124.028,208.400 125.000 C 206.481 125.973,206.195 126.000,198.000 126.000 C 189.805 126.000,189.519 126.027,187.600 127.000 C 185.683 127.972,185.390 128.000,177.284 128.000 L 168.942 128.000 166.699 129.215 C 164.083 130.632,155.531 131.167,154.768 129.961 C 154.272 129.178,154.310 129.884,154.814 130.826 C 155.100 131.360,155.100 131.600,154.814 131.600 C 154.586 131.600,154.400 131.384,154.400 131.120 C 154.400 130.747,154.293 130.747,153.920 131.120 C 153.327 131.713,152.800 131.740,152.800 131.176 C 152.800 130.943,153.008 130.881,153.262 131.038 C 153.559 131.222,153.615 131.147,153.417 130.827 C 153.196 130.469,152.988 130.452,152.675 130.765 C 152.436 131.004,151.961 131.194,151.620 131.187 C 151.128 131.177,151.160 131.054,151.776 130.587 C 152.327 130.171,152.385 130.002,151.976 130.006 C 151.067 130.016,150.271 130.667,150.572 131.155 C 150.744 131.433,150.500 131.598,149.924 131.594 C 149.416 131.591,149.186 131.456,149.413 131.294 C 149.778 131.034,149.831 130.686,149.650 129.739 C 149.572 129.332,147.999 131.267,148.006 131.761 C 148.009 132.003,148.187 131.930,148.400 131.600 C 148.633 131.239,148.790 131.190,148.794 131.476 C 148.797 131.738,148.623 132.062,148.406 132.197 C 147.964 132.470,148.043 133.493,148.576 134.400 C 148.770 134.730,148.787 134.873,148.615 134.717 C 148.442 134.562,147.658 134.922,146.871 135.517 C 146.084 136.113,145.566 136.392,145.721 136.137 C 145.931 135.791,145.767 135.785,145.067 136.115 C 144.211 136.520,143.743 137.600,144.424 137.600 C 144.584 137.600,144.814 137.861,144.937 138.180 C 145.085 138.567,144.967 138.685,144.580 138.537 C 143.868 138.264,143.823 138.849,144.500 139.579 C 144.775 139.875,144.804 140.008,144.564 139.875 C 144.283 139.718,144.093 140.299,144.027 141.516 C 143.972 142.552,143.913 143.612,143.896 143.871 C 143.880 144.130,143.536 144.428,143.133 144.533 C 142.729 144.639,142.500 144.562,142.624 144.361 C 142.747 144.161,142.523 144.050,142.124 144.115 C 141.250 144.256,139.627 145.171,140.220 145.188 C 140.451 145.195,140.815 145.065,141.028 144.900 C 141.242 144.735,141.129 144.874,140.778 145.208 C 140.426 145.542,140.212 146.037,140.303 146.308 C 140.393 146.579,140.308 146.800,140.113 146.800 C 139.919 146.800,139.760 147.418,139.760 148.174 C 139.760 148.930,139.922 149.448,140.120 149.326 C 140.318 149.204,140.265 149.505,140.002 149.997 C 139.739 150.488,139.605 151.314,139.704 151.833 C 139.803 152.351,139.743 152.688,139.570 152.581 C 139.397 152.474,139.137 152.579,138.992 152.813 C 138.812 153.105,138.535 153.078,138.112 152.727 C 137.571 152.278,137.531 152.374,137.780 153.508 C 138.019 154.598,137.949 154.799,137.332 154.794 C 136.760 154.789,136.721 154.711,137.151 154.439 C 137.851 153.995,137.371 153.159,136.589 153.459 C 136.268 153.583,136.096 153.833,136.209 154.014 C 136.321 154.196,136.230 154.458,136.007 154.596 C 135.413 154.963,135.509 155.721,136.118 155.487 C 136.758 155.241,136.930 156.672,136.307 157.058 C 136.018 157.236,135.956 157.092,136.127 156.645 C 136.274 156.263,136.227 156.060,136.021 156.187 C 135.385 156.580,135.702 157.931,136.382 157.726 C 136.821 157.594,136.797 157.670,136.300 157.990 C 135.577 158.454,135.285 159.842,136.003 159.398 C 136.244 159.249,136.224 159.550,135.953 160.143 C 135.645 160.818,135.292 161.059,134.850 160.893 C 134.310 160.691,134.284 160.754,134.697 161.262 C 135.110 161.772,135.032 161.948,134.232 162.313 C 133.702 162.554,133.155 163.113,133.014 163.555 C 132.858 164.046,132.533 164.273,132.180 164.137 C 131.757 163.975,131.600 164.224,131.600 165.057 L 131.600 166.200 133.457 164.290 C 134.478 163.240,135.418 162.485,135.545 162.612 C 135.673 162.739,135.542 162.989,135.254 163.166 C 134.967 163.344,134.702 163.649,134.666 163.845 C 134.630 164.040,134.465 164.155,134.300 164.100 C 133.832 163.944,133.947 164.581,134.500 165.201 C 134.924 165.676,134.896 165.683,134.318 165.246 C 133.942 164.963,133.422 164.863,133.163 165.023 C 132.858 165.211,133.098 165.482,133.840 165.785 C 135.044 166.277,136.148 165.809,135.689 165.000 C 135.565 164.780,135.887 164.960,136.407 165.400 L 137.351 166.200 136.450 164.903 C 135.788 163.948,135.715 163.669,136.175 163.846 C 136.519 163.978,136.800 164.246,136.800 164.443 C 136.800 164.639,137.115 164.797,137.500 164.794 C 137.922 164.790,138.029 164.671,137.771 164.494 C 137.047 163.998,136.754 162.807,137.418 163.062 C 137.736 163.184,137.893 163.490,137.768 163.742 C 137.643 163.994,137.792 163.894,138.100 163.520 C 138.761 162.716,140.400 162.725,140.400 163.532 C 140.400 163.927,140.666 164.014,141.300 163.824 C 141.795 163.676,143.550 163.565,145.200 163.578 C 146.850 163.590,148.920 163.400,149.800 163.155 C 151.726 162.619,159.475 162.045,169.800 161.674 C 176.889 161.418,177.521 161.333,179.200 160.400 C 180.778 159.523,181.690 159.365,186.600 159.110 C 197.793 158.530,203.028 158.102,204.397 157.656 C 205.213 157.390,208.628 157.195,212.597 157.188 C 219.116 157.176,219.467 157.134,221.000 156.190 C 222.453 155.295,223.022 155.203,227.200 155.193 C 229.730 155.186,232.520 154.980,233.400 154.735 C 234.280 154.490,237.250 154.139,240.000 153.955 C 242.750 153.771,246.507 153.506,248.349 153.366 C 250.946 153.168,251.782 153.233,252.075 153.655 C 252.334 154.030,252.368 153.903,252.183 153.250 C 252.010 152.637,252.062 152.391,252.330 152.556 C 252.558 152.698,252.863 152.621,253.008 152.387 C 253.192 152.090,253.438 152.100,253.824 152.420 C 254.451 152.941,255.790 151.967,255.281 151.361 C 255.126 151.177,255.315 151.267,255.700 151.562 C 256.085 151.857,256.400 151.964,256.400 151.800 C 256.400 151.636,256.641 151.702,256.935 151.946 C 257.345 152.286,257.695 152.143,258.435 151.331 C 258.966 150.748,259.175 150.401,258.900 150.559 C 258.625 150.718,258.400 150.678,258.400 150.470 C 258.400 150.263,258.737 150.005,259.149 149.897 C 259.712 149.750,259.853 149.877,259.714 150.406 C 259.613 150.793,259.691 151.209,259.887 151.330 C 260.083 151.451,260.260 150.932,260.282 150.176 C 260.303 149.420,260.197 148.878,260.046 148.972 C 259.895 149.065,259.771 148.808,259.771 148.400 C 259.771 147.992,259.913 147.746,260.086 147.853 C 260.813 148.302,260.328 147.195,259.563 146.659 C 258.881 146.181,258.842 146.048,259.351 145.936 C 259.788 145.841,259.564 145.531,258.607 144.908 C 257.656 144.290,257.151 144.156,256.957 144.470 C 256.773 144.767,256.857 144.812,257.200 144.600 C 257.560 144.378,257.627 144.432,257.417 144.773 C 256.571 146.141,256.047 144.372,255.921 139.728 C 255.872 137.929,255.689 136.545,255.513 136.654 C 255.338 136.762,255.085 136.565,254.950 136.215 C 254.773 135.753,254.568 135.694,254.199 136.001 C 253.818 136.317,253.631 136.176,253.445 135.437 C 253.309 134.896,252.877 134.352,252.485 134.227 C 251.894 134.039,251.786 133.592,251.848 131.600 C 251.893 130.175,251.757 129.200,251.513 129.200 C 251.253 129.200,251.268 129.000,251.556 128.653 C 252.014 128.101,251.208 126.925,250.711 127.422 C 250.593 127.540,250.382 127.184,250.243 126.630 C 250.013 125.714,248.743 124.650,247.838 124.614 C 247.639 124.606,247.430 124.284,247.373 123.898 C 247.316 123.508,247.450 123.307,247.675 123.446 C 247.911 123.592,247.890 123.342,247.626 122.848 C 247.327 122.289,247.313 122.000,247.586 122.000 C 247.814 122.000,248.000 121.809,248.000 121.576 C 248.000 121.343,247.836 121.254,247.636 121.378 C 247.436 121.501,246.954 121.481,246.565 121.331 C 245.899 121.076,245.900 121.045,246.595 120.802 C 247.001 120.660,247.377 120.240,247.431 119.870 C 247.485 119.499,247.366 119.298,247.165 119.422 C 246.964 119.546,246.800 119.467,246.800 119.247 C 246.800 119.027,246.989 118.731,247.219 118.588 C 247.508 118.410,247.497 118.158,247.185 117.782 C 246.935 117.481,246.864 117.019,247.027 116.756 C 247.208 116.463,247.154 116.381,246.889 116.545 C 246.650 116.693,246.201 116.452,245.891 116.009 C 245.582 115.567,245.212 115.321,245.070 115.463 C 244.928 115.605,245.125 115.964,245.506 116.261 C 246.163 116.773,246.163 116.789,245.500 116.558 C 244.714 116.284,244.518 117.029,245.300 117.319 C 245.672 117.457,245.633 117.679,245.147 118.190 C 244.709 118.651,244.406 118.733,244.224 118.438 C 244.070 118.190,244.233 118.000,244.600 118.000 C 244.956 118.000,245.134 117.817,244.996 117.593 C 244.858 117.370,244.559 117.302,244.332 117.442 C 244.081 117.597,244.097 117.365,244.374 116.848 C 244.698 116.244,244.702 116.000,244.390 116.000 C 244.150 116.000,244.051 115.840,244.172 115.645 C 244.293 115.450,244.139 115.082,243.831 114.826 C 243.405 114.472,243.200 114.476,242.974 114.842 M154.557 115.527 C 154.770 115.873,154.695 116.011,154.340 115.929 C 154.043 115.861,153.795 115.984,153.788 116.203 C 153.782 116.421,154.042 116.539,154.367 116.464 C 154.864 116.350,154.873 116.430,154.425 116.969 C 153.991 117.493,153.781 117.518,153.277 117.105 C 152.815 116.727,152.840 116.876,153.376 117.700 C 154.001 118.660,155.203 119.376,154.628 118.445 C 154.507 118.250,154.711 117.845,155.079 117.545 C 155.672 117.063,155.718 117.092,155.474 117.800 C 155.201 118.592,155.204 118.592,155.804 117.816 C 156.547 116.856,156.434 116.452,155.195 115.634 C 154.548 115.207,154.340 115.172,154.557 115.527 M155.930 116.825 C 156.029 117.141,155.964 117.265,155.787 117.099 C 155.610 116.934,155.090 117.114,154.632 117.499 C 153.812 118.190,153.810 118.188,154.501 117.368 C 154.886 116.910,155.066 116.390,154.901 116.213 C 154.735 116.036,154.859 115.971,155.175 116.070 C 155.491 116.169,155.831 116.509,155.930 116.825 M152.533 119.792 C 152.533 120.093,152.863 120.315,153.267 120.285 C 153.670 120.255,154.000 120.184,154.000 120.129 C 154.000 120.074,153.670 119.852,153.267 119.636 C 152.721 119.344,152.533 119.384,152.533 119.792 M241.991 121.205 C 241.707 121.381,241.629 121.742,241.807 122.055 C 242.037 122.458,241.994 122.487,241.646 122.167 C 241.094 121.661,241.493 120.286,242.085 120.652 C 242.337 120.808,242.302 121.013,241.991 121.205 M149.970 125.100 L 149.000 126.200 150.200 125.200 C 150.860 124.650,151.475 124.155,151.567 124.100 C 151.658 124.045,151.555 124.000,151.336 124.000 C 151.118 124.000,150.503 124.495,149.970 125.100 M150.470 125.726 C 149.991 126.235,149.587 126.910,149.572 127.226 C 149.554 127.598,149.441 127.540,149.253 127.062 C 148.992 126.398,148.916 126.427,148.497 127.348 C 148.155 128.098,148.149 128.445,148.477 128.648 C 148.764 128.825,148.820 128.723,148.633 128.362 C 148.473 128.053,148.826 128.340,149.417 129.000 C 150.008 129.660,150.390 129.894,150.266 129.520 C 150.108 129.043,150.213 128.907,150.618 129.062 C 150.936 129.184,151.085 129.463,150.949 129.682 C 150.806 129.914,151.015 129.900,151.452 129.647 C 153.232 128.616,154.243 127.457,153.150 127.700 C 152.903 127.755,152.609 127.550,152.498 127.244 C 152.374 126.904,152.471 126.797,152.748 126.968 C 153.009 127.129,153.200 126.988,153.200 126.636 C 153.200 126.231,152.976 126.111,152.534 126.281 C 152.087 126.452,151.964 126.383,152.158 126.068 C 152.317 125.811,152.246 125.600,152.000 125.600 C 151.754 125.600,151.664 125.420,151.800 125.200 C 152.273 124.435,151.334 124.806,150.470 125.726 M249.215 126.015 C 250.449 127.249,249.820 127.745,247.676 127.230 C 247.608 127.213,247.669 127.011,247.812 126.781 C 247.989 126.495,248.254 126.513,248.645 126.838 C 248.961 127.100,249.314 127.219,249.431 127.103 C 249.547 126.986,249.158 126.511,248.567 126.046 C 247.976 125.581,247.696 125.200,247.946 125.200 C 248.196 125.200,248.767 125.567,249.215 126.015 M151.017 126.381 C 150.333 127.137,150.353 127.179,151.642 127.705 C 152.733 128.149,152.845 128.297,152.266 128.519 C 151.792 128.701,151.651 128.641,151.839 128.337 C 152.031 128.027,151.786 127.948,151.062 128.086 C 150.130 128.264,150.025 128.177,150.175 127.351 C 150.394 126.143,150.738 125.600,151.286 125.600 C 151.527 125.600,151.406 125.951,151.017 126.381 M148.400 129.200 C 148.083 129.396,147.956 129.689,148.118 129.852 C 148.281 130.014,148.623 129.937,148.880 129.680 C 149.484 129.076,149.147 128.738,148.400 129.200 M252.720 134.880 C 253.358 135.518,253.326 135.867,252.629 135.867 C 252.315 135.867,251.972 135.537,251.867 135.133 C 251.647 134.292,252.021 134.181,252.720 134.880 M260.501 152.674 C 260.886 153.109,261.066 153.614,260.901 153.797 C 260.735 153.979,260.825 153.999,261.100 153.841 C 261.848 153.410,261.707 152.884,260.700 152.356 C 259.826 151.897,259.821 151.907,260.501 152.674 M262.073 153.500 C 262.164 154.288,262.456 154.636,263.101 154.728 C 263.836 154.832,263.957 155.034,263.757 155.828 C 263.623 156.363,263.668 156.800,263.857 156.800 C 264.720 156.799,264.287 154.731,263.333 154.297 C 262.667 153.993,262.408 153.613,262.536 153.124 C 262.640 152.726,262.550 152.400,262.336 152.400 C 262.122 152.400,262.004 152.895,262.073 153.500 M261.224 154.900 C 261.541 155.175,262.143 155.760,262.562 156.200 C 263.122 156.788,263.088 156.655,262.435 155.700 C 261.946 154.985,261.343 154.400,261.096 154.400 C 260.832 154.400,260.884 154.606,261.224 154.900 M133.375 161.559 C 133.655 162.012,132.616 162.883,132.242 162.509 C 132.086 162.352,132.084 162.554,132.238 162.956 C 132.487 163.602,132.560 163.614,132.872 163.057 C 133.067 162.709,133.509 162.267,133.857 162.072 C 134.425 161.754,134.422 161.694,133.823 161.464 C 133.458 161.324,133.256 161.367,133.375 161.559 M131.880 166.191 C 131.161 166.716,130.917 167.422,131.600 167.000 C 131.820 166.864,132.000 166.943,132.000 167.176 C 132.000 167.409,132.270 167.600,132.600 167.600 C 132.930 167.600,133.200 167.409,133.200 167.176 C 133.200 166.943,133.380 166.864,133.600 167.000 C 133.820 167.136,134.000 167.100,134.000 166.920 C 134.000 166.174,132.574 165.683,131.880 166.191 M129.700 170.396 C 128.985 170.832,128.400 171.402,128.400 171.664 C 128.400 171.925,128.895 171.706,129.500 171.176 C 130.105 170.646,130.771 170.074,130.980 169.906 C 131.684 169.339,131.010 169.597,129.700 170.396 M268.619 169.969 C 268.493 170.173,268.978 170.727,269.695 171.202 L 271.000 172.066 269.800 171.035 C 269.140 170.468,268.833 170.003,269.118 170.002 C 269.749 170.000,271.600 171.792,271.600 172.405 C 271.600 172.648,271.432 172.744,271.228 172.617 C 271.023 172.491,270.752 172.554,270.626 172.758 C 270.499 172.963,270.702 173.085,271.076 173.030 C 272.207 172.864,272.131 172.070,270.863 170.802 C 269.620 169.559,269.012 169.333,268.619 169.969 M268.933 172.171 C 268.933 172.498,269.068 172.682,269.233 172.580 C 269.397 172.478,269.634 172.621,269.759 172.898 C 269.884 173.174,269.944 173.055,269.893 172.633 C 269.783 171.722,268.933 171.314,268.933 172.171 M272.800 179.876 C 272.800 180.096,273.160 180.602,273.600 181.000 C 274.040 181.398,274.400 181.544,274.400 181.324 C 274.400 181.104,274.040 180.598,273.600 180.200 C 273.160 179.802,272.800 179.656,272.800 179.876 " fill="#41cc65" id="path3" stroke="none"/>
  <path fill-rule="evenodd" d="M232.378 86.441 C 232.917 86.656,233.555 86.960,233.797 87.116 C 234.040 87.272,233.894 87.085,233.475 86.700 C 233.055 86.315,232.416 86.011,232.056 86.025 C 231.641 86.041,231.760 86.194,232.378 86.441 M145.855 132.900 C 145.310 133.395,144.758 134.250,144.628 134.800 C 144.436 135.613,144.517 135.560,145.059 134.519 C 145.427 133.815,146.283 132.964,146.963 132.628 C 147.698 132.266,147.925 132.015,147.522 132.009 C 147.150 132.004,146.399 132.405,145.855 132.900 M254.056 132.766 C 254.575 133.187,255.090 133.442,255.199 133.333 C 255.434 133.100,254.015 132.000,253.479 132.000 C 253.277 132.000,253.536 132.345,254.056 132.766 M146.824 134.175 C 146.296 134.737,145.989 135.323,146.143 135.476 C 146.526 135.859,148.132 134.197,147.939 133.618 C 147.847 133.340,147.397 133.564,146.824 134.175 M251.867 135.133 C 251.972 135.537,252.316 135.867,252.631 135.867 C 253.094 135.867,253.077 135.727,252.540 135.133 C 252.175 134.730,251.831 134.400,251.775 134.400 C 251.720 134.400,251.761 134.730,251.867 135.133 M256.800 143.990 C 256.800 144.249,256.584 144.317,256.300 144.147 C 255.969 143.948,255.988 144.079,256.357 144.533 C 256.663 144.910,257.006 145.128,257.117 145.016 C 257.229 144.904,257.578 145.125,257.893 145.506 C 258.431 146.158,258.451 146.155,258.228 145.455 C 258.053 144.905,258.148 144.771,258.595 144.943 C 258.928 145.071,259.200 145.022,259.200 144.834 C 259.200 144.647,258.885 144.382,258.500 144.246 C 258.115 144.111,257.575 143.895,257.300 143.766 C 257.025 143.638,256.800 143.739,256.800 143.990 M259.153 146.362 C 259.585 146.636,259.513 146.774,258.823 146.993 C 258.337 147.147,258.028 147.361,258.136 147.469 C 258.422 147.755,260.000 146.839,260.000 146.386 C 260.000 146.174,259.685 146.003,259.300 146.006 C 258.745 146.011,258.714 146.085,259.153 146.362 M259.100 149.900 C 258.715 149.987,258.400 150.236,258.400 150.453 C 258.400 150.670,258.625 150.718,258.900 150.559 C 259.175 150.401,258.966 150.748,258.435 151.331 C 257.695 152.143,257.345 152.286,256.935 151.946 C 256.641 151.702,256.400 151.636,256.400 151.800 C 256.400 151.964,256.085 151.857,255.700 151.562 C 255.315 151.267,255.126 151.177,255.281 151.361 C 255.790 151.967,254.451 152.941,253.824 152.420 C 253.438 152.100,253.192 152.090,253.008 152.387 C 252.863 152.621,252.558 152.698,252.330 152.556 C 252.062 152.391,252.010 152.637,252.183 153.250 C 252.368 153.903,252.334 154.030,252.075 153.655 C 251.782 153.233,250.946 153.168,248.349 153.366 C 246.507 153.506,242.750 153.771,240.000 153.955 C 237.250 154.139,234.280 154.490,233.400 154.735 C 232.520 154.980,229.730 155.186,227.200 155.193 C 223.022 155.203,222.453 155.295,221.000 156.190 C 219.467 157.134,219.116 157.176,212.597 157.188 C 208.628 157.195,205.213 157.390,204.397 157.656 C 203.028 158.102,197.793 158.530,186.600 159.110 C 181.690 159.365,180.778 159.523,179.200 160.400 C 177.521 161.333,176.889 161.418,169.800 161.674 C 159.475 162.045,151.726 162.619,149.800 163.155 C 148.920 163.400,146.850 163.590,145.200 163.578 C 143.550 163.565,141.795 163.676,141.300 163.824 C 140.666 164.014,140.400 163.927,140.400 163.532 C 140.400 162.725,138.761 162.716,138.100 163.520 C 137.792 163.894,137.643 163.994,137.768 163.742 C 137.893 163.490,137.736 163.184,137.418 163.062 C 136.754 162.807,137.047 163.998,137.771 164.494 C 138.029 164.671,137.922 164.790,137.500 164.794 C 137.115 164.797,136.800 164.639,136.800 164.443 C 136.800 164.246,136.519 163.978,136.175 163.846 C 135.715 163.669,135.788 163.948,136.450 164.903 L 137.351 166.200 136.407 165.400 C 135.887 164.960,135.565 164.780,135.689 165.000 C 136.148 165.809,135.044 166.277,133.840 165.785 C 133.098 165.482,132.858 165.211,133.163 165.023 C 133.422 164.863,133.942 164.963,134.318 165.246 C 134.896 165.683,134.924 165.676,134.500 165.201 C 133.947 164.581,133.832 163.944,134.300 164.100 C 134.465 164.155,134.630 164.040,134.666 163.845 C 134.702 163.649,134.967 163.344,135.254 163.166 C 135.542 162.989,135.670 162.737,135.539 162.606 C 135.409 162.475,134.530 163.178,133.587 164.168 C 132.643 165.158,131.693 165.857,131.474 165.722 C 131.245 165.580,131.202 165.680,131.374 165.958 C 131.570 166.274,131.830 166.307,132.137 166.052 C 132.442 165.799,132.842 165.842,133.301 166.177 C 134.033 166.712,134.293 167.428,133.600 167.000 C 133.380 166.864,133.200 166.943,133.200 167.176 C 133.200 167.780,132.003 167.704,131.988 167.100 C 131.981 166.825,131.787 166.924,131.556 167.321 C 131.259 167.833,131.269 168.201,131.591 168.589 C 131.959 169.032,131.869 169.098,131.123 168.934 C 130.464 168.789,130.354 168.840,130.737 169.112 C 131.155 169.408,130.867 169.912,129.437 171.383 C 128.427 172.423,127.577 173.482,127.548 173.737 C 127.519 173.992,127.462 175.247,127.420 176.527 C 127.354 178.560,127.200 178.970,126.208 179.761 C 125.543 180.291,125.191 180.861,125.359 181.134 C 125.530 181.410,125.402 181.600,125.047 181.600 C 123.430 181.600,124.342 179.106,126.221 178.392 C 126.759 178.187,127.200 177.935,127.200 177.831 C 127.200 177.493,124.857 178.448,124.501 178.931 C 123.866 179.794,123.185 181.657,123.597 181.402 C 123.819 181.265,124.000 181.349,124.000 181.589 C 124.000 181.829,123.725 182.130,123.390 182.259 C 123.000 182.409,122.909 182.657,123.138 182.947 C 123.336 183.196,123.432 183.760,123.352 184.200 C 123.273 184.640,123.188 185.450,123.165 186.000 C 123.032 189.089,122.725 190.074,121.959 189.873 C 121.541 189.764,121.200 189.868,121.200 190.104 C 121.200 190.340,121.086 190.420,120.947 190.281 C 120.519 189.852,119.250 190.761,119.244 191.501 C 119.241 191.885,119.152 192.830,119.045 193.600 C 118.938 194.370,118.840 195.776,118.826 196.724 C 118.810 197.765,118.642 198.349,118.400 198.200 C 118.180 198.064,118.000 198.138,118.000 198.364 C 118.000 198.590,117.730 198.671,117.400 198.545 C 117.070 198.418,116.800 198.524,116.800 198.781 C 116.800 199.037,116.644 199.151,116.453 199.033 C 116.263 198.915,115.785 199.175,115.391 199.609 C 114.960 200.087,114.865 200.400,115.152 200.400 C 115.488 200.400,115.514 200.614,115.240 201.126 C 115.026 201.526,114.794 203.037,114.725 204.485 C 114.656 205.933,114.465 207.036,114.300 206.935 C 114.135 206.835,114.000 206.979,114.000 207.256 C 114.000 207.648,113.893 207.653,113.520 207.280 C 112.907 206.667,112.262 206.654,112.638 207.262 C 112.824 207.562,112.747 207.614,112.417 207.411 C 111.693 206.963,111.136 208.040,111.723 208.752 C 112.132 209.248,112.071 209.262,111.300 208.851 C 110.304 208.321,110.084 208.827,110.940 209.683 C 111.375 210.118,111.381 210.315,110.974 210.696 C 110.695 210.956,110.468 212.031,110.468 213.084 C 110.469 215.929,110.452 215.995,109.785 215.739 C 108.962 215.423,107.589 216.705,107.895 217.503 C 108.058 217.928,107.979 218.034,107.652 217.832 C 107.296 217.612,107.241 217.824,107.444 218.632 C 107.660 219.493,107.595 219.684,107.145 219.511 C 106.707 219.343,106.568 219.663,106.559 220.860 C 106.551 221.963,106.698 222.371,107.054 222.235 C 107.366 222.115,107.475 222.261,107.338 222.618 C 107.216 222.936,106.955 223.096,106.758 222.974 C 106.561 222.852,106.400 222.943,106.400 223.176 C 106.400 223.409,106.116 223.600,105.769 223.600 C 104.890 223.600,102.795 225.784,102.826 226.669 C 102.843 227.169,103.053 226.995,103.490 226.117 C 103.887 225.320,104.673 224.616,105.564 224.257 C 107.178 223.609,107.546 223.701,106.823 224.573 C 106.552 224.898,106.464 225.380,106.627 225.643 C 106.839 225.987,107.073 225.915,107.461 225.384 C 107.757 224.979,108.014 224.726,108.031 224.824 C 108.047 224.921,108.122 225.315,108.195 225.700 C 108.269 226.085,108.210 226.400,108.065 226.400 C 107.919 226.400,107.800 226.833,107.800 227.362 C 107.800 227.891,107.935 228.240,108.100 228.138 C 108.265 228.036,108.400 228.156,108.400 228.405 C 108.400 228.665,108.668 228.589,109.032 228.225 C 109.588 227.670,110.400 227.683,110.400 228.247 C 110.400 228.357,110.239 228.348,110.042 228.226 C 109.845 228.104,109.579 228.278,109.451 228.612 C 109.189 229.294,110.531 228.759,111.005 227.991 C 111.143 227.769,111.442 227.702,111.669 227.843 C 111.897 227.983,111.775 227.581,111.399 226.949 C 110.975 226.235,110.941 226.070,111.310 226.512 C 111.826 227.128,111.937 227.142,112.140 226.612 C 112.460 225.777,113.197 225.838,113.212 226.700 C 113.224 227.367,113.244 227.367,113.632 226.700 C 114.000 226.068,114.872 226.000,122.646 226.000 C 128.556 226.000,131.526 225.851,132.126 225.523 C 133.630 224.702,136.739 224.345,144.800 224.068 C 151.558 223.836,152.787 223.693,154.000 223.000 C 155.249 222.286,156.370 222.177,164.400 221.986 C 169.574 221.862,173.910 221.579,174.600 221.318 C 177.495 220.225,180.264 219.855,187.200 219.635 C 193.848 219.424,194.771 219.309,196.284 218.500 C 197.875 217.650,198.427 217.600,206.256 217.600 C 210.814 217.600,215.096 217.436,215.772 217.235 C 220.311 215.887,222.629 215.600,228.979 215.600 C 235.277 215.600,235.730 215.547,237.600 214.600 C 239.515 213.630,239.817 213.600,247.813 213.600 C 253.414 213.600,256.332 213.448,256.926 213.125 C 258.617 212.206,262.276 211.838,269.900 211.819 C 274.931 211.807,277.600 211.656,277.600 211.386 C 277.600 210.794,279.300 210.864,279.929 211.481 C 280.219 211.766,280.669 211.986,280.929 211.968 C 281.260 211.946,281.252 211.877,280.900 211.735 C 280.625 211.624,280.400 211.374,280.400 211.179 C 280.400 210.984,280.678 210.932,281.017 211.062 C 281.499 211.247,281.593 211.073,281.446 210.264 C 281.276 209.326,281.331 209.275,282.033 209.714 C 282.459 209.980,282.626 210.258,282.404 210.332 C 282.182 210.406,282.000 210.730,282.000 211.052 C 282.000 211.447,282.337 211.299,283.044 210.592 C 283.618 210.018,284.338 209.644,284.644 209.762 C 284.950 209.879,285.200 209.790,285.200 209.564 C 285.200 209.338,285.383 209.266,285.607 209.404 C 285.830 209.542,285.928 209.793,285.824 209.961 C 285.720 210.129,285.898 210.267,286.219 210.267 C 286.716 210.267,286.710 210.163,286.179 209.577 C 285.821 209.181,285.223 208.973,284.777 209.090 C 284.211 209.238,284.002 209.090,284.006 208.547 C 284.011 207.918,284.074 207.895,284.400 208.400 C 284.682 208.836,284.789 208.857,284.794 208.476 C 284.797 208.188,284.960 208.051,285.155 208.172 C 285.350 208.293,285.718 208.139,285.974 207.831 C 286.249 207.500,286.286 207.177,286.065 207.040 C 285.732 206.834,285.017 204.038,285.197 203.645 C 285.236 203.559,285.028 203.337,284.734 203.151 C 284.335 202.898,284.326 202.811,284.700 202.806 C 284.975 202.803,285.200 202.429,285.200 201.976 C 285.200 201.479,285.026 201.261,284.760 201.425 C 284.441 201.622,284.441 201.470,284.761 200.873 C 285.057 200.319,285.068 199.966,284.795 199.797 C 284.570 199.658,284.509 199.332,284.658 199.072 C 284.806 198.813,284.787 198.728,284.613 198.884 C 284.440 199.040,283.776 198.898,283.138 198.568 C 282.499 198.237,281.802 198.075,281.588 198.207 C 281.375 198.339,281.187 198.212,281.171 197.924 C 281.155 197.636,281.100 196.134,281.049 194.588 C 280.997 193.041,280.828 191.568,280.671 191.315 C 280.515 191.062,280.573 190.740,280.800 190.600 C 281.027 190.460,281.108 190.174,280.979 189.966 C 280.850 189.757,280.532 189.720,280.272 189.882 C 279.561 190.327,278.829 190.370,278.589 189.982 C 278.471 189.791,278.135 189.727,277.842 189.839 C 277.168 190.098,276.903 188.676,276.958 185.100 C 276.988 183.185,276.855 182.401,276.500 182.400 C 276.225 182.400,276.000 182.146,276.000 181.835 C 276.000 181.470,275.646 181.309,275.001 181.380 C 273.255 181.572,272.838 180.869,272.760 177.600 C 272.669 173.843,272.312 172.786,271.207 172.999 C 270.743 173.088,270.484 172.988,270.617 172.773 C 270.748 172.560,271.023 172.491,271.228 172.617 C 271.432 172.744,271.600 172.688,271.600 172.493 C 271.600 172.085,270.085 170.656,269.200 170.230 C 268.870 170.071,268.949 170.224,269.376 170.570 C 269.804 170.917,269.961 171.200,269.725 171.200 C 268.436 171.200,268.339 169.571,269.600 169.092 C 270.078 168.910,270.058 168.857,269.500 168.832 C 268.843 168.802,268.759 168.560,268.620 166.300 C 268.597 165.915,268.300 165.275,267.960 164.878 C 267.356 164.173,267.923 162.857,268.557 163.491 C 268.691 163.624,268.800 163.523,268.800 163.267 C 268.800 162.652,267.905 162.671,267.199 163.300 C 266.720 163.727,266.718 163.695,267.182 163.083 C 267.959 162.059,267.128 161.243,266.117 162.037 C 265.463 162.550,265.449 162.538,265.949 161.900 C 266.558 161.123,266.028 160.932,265.295 161.665 C 264.942 162.018,264.767 161.732,264.565 160.472 C 264.408 159.488,264.133 158.918,263.888 159.069 C 263.624 159.232,263.602 159.122,263.827 158.762 C 264.351 157.920,264.449 156.800,263.997 156.800 C 263.779 156.800,263.603 156.485,263.606 156.100 C 263.611 155.502,263.669 155.487,264.000 156.000 C 264.213 156.330,264.388 156.420,264.388 156.200 C 264.388 155.492,263.821 154.896,263.000 154.743 C 262.473 154.644,262.157 154.218,262.073 153.497 C 262.004 152.893,261.784 152.400,261.586 152.400 C 261.388 152.400,261.322 152.652,261.440 152.960 C 261.558 153.267,261.434 153.655,261.165 153.821 C 260.872 154.003,260.779 153.957,260.934 153.707 C 261.075 153.478,260.925 153.070,260.600 152.800 C 260.275 152.530,260.100 152.162,260.211 151.982 C 260.322 151.802,260.230 151.542,260.007 151.404 C 259.783 151.266,259.603 150.848,259.606 150.476 C 259.611 149.893,259.666 149.883,260.000 150.400 C 260.233 150.761,260.390 150.810,260.394 150.524 C 260.402 149.908,259.974 149.701,259.100 149.900 M262.491 153.004 C 262.416 153.920,263.722 154.811,264.297 154.237 C 264.427 154.106,264.223 154.000,263.843 154.000 C 263.423 154.000,263.265 153.819,263.438 153.538 C 263.628 153.231,263.546 153.186,263.194 153.404 C 262.811 153.640,262.734 153.550,262.915 153.078 C 263.052 152.719,263.031 152.343,262.867 152.242 C 262.704 152.140,262.534 152.484,262.491 153.004 M262.435 155.700 C 263.088 156.655,263.122 156.788,262.562 156.200 C 262.143 155.760,261.541 155.175,261.224 154.900 C 260.884 154.606,260.832 154.400,261.096 154.400 C 261.343 154.400,261.946 154.985,262.435 155.700 M136.369 155.300 C 135.712 157.447,135.678 158.345,136.261 158.121 C 136.702 157.952,136.737 157.809,136.391 157.594 C 136.072 157.397,136.052 157.215,136.332 157.042 C 136.561 156.900,136.722 156.428,136.689 155.992 C 136.638 155.316,136.474 154.959,136.369 155.300 M269.893 172.633 C 269.944 173.055,269.884 173.174,269.759 172.898 C 269.634 172.621,269.397 172.478,269.233 172.580 C 269.068 172.682,268.933 172.498,268.933 172.171 C 268.933 171.314,269.783 171.722,269.893 172.633 M284.255 200.102 C 284.465 200.453,284.359 200.442,283.894 200.066 C 283.532 199.772,283.077 199.629,282.884 199.748 C 282.691 199.867,282.533 199.712,282.533 199.404 C 282.533 198.760,283.743 199.251,284.255 200.102 M286.487 207.770 C 286.145 208.519,286.167 208.841,286.583 209.186 C 286.879 209.432,287.238 210.098,287.381 210.666 C 287.630 211.658,287.664 211.669,288.253 210.949 C 288.820 210.255,288.849 210.253,288.637 210.921 C 288.497 211.363,288.570 211.542,288.826 211.384 C 289.343 211.064,289.097 210.218,288.467 210.150 C 287.459 210.042,287.441 209.909,288.398 209.643 C 288.969 209.484,289.436 209.030,289.491 208.582 C 289.543 208.152,289.484 208.025,289.360 208.300 C 289.235 208.575,288.958 208.800,288.743 208.800 C 288.528 208.800,288.464 208.620,288.600 208.400 C 288.736 208.180,288.646 208.000,288.400 208.000 C 288.154 208.000,288.081 207.792,288.238 207.538 C 288.409 207.261,288.349 207.185,288.086 207.347 C 287.846 207.495,287.716 207.963,287.797 208.385 C 287.900 208.921,287.771 209.087,287.373 208.934 C 287.058 208.813,286.800 208.543,286.800 208.334 C 286.800 208.124,286.941 208.040,287.114 208.147 C 287.287 208.254,287.429 207.994,287.429 207.571 C 287.429 206.517,287.018 206.603,286.487 207.770 M289.000 211.906 C 288.464 212.300,288.268 213.329,288.790 213.006 C 289.358 212.655,289.306 213.334,288.720 213.920 C 288.347 214.293,288.352 214.400,288.744 214.400 C 289.033 214.400,289.125 214.612,288.959 214.900 C 288.792 215.191,288.824 215.260,289.036 215.067 C 289.283 214.840,289.648 211.480,289.412 211.606 C 289.405 211.609,289.220 211.744,289.000 211.906 M289.200 216.065 C 289.200 216.226,289.647 216.841,290.193 217.430 C 290.738 218.019,291.088 218.658,290.969 218.850 C 290.850 219.043,291.044 219.200,291.400 219.200 C 291.756 219.200,291.944 219.368,291.817 219.572 C 291.691 219.777,291.740 220.039,291.927 220.155 C 292.114 220.270,292.268 220.148,292.270 219.882 C 292.273 219.617,292.412 218.972,292.580 218.450 C 292.812 217.730,292.762 217.576,292.375 217.816 C 292.018 218.036,291.937 217.942,292.105 217.503 C 292.419 216.685,291.224 215.618,290.089 215.703 C 289.600 215.740,289.200 215.903,289.200 216.065 M109.838 217.959 C 109.304 218.548,109.268 218.764,109.676 218.927 C 110.027 219.068,110.043 219.147,109.724 219.168 C 108.920 219.222,108.758 218.499,109.425 217.832 C 110.319 216.938,110.665 217.044,109.838 217.959 M289.455 218.200 C 289.582 218.530,289.958 218.800,290.292 218.800 C 290.785 218.800,290.805 218.688,290.400 218.200 C 290.126 217.870,289.750 217.600,289.564 217.600 C 289.377 217.600,289.329 217.870,289.455 218.200 M295.286 224.024 C 295.663 224.244,296.248 224.818,296.586 225.301 C 296.924 225.783,297.200 225.958,297.200 225.689 C 297.200 225.044,295.736 223.597,295.100 223.612 C 294.816 223.619,294.896 223.797,295.286 224.024 M295.200 227.563 C 295.200 227.790,295.451 227.878,295.758 227.761 C 296.066 227.643,296.583 227.926,296.909 228.391 C 297.437 229.146,297.528 229.164,297.760 228.561 C 298.087 227.707,297.956 227.586,296.438 227.347 C 295.730 227.235,295.200 227.328,295.200 227.563 M102.310 227.823 C 101.982 228.151,102.431 229.600,102.861 229.600 C 103.063 229.600,103.016 229.195,102.756 228.700 C 102.293 227.817,102.299 227.814,103.102 228.526 C 103.714 229.069,103.997 229.129,104.222 228.764 C 104.415 228.453,104.357 228.380,104.062 228.562 C 103.788 228.731,103.600 228.593,103.600 228.224 C 103.600 227.622,102.769 227.364,102.310 227.823 M102.267 232.667 C 102.120 232.813,102.011 233.308,102.025 233.767 C 102.049 234.533,102.082 234.523,102.434 233.642 C 102.826 232.663,102.744 232.189,102.267 232.667 M102.032 235.100 C 102.014 235.375,101.595 235.613,101.100 235.628 C 100.245 235.655,100.240 235.673,101.000 235.983 C 101.922 236.359,102.588 235.916,102.277 235.135 C 102.121 234.745,102.055 234.735,102.032 235.100 M98.242 237.435 C 98.137 237.709,98.318 238.037,98.646 238.162 C 99.003 238.299,99.137 238.221,98.981 237.969 C 98.832 237.729,98.985 237.601,99.334 237.673 C 99.671 237.743,99.914 237.628,99.874 237.418 C 99.763 236.848,98.462 236.861,98.242 237.435 M98.100 239.791 C 98.100 240.354,98.232 240.896,98.394 240.996 C 98.555 241.096,98.637 240.717,98.575 240.154 C 98.423 238.768,98.100 238.521,98.100 239.791 M95.159 245.200 C 94.661 245.750,94.219 246.470,94.178 246.800 C 94.137 247.130,93.964 247.760,93.793 248.200 C 93.568 248.779,93.606 248.887,93.930 248.591 C 94.176 248.367,94.427 247.753,94.489 247.227 C 94.607 246.207,96.002 244.450,96.497 244.696 C 96.660 244.777,97.103 244.670,97.481 244.459 C 98.049 244.141,97.986 244.085,97.116 244.137 C 96.538 244.172,95.657 244.650,95.159 245.200 M92.800 252.867 C 92.800 253.343,92.851 253.658,92.913 253.567 C 92.975 253.475,93.267 253.085,93.562 252.700 C 94.021 252.101,94.004 252.000,93.449 252.000 C 93.050 252.000,92.800 252.334,92.800 252.867 M91.008 254.040 C 91.161 254.837,90.227 255.123,89.863 254.390 C 89.752 254.165,89.707 254.210,89.763 254.490 C 89.909 255.209,91.396 255.128,91.418 254.400 C 91.428 254.070,91.698 253.860,92.018 253.933 C 92.338 254.007,92.460 253.926,92.288 253.755 C 91.641 253.107,90.861 253.281,91.008 254.040 M83.312 270.300 C 82.578 270.962,81.410 273.200,81.798 273.200 C 81.898 273.200,82.256 272.665,82.595 272.010 C 82.933 271.356,83.703 270.553,84.305 270.226 C 85.012 269.842,85.168 269.626,84.744 269.616 C 84.384 269.607,83.739 269.915,83.312 270.300 M61.582 316.434 C 60.947 317.621,61.269 317.697,62.119 316.561 C 62.514 316.032,62.655 315.600,62.433 315.600 C 62.210 315.600,61.827 315.975,61.582 316.434 M211.212 333.451 C 211.194 334.111,212.291 334.909,212.887 334.669 C 213.217 334.537,213.158 334.452,212.720 334.432 C 212.346 334.414,211.856 334.085,211.632 333.700 C 211.408 333.315,211.219 333.203,211.212 333.451 M178.900 335.476 C 179.285 335.576,179.915 335.576,180.300 335.476 C 180.685 335.375,180.370 335.293,179.600 335.293 C 178.830 335.293,178.515 335.375,178.900 335.476 M142.400 344.600 C 142.191 345.150,141.430 345.959,140.710 346.398 C 139.530 347.118,139.491 347.197,140.318 347.199 C 141.457 347.200,143.200 345.518,143.200 344.418 C 143.200 343.311,142.861 343.388,142.400 344.600 " fill="#3cc46e" id="path4" stroke="none"/>
 </g>
</svg>
